<svg width="528" height="528" viewBox="0 0 528 528" fill="none" xmlns="http://www.w3.org/2000/svg">
<path d="M580.8 -52.8H-52.7998V580.8H580.8V-52.8Z" fill="white"/>
<path d="M580.8 -52.8H-52.7998V580.8H580.8V-52.8Z" fill="white"/>
<path d="M580.8 -52.8H-52.7998V580.8H580.8V-52.8Z" fill="white"/>
<mask id="mask0_0_1" style="mask-type:luminance" maskUnits="userSpaceOnUse" x="93" y="125" width="352" height="289">
<path d="M93.8662 125.807H444.784V413.129H93.8662V125.807Z" fill="white"/>
</mask>
<g mask="url(#mask0_0_1)">
<path d="M94.2227 403.901V135.341C94.2227 130.391 98.2509 126.363 103.198 126.363H435.798C440.746 126.363 444.771 130.391 444.771 135.341V403.901C444.771 408.851 440.746 412.882 435.798 412.882H103.198C98.2509 412.882 94.2227 408.851 94.2227 403.901Z" fill="#070707"/>
</g>
<path d="M424.579 400.815H91.9795C87.5032 400.815 83.8467 397.153 83.8467 392.675V124.117C83.8467 119.638 87.5032 115.979 91.9795 115.979H424.579C429.056 115.979 432.712 119.643 432.712 124.117V392.675C432.712 397.153 429.056 400.815 424.579 400.815Z" fill="#FFC31A"/>
<path d="M416.516 389.128H100.765C99.5298 389.128 98.5215 388.117 98.5215 386.882V164.236C98.5215 163.001 99.5298 161.993 100.765 161.993H416.516C417.748 161.993 418.759 163.001 418.759 164.236V386.882C418.759 388.117 417.748 389.128 416.516 389.128Z" fill="#FAE6DF"/>
<path d="M113.114 139.193C113.114 143.229 109.845 146.494 105.817 146.494C101.791 146.494 98.5215 143.222 98.5215 139.193C98.5215 135.162 101.791 131.891 105.817 131.891C109.845 131.891 113.114 135.162 113.114 139.193Z" fill="#FF4A1F"/>
<path d="M153.59 139.193C153.59 143.229 150.318 146.494 146.293 146.494C142.265 146.494 138.995 143.222 138.995 139.193C138.995 135.162 142.265 131.891 146.293 131.891C150.318 131.891 153.59 135.162 153.59 139.193Z" fill="#FFC31A"/>
<path d="M194.619 139.193C194.619 143.229 191.349 146.494 187.321 146.494C183.295 146.494 180.023 143.222 180.023 139.193C180.023 135.162 183.295 131.891 187.321 131.891C191.349 131.891 194.619 135.162 194.619 139.193Z" fill="#36BF53"/>
<mask id="mask1_0_1" style="mask-type:luminance" maskUnits="userSpaceOnUse" x="83" y="114" width="352" height="289">
<path d="M83.0068 114.907H434.133V402.193H83.0068V114.907Z" fill="white"/>
</mask>
<g mask="url(#mask1_0_1)">
<path d="M424.58 401.655H91.98C87.0325 401.655 83.0068 397.627 83.0068 392.675V124.117C83.0068 119.167 87.0325 115.136 91.98 115.136H424.58C429.527 115.136 433.555 119.167 433.555 124.117V392.675C433.555 397.627 429.527 401.655 424.58 401.655ZM91.98 116.819C87.9594 116.819 84.6874 120.091 84.6874 124.117V392.675C84.6874 396.7 87.9594 399.972 91.98 399.972H424.58C428.603 399.972 431.872 396.7 431.872 392.675V124.117C431.872 120.091 428.603 116.819 424.58 116.819H91.98ZM416.516 389.97H100.765C99.0638 389.97 97.6786 388.583 97.6786 386.882V164.236C97.6786 162.535 99.0638 161.15 100.765 161.15H416.516C418.214 161.15 419.599 162.535 419.599 164.236V386.882C419.599 388.583 418.214 389.97 416.516 389.97ZM100.765 162.833C99.9906 162.833 99.3617 163.462 99.3617 164.236V386.882C99.3617 387.658 99.9906 388.287 100.765 388.287H416.516C417.29 388.287 417.916 387.658 417.916 386.882V164.236C417.916 163.462 417.29 162.833 416.516 162.833H100.765ZM105.817 147.341C101.33 147.341 97.6786 143.688 97.6786 139.198C97.6786 134.707 101.33 131.053 105.817 131.053C110.306 131.053 113.957 134.707 113.957 139.198C113.957 143.688 110.306 147.341 105.817 147.341ZM105.817 132.738C102.257 132.738 99.3617 135.634 99.3617 139.198C99.3617 142.763 102.257 145.658 105.817 145.658C109.379 145.658 112.274 142.763 112.274 139.198C112.274 135.634 109.379 132.738 105.817 132.738ZM146.292 147.341C141.803 147.341 138.152 143.688 138.152 139.198C138.152 134.707 141.803 131.053 146.292 131.053C150.779 131.053 154.43 134.707 154.43 139.198C154.43 143.688 150.779 147.341 146.292 147.341ZM146.292 132.738C142.73 132.738 139.835 135.634 139.835 139.198C139.835 142.763 142.73 145.658 146.292 145.658C149.852 145.658 152.747 142.763 152.747 139.198C152.747 135.634 149.852 132.738 146.292 132.738ZM187.326 147.341C182.839 147.341 179.188 143.688 179.188 139.198C179.188 134.707 182.839 131.053 187.326 131.053C191.815 131.053 195.467 134.707 195.467 139.198C195.467 143.688 191.815 147.341 187.326 147.341ZM187.326 132.738C183.766 132.738 180.871 135.634 180.871 139.198C180.871 142.763 183.766 145.658 187.326 145.658C190.888 145.658 193.783 142.763 193.783 139.198C193.783 135.634 190.888 132.738 187.326 132.738Z" fill="#070707"/>
</g>
<mask id="mask2_0_1" style="mask-type:luminance" maskUnits="userSpaceOnUse" x="188" y="304" width="152" height="60">
<path d="M188.136 304.809H339.691V363.476H188.136V304.809Z" fill="white"/>
</mask>
<g mask="url(#mask2_0_1)">
<path d="M336.149 312.069V308.471H331.923C331.64 307.824 331.238 307.259 330.754 306.775C329.506 305.561 327.856 304.873 326.125 304.873H316.184C314.452 304.873 312.762 305.561 311.555 306.813C311.071 307.259 310.669 307.824 310.386 308.433C310.106 307.824 309.701 307.259 309.22 306.775C308.01 305.561 306.36 304.873 304.67 304.873H294.607C292.875 304.873 291.225 305.561 290.018 306.775C289.534 307.259 289.132 307.824 288.852 308.471H285.43C285.147 307.824 284.745 307.259 284.261 306.775C283.013 305.52 281.323 304.835 279.591 304.873H269.691C267.96 304.873 266.269 305.561 265.062 306.813C264.578 307.259 264.176 307.824 263.893 308.433C263.611 307.824 263.208 307.259 262.727 306.775C261.517 305.561 259.867 304.873 258.177 304.873H248.114C246.382 304.873 244.732 305.561 243.525 306.775C243.042 307.259 242.639 307.824 242.357 308.471H238.937C238.614 307.865 238.252 307.3 237.768 306.775C236.52 305.52 234.83 304.835 233.098 304.873H223.196C221.467 304.873 219.776 305.561 218.567 306.813C218.085 307.259 217.683 307.824 217.4 308.433C217.118 307.824 216.715 307.259 216.232 306.775C215.025 305.561 213.375 304.873 211.643 304.873H201.621C199.889 304.873 198.239 305.561 197.033 306.775C196.429 307.381 195.945 308.148 195.663 308.957C194.817 309.281 194.094 309.765 193.45 310.411C192.966 310.898 192.564 311.463 192.281 312.069H188.136V341.863H192.281C192.966 343.317 194.173 344.45 195.663 345.016C195.945 345.825 196.429 346.592 197.033 347.2C197.554 347.725 198.158 348.13 198.843 348.453V352.657H202.426V356.255H206.693C207.297 357.548 208.302 358.559 209.591 359.165V363.369H219.412L225.009 363.127L225.128 359.285C225.813 358.962 226.458 358.519 227.02 357.951C227.545 357.426 227.947 356.82 228.23 356.173L232.375 355.972V352.657H235.998V348.453C236.681 348.13 237.284 347.684 237.809 347.119C238.293 346.632 238.654 346.067 238.975 345.461H242.318C242.639 346.108 243.042 346.673 243.525 347.2C244.047 347.725 244.651 348.13 245.336 348.453V352.657H248.918V356.255H253.186C253.469 356.902 253.871 357.467 254.352 357.951C254.836 358.478 255.439 358.883 256.084 359.206V363.369H265.907L271.501 363.127L271.621 359.285C272.347 358.962 272.991 358.519 273.513 357.951C274.038 357.426 274.44 356.82 274.723 356.173L278.868 355.972V352.657H282.491V348.453C283.174 348.13 283.78 347.684 284.302 347.119C284.786 346.632 285.147 346.067 285.47 345.461H288.811C289.132 346.108 289.534 346.673 290.018 347.2C290.54 347.725 291.146 348.13 291.829 348.453V352.657H295.411V356.255H299.679C300.282 357.548 301.288 358.559 302.576 359.165V363.451H308.616V363.369H312.4L317.994 363.127L318.114 359.285C318.84 358.962 319.484 358.519 320.006 357.951C320.53 357.426 320.933 356.82 321.215 356.173L325.401 355.972V352.657H328.984V348.453C330.273 347.806 331.319 346.755 331.963 345.461H336.149V341.863H339.691V312.069H336.149ZM315.782 350.353C315.782 350.312 315.782 350.312 315.782 350.353ZM315.782 350.717C315.782 350.676 315.782 350.635 315.782 350.594C315.782 350.635 315.782 350.676 315.782 350.757V350.717ZM315.782 350.554C315.782 350.513 315.782 350.513 315.782 350.472C315.782 350.472 315.782 350.513 315.782 350.554ZM315.782 350.312V350.271C315.782 350.312 315.782 350.312 315.782 350.312Z" fill="#EF9AB6"/>
<path d="M336.149 312.069V308.471H331.923C331.64 307.824 331.238 307.259 330.754 306.775C329.506 305.561 327.856 304.873 326.125 304.873H316.184C314.452 304.873 312.762 305.561 311.555 306.813C311.071 307.259 310.669 307.824 310.386 308.433C310.106 307.824 309.701 307.259 309.22 306.775C308.01 305.561 306.36 304.873 304.67 304.873H294.607C292.875 304.873 291.225 305.561 290.018 306.775C289.534 307.259 289.132 307.824 288.852 308.471H285.43C285.147 307.824 284.745 307.259 284.261 306.775C283.013 305.52 281.323 304.835 279.591 304.873H269.691C267.96 304.873 266.269 305.561 265.062 306.813C264.578 307.259 264.176 307.824 263.893 308.433C263.611 307.824 263.208 307.259 262.727 306.775C261.517 305.561 259.867 304.873 258.177 304.873H248.114C246.382 304.873 244.732 305.561 243.525 306.775C243.042 307.259 242.639 307.824 242.357 308.471H238.937C238.614 307.865 238.252 307.3 237.768 306.775C236.52 305.52 234.83 304.835 233.098 304.873H223.196C221.467 304.873 219.776 305.561 218.567 306.813C218.085 307.259 217.683 307.824 217.4 308.433C217.118 307.824 216.715 307.259 216.232 306.775C215.025 305.561 213.375 304.873 211.643 304.873H201.621C199.889 304.873 198.239 305.561 197.033 306.775C196.429 307.381 195.945 308.148 195.663 308.957C194.817 309.281 194.094 309.765 193.45 310.411C192.966 310.898 192.564 311.463 192.281 312.069H188.136V341.863H192.281C192.966 343.317 194.173 344.45 195.663 345.016C195.945 345.825 196.429 346.592 197.033 347.2C197.554 347.725 198.158 348.13 198.843 348.453V352.657H202.426V356.255H206.693C207.297 357.548 208.302 358.559 209.591 359.165V363.369H219.412L225.009 363.127L225.128 359.285C225.813 358.962 226.458 358.519 227.02 357.951C227.545 357.426 227.947 356.82 228.23 356.173L232.375 355.972V352.657H235.998V348.453C236.681 348.13 237.284 347.684 237.809 347.119C238.293 346.632 238.654 346.067 238.975 345.461H242.318C242.639 346.108 243.042 346.673 243.525 347.2C244.047 347.725 244.651 348.13 245.336 348.453V352.657H248.918V356.255H253.186C253.469 356.902 253.871 357.467 254.352 357.951C254.836 358.478 255.439 358.883 256.084 359.206V363.369H265.907L271.501 363.127L271.621 359.285C272.347 358.962 272.991 358.519 273.513 357.951C274.038 357.426 274.44 356.82 274.723 356.173L278.868 355.972V352.657H282.491V348.453C283.174 348.13 283.78 347.684 284.302 347.119C284.786 346.632 285.147 346.067 285.47 345.461H288.811C289.132 346.108 289.534 346.673 290.018 347.2C290.54 347.725 291.146 348.13 291.829 348.453V352.657H295.411V356.255H299.679C300.282 357.548 301.288 358.559 302.576 359.165V363.451H308.616V363.369H312.4L317.994 363.127L318.114 359.285C318.84 358.962 319.484 358.519 320.006 357.951C320.53 357.426 320.933 356.82 321.215 356.173L325.401 355.972V352.657H328.984V348.453C330.273 347.806 331.319 346.755 331.963 345.461H336.149V341.863H339.691V312.069H336.149ZM333.855 329.048H333.654V335.798H330.514C330.191 335.76 330.071 335.879 330.11 336.203V339.396H326.568C326.568 339.6 326.529 339.76 326.529 339.964V342.551C326.568 342.915 326.407 343.035 326.046 343.035H322.947V346.632H319.767C319.443 346.632 319.323 346.714 319.323 347.037C319.364 348.089 319.364 349.141 319.364 350.23H318.84C317.994 350.23 316.706 350.23 316.263 350.23C316.062 350.23 315.942 350.149 315.901 350.149C315.82 350.149 315.782 350.23 315.782 350.757C315.782 351.646 315.782 353.1 315.782 353.423C315.782 353.747 315.659 353.869 315.298 353.869H312.199V355.85C312.199 356.375 312.158 356.861 312.158 357.385H308.616V353.828H306.039C305.034 353.828 305.034 353.828 305.034 352.817V350.594C305.034 350.312 304.952 350.19 304.631 350.19C304.349 350.19 304.107 350.19 303.824 350.19C303.02 350.19 302.256 350.19 301.451 350.19V348.978C301.451 348.372 301.41 347.562 301.451 347.119C301.489 346.714 301.693 346.592 301.209 346.592C301.128 346.592 301.049 346.592 300.926 346.592C300.725 346.592 300.483 346.592 300.282 346.592C299.638 346.592 299.035 346.592 298.39 346.592H297.868V343.562C297.868 342.956 297.868 342.956 297.303 342.956H294.647C294.365 342.994 294.245 342.874 294.245 342.551C294.286 341.54 294.245 340.488 294.245 339.396H291.307C291.146 339.396 291.024 339.396 290.945 339.396C290.703 339.396 290.703 339.358 290.703 338.749C290.703 337.942 290.662 336.85 290.703 336.366C290.744 335.961 290.622 335.798 290.301 335.798C290.26 335.798 290.219 335.798 290.138 335.798H284.019C283.859 335.76 283.739 335.798 283.698 335.879C283.657 335.92 283.657 335.961 283.617 336.002C283.617 336.042 283.617 336.124 283.617 336.203V339.396H280.075C280.075 339.6 280.034 339.76 280.034 339.964V342.551C280.034 342.632 280.034 342.711 280.034 342.793C279.996 342.915 279.914 342.994 279.795 343.035C279.713 343.035 279.632 343.075 279.553 343.075H276.451V346.673H273.274C273.192 346.673 273.111 346.673 273.07 346.673C272.91 346.714 272.831 346.836 272.831 347.078C272.831 347.32 272.831 347.603 272.831 347.885C272.831 348.412 272.831 348.937 272.831 349.464C272.831 349.747 272.831 349.988 272.831 350.271H272.347C271.501 350.271 270.213 350.271 269.77 350.271C269.569 350.271 269.449 350.19 269.368 350.19C269.327 350.19 269.327 350.19 269.286 350.19C269.248 350.19 269.248 350.23 269.248 350.312C269.248 350.353 269.248 350.434 269.248 350.472C269.248 350.554 269.248 350.635 269.248 350.757C269.248 350.796 269.248 350.877 269.248 350.918C269.248 351.04 269.248 351.16 269.248 351.282C269.248 351.363 269.248 351.404 269.248 351.483C269.248 351.605 269.248 351.766 269.248 351.888C269.248 352.575 269.248 353.222 269.248 353.423C269.248 353.586 269.207 353.709 269.126 353.747C269.047 353.828 268.925 353.828 268.764 353.828H265.665V355.809C265.665 356.051 265.665 356.334 265.665 356.578C265.665 356.82 265.665 357.062 265.665 357.345H262.121V353.788H259.547C258.541 353.788 258.541 353.546 258.541 352.777C258.541 352.01 258.541 350.836 258.541 350.554C258.541 350.393 258.541 350.312 258.459 350.23C258.378 350.149 258.299 350.149 258.136 350.149C257.856 350.149 257.614 350.149 257.331 350.149C256.809 350.149 256.285 350.149 255.763 350.149C255.48 350.149 255.238 350.149 254.958 350.149V348.937C254.958 348.331 254.917 347.524 254.958 347.078C254.958 347.037 254.958 347.037 254.958 346.997C254.958 346.956 254.958 346.915 254.996 346.874C255.037 346.836 255.037 346.795 255.037 346.755V346.714C255.037 346.632 255.037 346.592 254.958 346.592C254.917 346.592 254.836 346.551 254.716 346.551C254.635 346.551 254.553 346.551 254.434 346.551C254.232 346.551 253.991 346.551 253.789 346.551C253.145 346.551 252.501 346.551 251.898 346.551H251.376V343.521C251.376 342.994 251.376 342.915 251.011 342.915C250.971 342.915 250.892 342.915 250.81 342.915H248.154C247.872 342.956 247.752 342.833 247.752 342.51V339.358H244.814C244.21 339.358 244.21 339.518 244.21 338.711C244.21 338.388 244.21 338.064 244.21 337.741C244.21 337.496 244.21 337.295 244.21 337.094C244.21 336.972 244.21 336.89 244.21 336.809C244.21 336.608 244.21 336.485 244.21 336.366C244.21 336.284 244.21 336.244 244.21 336.203C244.21 336.042 244.17 335.961 244.088 335.879C244.047 335.839 243.968 335.798 243.887 335.798C243.846 335.798 243.805 335.798 243.767 335.798C243.726 335.798 243.686 335.798 243.604 335.798H237.488C237.165 335.76 237.004 335.314 237.045 336.203C237.083 337.094 237.083 337.942 237.083 338.831V339.396H233.541C233.501 339.6 233.501 339.76 233.501 339.964V342.551C233.541 342.915 233.381 343.035 233.019 343.035H229.918V346.632H226.699C226.417 346.632 226.297 346.714 226.297 347.037C226.335 348.089 226.297 349.141 226.297 350.23H225.813C224.968 350.23 223.679 350.23 223.236 350.23C222.793 350.23 222.674 349.866 222.714 350.757C222.755 351.646 222.755 353.1 222.755 353.423C222.755 353.747 222.633 353.869 222.271 353.869H219.173V355.85C219.173 356.375 219.132 356.861 219.132 357.385H215.59V353.828H213.013C212.007 353.828 212.007 353.586 212.007 352.817C212.007 352.051 212.007 350.877 212.007 350.594C212.007 350.312 211.926 350.19 211.602 350.19C210.556 350.23 209.509 350.19 208.425 350.19V348.978C208.425 348.372 208.384 347.562 208.425 347.119C208.463 346.673 208.745 346.551 207.9 346.592C207.055 346.632 206.209 346.592 205.364 346.592H204.842V343.602C204.842 342.994 204.842 342.994 204.236 342.994H201.621C201.298 343.035 201.219 342.915 201.219 342.591V339.437H198.28C197.677 339.437 197.677 339.6 197.677 338.79V338.749C197.677 337.942 197.677 336.89 197.677 336.406C197.677 335.92 197.514 335.8 197.111 335.839H194.173V329.17H193.972V317.971H197.274C197.353 317.971 197.435 318.012 197.514 318.012C197.514 317.931 197.514 317.852 197.514 317.729C197.514 317.284 197.476 316.477 197.476 314.979C197.476 314.414 197.796 314.333 198.158 314.333C198.843 314.373 199.487 314.333 200.172 314.333C200.452 314.333 200.735 314.333 201.058 314.333C201.058 314.254 201.058 314.131 201.058 314.05V311.343C201.058 311.18 201.058 310.735 201.621 310.735H211.684C212.208 310.735 212.208 311.18 212.208 311.343V313.971C212.208 314.333 212.247 314.373 212.57 314.373H215.791V317.89H219.01V314.333H221.869C222.19 314.333 222.473 314.333 222.551 314.294C222.592 314.254 222.592 313.971 222.592 313.645V311.381C222.592 311.099 222.674 310.735 223.196 310.735H233.139C233.742 310.735 233.742 311.18 233.742 311.381V314.333H237.325V315.95C237.325 316.314 237.325 316.719 237.284 317.123C237.284 317.406 237.284 317.607 237.284 317.729C237.284 317.971 237.325 317.971 237.488 317.971H243.767C243.846 317.971 243.928 318.012 244.009 318.012C244.009 317.931 244.009 317.852 244.009 317.729C243.968 317.243 244.009 316.596 244.009 316.031C244.009 315.588 244.009 315.142 244.009 314.979C244.009 314.819 243.968 314.618 244.129 314.496C244.248 314.333 244.45 314.333 244.651 314.333C245.336 314.373 245.98 314.333 246.665 314.333C246.948 314.333 247.228 314.333 247.551 314.333C247.551 314.254 247.551 314.131 247.551 314.05V311.343C247.551 311.18 247.551 310.735 248.114 310.735H258.177C258.701 310.735 258.701 311.18 258.701 311.343V313.971C258.701 314.333 258.742 314.373 259.063 314.373H262.284V317.89H265.502V314.333H268.362C268.683 314.333 268.965 314.333 269.047 314.294C269.085 314.254 269.085 313.971 269.085 313.645V311.381C269.085 311.099 269.167 310.735 269.691 310.735H279.632C280.235 310.735 280.235 311.18 280.235 311.381V314.333H283.818V317.729C283.818 317.852 283.818 317.931 283.818 317.931C283.818 317.931 283.859 317.971 284.019 317.971H290.301C290.502 317.971 290.502 317.971 290.502 317.729V314.979C290.502 314.86 290.502 314.656 290.622 314.496C290.744 314.333 290.945 314.333 291.146 314.333C291.829 314.373 292.473 314.333 293.158 314.333C293.44 314.333 293.72 314.333 294.044 314.333V311.343C294.044 311.18 294.044 310.735 294.607 310.735H304.67C304.871 310.735 304.993 310.775 305.113 310.898C305.194 311.02 305.235 311.18 305.194 311.381V313.971C305.194 314.333 305.235 314.373 305.556 314.373H308.777V317.89H311.998V314.333H314.855C315.58 314.333 315.58 314.333 315.58 313.645V311.381C315.58 311.099 315.659 310.735 316.184 310.735H326.125C326.367 310.735 326.529 310.775 326.608 310.898C326.769 311.058 326.731 311.303 326.731 311.381V314.294H330.313V317.689C330.313 317.811 330.313 317.89 330.313 317.89C330.313 317.89 330.351 317.931 330.514 317.931L333.855 317.89V329.048Z" fill="#5D5EAA"/>
</g>
<path d="M330.514 317.971C330.351 317.971 330.313 317.931 330.313 317.931C330.313 317.931 330.272 317.852 330.313 317.729V314.333H326.73V311.422C326.73 311.343 326.769 311.099 326.608 310.938C326.489 310.816 326.326 310.775 326.124 310.775H316.184C315.659 310.775 315.58 311.14 315.58 311.422V313.686C315.58 314.373 315.58 314.373 314.855 314.373H311.998V317.931H308.777V314.414H305.555C305.235 314.414 305.194 314.373 305.194 314.009V311.422C305.235 311.221 305.194 311.058 305.112 310.938C305.033 310.816 304.871 310.775 304.669 310.775H294.606C294.044 310.775 294.044 311.221 294.044 311.381V314.373C293.761 314.373 293.44 314.373 293.158 314.373C292.473 314.373 291.828 314.373 291.146 314.373C290.945 314.373 290.744 314.373 290.621 314.536C290.502 314.697 290.502 314.9 290.502 315.02V317.77C290.502 318.012 290.502 318.012 290.301 318.012H284.019C283.858 318.012 283.818 317.971 283.818 317.971C283.818 317.971 283.78 317.89 283.818 317.77V314.373H280.235V311.422C280.235 311.221 280.235 310.775 279.632 310.775H269.691C269.166 310.775 269.085 311.14 269.085 311.422V313.686C269.085 314.009 269.085 314.254 269.047 314.333C269.006 314.373 268.723 314.373 268.362 314.373H265.502V317.931H262.284V314.414H259.063C258.742 314.414 258.701 314.373 258.701 314.009V311.343C258.701 311.18 258.701 310.735 258.177 310.735H248.114C247.551 310.735 247.551 311.18 247.551 311.343V314.05C247.551 314.131 247.551 314.254 247.551 314.333C247.268 314.333 246.947 314.333 246.665 314.333C245.98 314.333 245.336 314.333 244.651 314.333C244.449 314.333 244.248 314.333 244.129 314.496C244.009 314.656 244.009 314.86 244.009 314.979C244.009 315.142 244.009 315.588 244.009 316.031C244.009 316.596 243.968 317.205 244.009 317.729C244.009 317.852 244.009 317.931 244.009 318.012C243.927 317.971 243.846 317.971 243.767 317.971H237.488C237.325 317.971 237.284 317.971 237.284 317.729C237.284 317.607 237.284 317.365 237.284 317.123C237.284 316.759 237.325 316.314 237.325 315.95V314.333H233.742V311.381C233.742 311.18 233.742 310.735 233.139 310.735H223.196C222.674 310.735 222.592 311.099 222.592 311.381V313.648C222.592 313.971 222.592 314.213 222.551 314.294C222.513 314.333 222.23 314.333 221.869 314.333H219.009V317.89H215.791V314.373H212.57C212.246 314.373 212.208 314.333 212.208 313.971V311.343C212.208 311.18 212.208 310.735 211.684 310.735H201.621C201.058 310.735 201.058 311.18 201.058 311.343V314.05C201.058 314.131 201.058 314.254 201.058 314.333C200.775 314.333 200.452 314.333 200.172 314.333C199.487 314.333 198.843 314.333 198.158 314.333C197.796 314.333 197.475 314.414 197.475 314.979C197.475 316.477 197.514 317.325 197.514 317.729C197.514 317.852 197.514 317.931 197.514 318.012C197.435 317.971 197.353 317.971 197.274 317.971H193.972V329.17H194.173V335.798H197.152C197.554 335.76 197.715 335.879 197.715 336.366V336.406C197.715 336.89 197.715 337.942 197.715 338.749C197.715 339.559 197.715 339.396 198.321 339.396H201.259V342.551C201.259 342.874 201.338 342.994 201.661 342.956H204.277C204.88 342.956 204.88 342.956 204.88 343.562V346.592H205.405C206.25 346.592 207.095 346.632 207.941 346.592C208.786 346.551 208.503 346.673 208.463 347.119C208.424 347.562 208.463 348.372 208.463 348.978V350.19C209.55 350.19 210.596 350.23 211.643 350.19C211.966 350.19 212.045 350.312 212.045 350.594C212.045 350.877 212.045 352.051 212.045 352.817C212.045 353.586 212.045 353.828 213.054 353.828H215.628V357.385H219.172C219.172 356.861 219.211 356.375 219.211 355.85V353.869H222.312C222.674 353.869 222.793 353.747 222.793 353.423C222.793 353.1 222.793 351.646 222.755 350.757C222.714 349.866 222.834 350.23 223.277 350.23C223.72 350.23 225.008 350.23 225.854 350.23H226.335C226.335 349.141 226.376 348.089 226.335 347.037C226.335 346.714 226.457 346.632 226.74 346.632H229.958V343.034H233.06C233.421 343.034 233.582 342.915 233.541 342.551V339.964C233.541 339.76 233.541 339.6 233.582 339.396H237.124V338.831C237.124 337.942 237.124 337.094 237.083 336.203C237.045 335.314 237.205 335.76 237.526 335.798H243.645C243.686 335.798 243.767 335.798 243.805 335.798C243.846 335.798 243.887 335.798 243.927 335.798C244.009 335.798 244.047 335.839 244.129 335.879C244.21 335.961 244.248 336.042 244.248 336.203C244.248 336.244 244.248 336.325 244.248 336.366C244.248 336.485 244.248 336.648 244.248 336.809C244.248 336.89 244.248 337.012 244.248 337.094C244.248 337.295 244.248 337.496 244.248 337.741C244.248 338.064 244.248 338.426 244.248 338.711C244.248 339.518 244.248 339.358 244.854 339.358H247.793V342.51C247.793 342.833 247.912 342.956 248.195 342.915H250.851C250.932 342.915 250.971 342.915 251.052 342.915C251.093 342.915 251.133 342.915 251.174 342.915C251.414 342.956 251.414 343.034 251.414 343.521V346.551H251.938C252.259 346.551 252.582 346.551 252.903 346.551C253.227 346.551 253.547 346.551 253.871 346.551C254.072 346.551 254.314 346.551 254.515 346.551C254.635 346.551 254.716 346.551 254.795 346.551C254.917 346.551 254.996 346.551 255.037 346.592C255.118 346.632 255.159 346.673 255.118 346.714V346.755C255.118 346.795 255.118 346.836 255.078 346.874C255.037 346.915 255.037 346.956 255.037 346.997C255.037 347.037 255.037 347.037 255.037 347.078C254.996 347.524 255.037 348.331 255.037 348.937V350.149C255.32 350.149 255.561 350.149 255.842 350.149C256.366 350.149 256.888 350.149 257.413 350.149C257.695 350.149 257.935 350.149 258.217 350.149C258.378 350.149 258.5 350.19 258.541 350.23C258.579 350.312 258.62 350.393 258.62 350.554C258.62 350.836 258.62 352.01 258.62 352.777C258.62 353.546 258.62 353.787 259.625 353.787H262.202V357.345H265.744C265.744 357.062 265.744 356.82 265.785 356.578C265.785 356.334 265.785 356.092 265.785 355.809V353.828H268.884C269.085 353.828 269.207 353.787 269.248 353.747C269.327 353.668 269.368 353.546 269.368 353.423C269.368 353.222 269.368 352.575 269.368 351.888C269.368 351.766 269.368 351.605 269.368 351.483C269.368 351.404 269.368 351.363 269.368 351.282C269.368 351.16 269.368 351.04 269.368 350.918C269.368 350.877 269.368 350.796 269.368 350.757C269.368 350.635 269.368 350.554 269.368 350.472C269.368 350.393 269.368 350.353 269.368 350.312C269.368 350.23 269.408 350.19 269.408 350.19C269.408 350.19 269.449 350.19 269.487 350.19C269.528 350.19 269.528 350.19 269.569 350.19C269.65 350.23 269.77 350.23 269.892 350.23C270.333 350.23 271.621 350.23 272.466 350.23H272.95C272.95 349.948 272.95 349.706 272.95 349.423C272.95 348.896 272.95 348.372 272.95 347.847C272.95 347.562 272.95 347.32 272.95 347.037C272.95 346.795 273.032 346.673 273.192 346.632C273.233 346.632 273.312 346.632 273.393 346.632H276.574V343.034H279.672C279.754 343.034 279.833 343.034 279.914 342.994C280.034 342.956 280.115 342.874 280.156 342.752C280.156 342.67 280.156 342.632 280.156 342.51V339.923C280.156 339.719 280.197 339.559 280.197 339.358H283.739V336.162C283.739 336.083 283.739 336.002 283.739 335.961C283.739 335.92 283.78 335.879 283.818 335.839C283.899 335.76 283.981 335.76 284.141 335.76H290.26C290.301 335.76 290.38 335.76 290.42 335.76C290.744 335.76 290.863 335.92 290.823 336.325C290.782 336.809 290.823 337.901 290.823 338.711C290.823 339.235 290.823 339.358 290.983 339.358C291.024 339.358 291.024 339.358 291.065 339.358C291.146 339.358 291.266 339.358 291.426 339.358H294.365C294.365 340.447 294.405 341.499 294.365 342.51C294.365 342.833 294.487 342.956 294.767 342.915H297.425C297.988 342.915 297.988 342.915 297.988 343.521V346.551H298.512C299.157 346.551 299.76 346.592 300.404 346.551C300.605 346.551 300.847 346.551 301.049 346.551C301.168 346.551 301.25 346.551 301.329 346.551C301.853 346.551 301.611 346.714 301.571 347.078C301.53 347.524 301.571 348.331 301.571 348.937V350.149C302.375 350.149 303.18 350.19 303.946 350.149C304.226 350.149 304.468 350.149 304.751 350.149C305.072 350.149 305.153 350.271 305.153 350.554V352.777C305.153 353.787 305.153 353.787 306.159 353.787H308.736V357.345H312.278C312.278 356.82 312.318 356.334 312.318 355.809V353.828H315.417C315.781 353.828 315.901 353.709 315.901 353.385C315.901 353.062 315.901 351.605 315.901 350.717C315.901 350.23 315.901 350.111 316.021 350.111C316.061 350.111 316.102 350.149 316.184 350.149C316.222 350.149 316.263 350.149 316.303 350.19C316.344 350.19 316.385 350.19 316.426 350.19C316.866 350.19 318.155 350.19 319 350.19H319.524C319.524 349.1 319.524 348.048 319.484 346.997C319.484 346.673 319.603 346.592 319.927 346.592H323.107V342.994H326.206C326.568 342.994 326.73 342.874 326.69 342.51V339.923C326.69 339.719 326.73 339.559 326.73 339.358H330.272V336.162C330.232 335.839 330.351 335.719 330.675 335.76H333.814V329.048H334.015V317.931L330.514 317.971ZM194.374 325.007V318.376H197.274C197.353 318.376 197.394 318.417 197.435 318.458C197.514 318.498 197.636 318.577 197.755 318.498C197.918 318.417 197.918 318.213 197.878 317.77C197.878 317.365 197.837 316.517 197.837 315.02C197.837 314.778 197.837 314.778 198.12 314.778C198.802 314.819 199.446 314.778 200.131 314.778C200.493 314.778 200.816 314.778 201.178 314.778H201.338L201.42 314.577C201.46 314.414 201.46 314.213 201.46 314.05V311.343C201.46 311.14 201.46 311.14 201.621 311.14H211.684C211.806 311.14 211.806 311.14 211.806 311.343V313.971C211.806 314.496 211.926 314.778 212.57 314.778H215.389V318.295H219.412V314.737H221.869C222.915 314.737 222.994 314.656 222.994 313.645V311.381C222.994 311.14 222.994 311.14 223.196 311.14H233.139C233.34 311.14 233.34 311.14 233.34 311.381V314.737H236.923V315.95C236.923 316.314 236.923 316.719 236.882 317.083C236.882 317.365 236.882 317.566 236.882 317.729C236.882 318.175 237.083 318.376 237.488 318.376H243.767C243.846 318.376 243.887 318.417 243.927 318.458C244.009 318.498 244.129 318.577 244.248 318.498C244.411 318.417 244.411 318.213 244.371 317.77C244.33 317.284 244.371 316.678 244.371 316.112C244.371 315.588 244.371 315.183 244.371 315.02C244.371 314.86 244.371 314.819 244.371 314.819C244.371 314.819 244.411 314.778 244.612 314.778C245.295 314.819 245.939 314.778 246.624 314.778C246.986 314.778 247.309 314.778 247.671 314.778H247.831L247.872 314.618C247.912 314.455 247.912 314.254 247.912 314.091V311.343C247.912 311.14 247.912 311.14 248.073 311.14H258.136C258.258 311.14 258.258 311.14 258.258 311.343V313.971C258.258 314.496 258.378 314.778 259.022 314.778H261.841V318.295H265.866V314.737H268.321C269.368 314.737 269.449 314.656 269.449 313.645V311.381C269.449 311.14 269.449 311.14 269.65 311.14H279.591C279.795 311.14 279.795 311.14 279.795 311.381V314.737H283.377V317.689C283.336 317.89 283.377 318.053 283.497 318.175C283.617 318.335 283.858 318.335 283.981 318.335H290.26C290.782 318.335 290.863 317.971 290.863 317.689V314.9C290.863 314.737 290.863 314.697 290.863 314.697C290.863 314.697 290.904 314.656 291.105 314.656C291.79 314.697 292.432 314.656 293.117 314.656C293.481 314.656 293.843 314.656 294.204 314.656H294.405V311.343C294.405 311.14 294.405 311.14 294.566 311.14H304.631C304.71 311.14 304.751 311.14 304.751 311.18C304.751 311.18 304.792 311.221 304.751 311.343V313.971C304.751 314.496 304.871 314.778 305.515 314.778H308.333V318.295H312.359V314.737H314.814C315.82 314.737 315.942 314.536 315.942 313.645V311.381C315.942 311.14 315.942 311.14 316.143 311.14H326.086C326.247 311.14 326.287 311.18 326.287 311.18C326.287 311.18 326.326 311.221 326.287 311.381V314.737H329.87V317.689C329.829 317.89 329.87 318.053 329.99 318.175C330.109 318.335 330.351 318.335 330.474 318.335L333.412 318.295V328.605H330.474C330.232 328.605 330.071 328.643 329.99 328.765C329.908 328.887 329.87 329.007 329.87 329.211V332.203H326.326V332.404C326.326 332.526 326.326 332.646 326.287 332.727C326.287 332.809 326.287 332.887 326.287 332.969V335.556C326.287 335.719 326.287 335.76 326.287 335.76C326.287 335.76 326.206 335.798 326.005 335.798H322.705V339.396H319.766C319.323 339.396 319.122 339.6 319.122 340.043C319.163 340.975 319.163 341.945 319.163 342.994H316.263C316.184 342.994 316.102 342.994 316.061 342.956C315.983 342.956 315.86 342.915 315.741 342.994C315.618 343.116 315.618 343.279 315.618 343.763V346.39C315.618 346.632 315.618 346.632 315.338 346.632H312.036V348.855C312.036 349.1 312.036 349.342 312.036 349.584C312.036 349.787 312.036 349.948 312.036 350.149L310.668 350.23H308.896V346.632H306.118C305.716 346.632 305.436 346.632 305.395 346.551C305.354 346.472 305.314 346.189 305.314 345.825V343.64C305.314 343.48 305.314 343.279 305.153 343.157C304.993 343.034 304.832 343.034 304.71 343.034H301.652V342.024C301.652 341.822 301.652 341.581 301.652 341.336C301.652 340.893 301.652 340.447 301.652 340.165C301.652 340.004 301.652 339.76 301.53 339.6C301.369 339.437 301.168 339.437 300.926 339.437H298.069V336.608C298.069 335.92 297.988 335.839 297.303 335.839H294.647C294.487 335.839 294.446 335.798 294.446 335.637C294.487 334.95 294.446 334.262 294.446 333.534C294.446 333.173 294.446 332.809 294.446 332.444V332.241H291.306C291.184 332.241 291.065 332.241 290.983 332.241C290.945 332.241 290.945 332.241 290.904 332.241C290.904 332.162 290.904 331.999 290.904 331.798C290.904 331.515 290.904 331.232 290.904 330.909C290.904 330.3 290.904 329.694 290.904 329.371C290.904 329.17 290.904 328.928 290.782 328.765C290.621 328.605 290.38 328.564 290.138 328.564H284.019C283.78 328.564 283.617 328.605 283.538 328.724C283.456 328.847 283.415 328.966 283.415 329.17V332.162H279.874V332.363C279.874 332.485 279.874 332.605 279.833 332.686C279.833 332.768 279.833 332.849 279.833 332.928V335.515C279.833 335.678 279.833 335.719 279.833 335.719C279.833 335.719 279.754 335.76 279.553 335.76H276.25V339.358H273.274C272.83 339.358 272.629 339.559 272.629 340.004C272.668 340.651 272.629 341.336 272.629 342.064C272.629 342.347 272.629 342.67 272.629 342.956H269.77C269.691 342.956 269.609 342.956 269.528 342.915C269.408 342.874 269.286 342.874 269.166 342.956C269.047 343.075 269.006 343.279 269.047 343.681C269.047 344.086 269.085 344.814 269.085 346.309C269.085 346.551 269.085 346.551 268.805 346.551H265.502V348.776C265.502 349.018 265.502 349.26 265.502 349.502C265.502 349.706 265.502 349.866 265.502 350.07L264.135 350.149H262.363V346.551H259.587C258.78 346.551 258.78 346.472 258.78 345.744V343.562C258.78 343.399 258.78 343.197 258.62 343.075C258.459 342.956 258.299 342.956 258.177 342.956H255.197V341.945C255.197 341.741 255.197 341.499 255.197 341.257C255.197 340.812 255.197 340.366 255.197 340.083C255.197 339.923 255.197 339.681 255.078 339.518C254.917 339.358 254.716 339.358 254.474 339.358H251.615V336.526C251.615 335.839 251.536 335.76 250.851 335.76H248.195C248.032 335.76 247.994 335.719 247.994 335.556V332.162H244.854C244.732 332.162 244.612 332.162 244.531 332.162C244.49 332.162 244.49 332.162 244.449 332.162C244.449 332.08 244.449 331.917 244.449 331.716C244.449 331.434 244.449 331.151 244.449 330.828C244.449 330.222 244.449 329.613 244.449 329.29C244.449 329.088 244.449 328.847 244.33 328.684C244.169 328.523 243.927 328.482 243.686 328.482H237.567C237.526 328.482 237.447 328.442 237.406 328.442C237.325 328.401 237.205 328.319 237.045 328.401C236.882 328.482 236.882 328.684 236.882 329.129C236.923 330.018 236.923 330.909 236.923 331.798V332.121H233.421L233.381 332.281C233.34 332.485 233.34 332.686 233.34 332.887V335.515C233.34 335.678 233.34 335.719 233.34 335.719C233.34 335.719 233.261 335.76 233.06 335.76H229.757V339.358H226.74C226.335 339.358 226.134 339.559 226.134 340.004C226.175 340.651 226.134 341.336 226.134 342.064C226.134 342.347 226.134 342.67 226.134 342.956H223.277C223.196 342.956 223.117 342.956 223.035 342.915C222.915 342.874 222.793 342.874 222.674 342.956C222.551 343.075 222.513 343.279 222.551 343.681C222.551 344.086 222.592 344.855 222.592 346.309C222.592 346.551 222.592 346.551 222.312 346.551H219.009V348.776C219.009 349.018 219.009 349.26 219.009 349.502C219.009 349.706 219.009 349.866 219.009 350.07L217.642 350.149H215.87V346.551H213.092C212.287 346.551 212.287 346.472 212.287 345.744V343.562C212.287 343.399 212.287 343.197 212.127 343.075C211.966 342.956 211.806 342.956 211.684 342.956H208.664V341.945C208.664 341.741 208.664 341.499 208.664 341.257C208.664 340.812 208.664 340.366 208.664 340.083C208.664 339.923 208.664 339.681 208.544 339.518C208.384 339.358 208.183 339.358 207.941 339.358H205.081V336.526C205.081 335.839 205.002 335.76 204.277 335.76H201.661C201.46 335.76 201.46 335.76 201.46 335.556V332.363H198.321C198.199 332.363 198.079 332.363 197.997 332.363C197.957 332.363 197.957 332.363 197.918 332.363C197.918 332.281 197.918 332.121 197.918 331.917V329.493C197.918 328.847 197.636 328.724 197.152 328.724H194.374V325.007Z" fill="#9B2529"/>
<path d="M209.229 323.066V323.914C209.229 324.683 208.585 325.33 207.818 325.33H205.927C205.163 325.33 204.518 324.683 204.518 323.914V323.066C204.518 322.863 204.559 322.702 204.641 322.539C204.439 322.662 204.157 322.743 203.874 322.743H201.982C201.218 322.743 200.615 322.134 200.574 321.409C200.574 321.368 200.574 321.368 200.574 321.327V320.479C200.574 319.952 200.857 319.509 201.259 319.265C201.46 319.145 201.702 319.064 201.982 319.064H203.874C204.641 319.064 205.285 319.71 205.285 320.479V321.327C205.285 321.528 205.244 321.691 205.163 321.852C205.364 321.732 205.646 321.651 205.927 321.651H207.818C208.585 321.651 209.229 322.297 209.229 323.066ZM254.474 321.651H252.582C252.34 321.651 252.099 321.732 251.897 321.852C251.938 321.691 251.979 321.528 251.979 321.368V320.518C251.979 319.751 251.335 319.104 250.568 319.104H248.676C248.315 319.104 247.994 319.224 247.752 319.469C247.469 319.71 247.268 320.115 247.268 320.518V321.368C247.268 321.409 247.268 321.409 247.268 321.45C247.309 322.216 247.912 322.781 248.676 322.781H250.568C250.81 322.781 251.052 322.702 251.253 322.58C251.212 322.743 251.174 322.903 251.174 323.066V323.914C251.174 324.683 251.816 325.33 252.582 325.33H254.474C255.238 325.33 255.882 324.683 255.882 323.914V323.066C255.882 322.297 255.238 321.651 254.474 321.651ZM301.41 321.651H299.518C299.236 321.651 298.994 321.732 298.752 321.852C298.833 321.691 298.874 321.528 298.874 321.327V320.479C298.874 319.71 298.23 319.064 297.466 319.064H295.574C294.968 319.064 294.446 319.469 294.245 319.993C294.204 320.156 294.163 320.316 294.163 320.479V321.327C294.163 321.368 294.163 321.368 294.163 321.409C294.204 322.175 294.808 322.743 295.574 322.743H297.466C297.746 322.743 297.988 322.662 298.23 322.539C298.148 322.702 298.11 322.863 298.11 323.066V323.914C298.11 324.683 298.752 325.33 299.518 325.33H301.41C302.174 325.33 302.818 324.683 302.818 323.914V323.066C302.818 322.297 302.174 321.651 301.41 321.651Z" fill="#FAE6DF"/>
<mask id="mask3_0_1" style="mask-type:luminance" maskUnits="userSpaceOnUse" x="347" y="75" width="104" height="104">
<path d="M347.129 75.0546H450.773V178.699H347.129V75.0546Z" fill="white"/>
</mask>
<g mask="url(#mask3_0_1)">
<path d="M376.658 178.699V173.785H366.811V163.941H356.985V154.094H352.053V144.248H347.139V109.506H352.053V99.6595H356.985V89.813H366.811V79.9664H376.658V75.0546H421.246V79.9664H431.093V89.813H440.937V99.6595H445.851V109.506H450.763V144.248H445.851V154.094H440.937V163.941H431.093V173.785H421.246V178.699H376.658Z" fill="white"/>
</g>
<path d="M434.928 99.741L428.481 92.4254L421.702 88.6926L418.654 82.5789H379.271L378.046 89.7722L369.445 92.4254L366.916 100.902H361.982L362.066 111.454H357.131V141.635L362.376 144.288L362.667 153.679L367.953 154.695L369.445 161.328L375.146 164.954L381.591 169.494L384.223 173.454H413.699L417.618 168.687L428.44 161.308L434.783 153.804L439.756 143.542L441.808 131.789V121.942L440.481 110.272L434.928 99.741Z" fill="#FBD502"/>
<path d="M448.151 112.119V141.635H443.239V151.482H438.327V161.328H428.481V151.482H433.393V141.635H438.327V112.119H433.393V102.272H428.481V92.4254H438.327V102.272H443.239V112.119H448.151ZM379.271 92.4254V87.5111H418.634V92.4254H428.481V82.5789H418.634V77.6671H379.271V82.5789H369.425V92.4254H379.271ZM364.51 151.482V141.635H359.598V112.119H364.51V102.272H369.425V92.4254H359.598V102.272H354.664V112.119H349.752V141.635H354.664V151.482H359.598V161.328H369.425V151.482H364.51ZM418.634 161.328V166.24H379.271V161.328H369.425V171.175H379.271V176.087H418.634V171.175H428.481V161.328H418.634Z" fill="black"/>
<path d="M389.115 122.171H384.183V102.499H394.029V122.171H389.115ZM413.722 122.171V102.499H403.876V122.171H413.722ZM379.271 131.809H374.356V141.635H384.183V131.809H379.271ZM418.634 131.809H413.722V141.635H423.569V131.809H418.634ZM403.876 141.635H384.183V151.482H413.722V141.635H403.876Z" fill="#F6474B"/>
<mask id="mask4_0_1" style="mask-type:luminance" maskUnits="userSpaceOnUse" x="23" y="392" width="84" height="99">
<path d="M23.0645 392.366H106.664V490.144H23.0645V392.366Z" fill="white"/>
</mask>
<g mask="url(#mask4_0_1)">
<path d="M59.316 490.144V475.691H52.0819V461.241H48.4535V454.005H33.965V446.788H23.1025V435.72H33.965V428.506H48.4535V421.269H52.0819V406.817H59.316V392.366H70.4127V406.817H77.6468V421.269H81.2752V428.506H95.7637V435.72H106.626V446.788H95.7637V454.005H84.9012V461.241H77.6468V475.691H70.4127V490.144H59.316Z" fill="white"/>
</g>
<path d="M101.078 437.637H93.8441V430.421H79.3532V423.187H75.7272V408.734H68.4932V394.284H61.2388V408.734H54.0022V423.187H50.3763V430.421H35.8879V437.637H25.0254V444.874H35.8879V452.09H50.3763V459.324H54.0022V473.777H61.2388V488.227H68.4932V473.777H75.7272V459.324H82.9816V452.09H93.8441V444.874H104.704V437.637H101.078Z" fill="black"/>
<path d="M86.6074 437.637H79.353V430.421H72.119V423.187H68.4931V408.734H61.2387V423.187H57.6306V430.421H50.3762V437.637H39.5137V444.874H50.3762V452.09H57.6306V459.324H61.2387V473.777H68.4931V459.324H75.7271V452.09H79.353V444.874H90.2155V437.637H86.6074Z" fill="#FBD502"/>
<mask id="mask5_0_1" style="mask-type:luminance" maskUnits="userSpaceOnUse" x="361" y="83" width="85" height="86">
<path d="M361.126 83.437H445.169V168.178H361.126V83.437Z" fill="white"/>
</mask>
<g mask="url(#mask5_0_1)">
<path d="M444.721 125.321C444.721 102.236 426.016 83.5211 402.947 83.5211C396.914 83.5211 391.19 84.8095 386.014 87.1088L386.019 87.0935C383.22 88.2164 376.575 90.8773 376.458 90.9537C376.458 90.9537 361.167 111.586 361.167 125.321C361.167 135.124 364.541 144.141 370.191 151.27C377.843 160.928 408.979 167.941 408.979 167.941L412.699 166.423L416.758 164.771C418.061 164.315 419.337 163.796 420.577 163.218L420.809 163.123L420.796 163.118C434.938 156.419 444.721 142.015 444.721 125.321Z" fill="#00BFC3"/>
</g>
<mask id="mask6_0_1" style="mask-type:luminance" maskUnits="userSpaceOnUse" x="360" y="83" width="86" height="86">
<path d="M360.474 83.1086H445.169V168.83H360.474V83.1086Z" fill="white"/>
</mask>
<g mask="url(#mask6_0_1)">
<path d="M408.978 168.353C408.948 168.353 408.917 168.348 408.889 168.343C407.611 168.056 377.521 161.188 369.867 151.525C363.906 144.003 360.754 134.944 360.754 125.321C360.754 111.607 375.497 91.5546 376.123 90.7093C376.154 90.6685 376.187 90.6354 376.23 90.61C376.314 90.5514 376.78 90.3528 384.883 87.1037L385.863 86.7116C385.893 86.6989 385.922 86.6912 385.95 86.6861C391.332 84.313 397.049 83.1086 402.946 83.1086C426.209 83.1086 445.136 102.045 445.136 125.321C445.136 141.523 435.689 156.48 421.058 163.449C421.03 163.472 420.997 163.493 420.961 163.505L420.732 163.6C419.494 164.178 418.198 164.705 416.892 165.16L409.134 168.323C409.083 168.343 409.032 168.353 408.978 168.353ZM376.724 91.2847C375.662 92.7438 361.579 112.322 361.579 125.321C361.579 134.755 364.67 143.639 370.514 151.013C377.745 160.139 406.778 167.007 408.943 167.508L416.602 164.389C417.9 163.933 419.171 163.416 420.403 162.843L420.561 162.777C420.579 162.764 420.597 162.754 420.617 162.744C435.009 155.928 444.308 141.238 444.308 125.321C444.308 102.501 425.753 83.9336 402.946 83.9336C397.125 83.9336 391.485 85.1303 386.181 87.4882C386.143 87.5035 386.105 87.5137 386.067 87.5188L385.188 87.8702C382.443 88.9702 377.45 90.9741 376.724 91.2847Z" fill="black"/>
</g>
<path d="M410.4 94.8317C411.93 93.5789 413.735 91.5139 412.365 89.8817C412.057 89.515 411.749 89.1356 411.668 88.6518C411.635 88.443 411.612 88.1553 411.752 87.9771C411.976 87.6919 412.503 87.9593 412.684 87.6282C412.847 87.3303 412.6 86.9153 412.396 86.709C412.095 86.4035 411.627 85.7287 412.172 85.4613C412.623 85.2398 412.987 85.2984 413.109 84.7662C410.033 84.043 406.244 83.5211 402.947 83.5211C396.914 83.5211 391.19 84.8095 386.019 87.0935C383.22 88.2139 376.575 90.8773 376.457 90.9537C376.457 90.9537 375.299 92.5197 373.626 95.0634C378.105 93.3854 383.335 93.0213 387.366 93.6273C388.924 93.8616 391.285 94.4523 392.293 95.7968C395.621 94.5924 399.204 93.9278 402.947 93.9278C405.516 93.9278 408.009 94.2486 410.4 94.8317Z" fill="black"/>
<path d="M438.259 147.229C438.249 147.245 437.928 147.117 437.884 147.117C437.581 147.097 437.238 147.377 436.978 147.502C436.639 147.675 436.339 147.392 436.377 147.033C436.586 145.012 435.32 146.763 434.539 146.297C433.754 145.831 434.236 144.25 432.662 145.032C432.402 145.159 432.028 144.999 432.046 144.673C432.188 142.073 430.582 141.831 428.98 142.45C425.408 148.006 420.195 152.218 414.201 154.606C411.981 158.718 409.906 162.922 407.561 166.961C408.23 166.879 408.895 166.785 409.557 166.673C409.557 166.673 409.804 166.642 409.791 166.635C421.507 164.575 431.967 157.549 438.259 147.229Z" fill="black"/>
<path d="M394.019 87.0961C370.947 87.0961 352.239 105.811 352.239 128.896C352.239 151.981 370.947 170.696 394.019 170.696C417.088 170.696 435.796 151.981 435.796 128.896C435.796 105.811 417.088 87.0961 394.019 87.0961Z" fill="#FFD33B"/>
<mask id="mask7_0_1" style="mask-type:luminance" maskUnits="userSpaceOnUse" x="351" y="86" width="86" height="86">
<path d="M351.791 86.0444H436.741V171.109H351.791V86.0444Z" fill="white"/>
</mask>
<g mask="url(#mask7_0_1)">
<path d="M394.018 171.109C370.753 171.109 351.826 152.172 351.826 128.896C351.826 105.62 370.753 86.6835 394.018 86.6835C417.281 86.6835 436.208 105.62 436.208 128.896C436.208 152.172 417.281 171.109 394.018 171.109ZM394.018 87.5085C371.209 87.5085 352.654 106.076 352.654 128.896C352.654 151.718 371.209 170.284 394.018 170.284C416.825 170.284 435.38 151.718 435.38 128.896C435.383 106.076 416.825 87.5085 394.018 87.5085Z" fill="black"/>
</g>
<path d="M386.393 117.074C386.393 122.724 384.02 127.302 381.089 127.302C378.161 127.302 375.785 122.724 375.785 117.074C375.785 111.423 378.161 106.843 381.089 106.843C384.02 106.843 386.393 111.423 386.393 117.074Z" fill="black"/>
<path d="M381.753 113.086C381.753 114.828 381.02 116.241 380.116 116.241C379.215 116.241 378.481 114.828 378.481 113.086C378.481 111.342 379.215 109.931 380.116 109.931C381.02 109.931 381.753 111.344 381.753 113.086Z" fill="white"/>
<path d="M410.547 117.074C410.547 122.724 408.174 127.302 405.243 127.302C402.313 127.302 399.939 122.724 399.939 117.074C399.939 111.423 402.313 106.845 405.243 106.845C408.174 106.845 410.547 111.423 410.547 117.074Z" fill="black"/>
<path d="M405.691 113.086C405.691 114.828 404.958 116.241 404.056 116.241C403.152 116.241 402.419 114.828 402.419 113.086C402.419 111.342 403.152 109.931 404.056 109.931C404.958 109.931 405.691 111.344 405.691 113.086Z" fill="white"/>
<path d="M366.57 104.867C366.57 104.867 366.652 104.724 366.677 104.48C366.708 104.217 366.825 103.805 366.96 103.359C367.805 100.586 370.662 98.2336 373.659 98.6384C373.947 98.669 374.115 98.6945 374.115 98.6945C374.859 98.8116 375.37 99.5118 375.248 100.258C375.172 100.744 374.846 101.129 374.423 101.307L374.196 101.401C374.196 101.401 374.084 101.447 373.896 101.513C373.702 101.567 373.448 101.676 373.155 101.786C371.808 102.29 370.889 103.395 370.077 104.531C369.448 105.414 368.607 106.99 367.278 106.119C366.858 105.85 366.57 105.389 366.57 104.923V104.867Z" fill="white"/>
<path d="M368.228 106.787C367.917 106.787 367.594 106.68 367.268 106.466C366.634 106.056 366.593 105.333 366.588 104.991C366.522 104.869 366.456 104.678 366.481 104.436L366.502 104.238C366.524 103.978 366.558 103.622 366.675 103.237C367.632 100.097 370.744 97.8185 373.769 98.231C374.061 98.259 374.214 98.287 374.214 98.287C374.673 98.3609 375.083 98.6104 375.358 98.9924C375.635 99.3768 375.747 99.8505 375.668 100.324C375.574 100.925 375.161 101.447 374.591 101.686L374.357 101.783C374.357 101.783 374.235 101.834 374.033 101.905C373.886 101.946 373.741 102.002 373.578 102.066L373.3 102.173C372.131 102.611 371.301 103.53 370.415 104.77C370.316 104.91 370.217 105.068 370.115 105.231C369.677 105.923 369.132 106.787 368.228 106.787ZM373.033 99.0076C370.637 99.0076 368.241 100.93 367.464 103.479C367.372 103.779 367.344 104.075 367.324 104.312L367.253 104.531L367.316 104.65V104.867C367.316 105.394 367.451 105.633 367.67 105.773C367.861 105.898 368.055 105.962 368.202 105.962C368.651 105.962 369.055 105.338 369.404 104.788C369.514 104.615 369.628 104.444 369.735 104.291C370.578 103.11 371.561 101.941 373.01 101.399L373.275 101.297C373.473 101.22 373.649 101.154 373.792 101.116C373.932 101.065 374.033 101.022 374.041 101.019L374.275 100.922C374.581 100.795 374.805 100.515 374.856 100.192C374.897 99.9345 374.838 99.6824 374.69 99.4762C374.543 99.275 374.326 99.14 374.079 99.1018C374.064 99.0993 373.929 99.0764 373.672 99.0509C373.448 99.0204 373.239 99.0076 373.033 99.0076Z" fill="black"/>
<path d="M393.828 159.976C379.752 159.976 368.302 148.518 368.302 134.434C368.302 133.978 368.671 133.609 369.127 133.609C369.585 133.609 369.954 133.978 369.954 134.434C369.954 147.606 380.664 158.324 393.828 158.324C406.993 158.324 417.705 147.606 417.705 134.437C417.705 133.978 418.074 133.609 418.53 133.609C418.986 133.609 419.355 133.978 419.355 134.437C419.355 148.518 407.904 159.976 393.828 159.976Z" fill="black"/>
<path d="M369.126 135.198C365.921 135.198 365.098 132.891 365.065 132.792C364.917 132.362 365.149 131.891 365.579 131.745C366.007 131.595 366.473 131.824 366.623 132.25C366.677 132.392 367.181 133.546 369.129 133.546C369.689 133.546 370.509 133.365 371.879 131.952C372.197 131.623 372.719 131.616 373.045 131.934C373.374 132.25 373.381 132.774 373.063 133.1C371.66 134.551 370.445 135.198 369.126 135.198Z" fill="black"/>
<path d="M418.909 135.198C417.592 135.198 416.378 134.551 414.972 133.103C414.654 132.774 414.664 132.25 414.99 131.934C415.318 131.616 415.838 131.623 416.159 131.952C417.521 133.357 418.313 133.546 418.909 133.546C420.864 133.546 421.363 132.382 421.412 132.247C421.572 131.827 422.046 131.605 422.466 131.756C422.891 131.908 423.115 132.367 422.973 132.792C422.937 132.889 422.117 135.198 418.909 135.198Z" fill="black"/>
<mask id="mask8_0_1" style="mask-type:luminance" maskUnits="userSpaceOnUse" x="361" y="83" width="85" height="86">
<path d="M361.126 83.437H445.169V168.178H361.126V83.437Z" fill="white"/>
</mask>
<g mask="url(#mask8_0_1)">
<path d="M444.721 125.321C444.721 102.236 426.016 83.5211 402.947 83.5211C396.914 83.5211 391.19 84.8095 386.014 87.1088L386.019 87.0935C383.22 88.2164 376.575 90.8773 376.458 90.9537C376.458 90.9537 361.167 111.586 361.167 125.321C361.167 135.124 364.541 144.141 370.191 151.27C377.843 160.928 408.979 167.941 408.979 167.941L412.699 166.423L416.758 164.771C418.061 164.315 419.337 163.796 420.577 163.218L420.809 163.123L420.796 163.118C434.938 156.419 444.721 142.015 444.721 125.321Z" fill="#00BFC3"/>
</g>
<mask id="mask9_0_1" style="mask-type:luminance" maskUnits="userSpaceOnUse" x="360" y="83" width="86" height="86">
<path d="M360.474 83.1086H445.169V168.83H360.474V83.1086Z" fill="white"/>
</mask>
<g mask="url(#mask9_0_1)">
<path d="M408.978 168.353C408.948 168.353 408.917 168.348 408.889 168.343C407.611 168.056 377.521 161.188 369.867 151.525C363.906 144.003 360.754 134.944 360.754 125.321C360.754 111.607 375.497 91.5546 376.123 90.7093C376.154 90.6685 376.187 90.6354 376.23 90.61C376.314 90.5514 376.78 90.3528 384.883 87.1037L385.863 86.7116C385.893 86.6989 385.922 86.6912 385.95 86.6861C391.332 84.313 397.049 83.1086 402.946 83.1086C426.209 83.1086 445.136 102.045 445.136 125.321C445.136 141.523 435.689 156.48 421.058 163.449C421.03 163.472 420.997 163.493 420.961 163.505L420.732 163.6C419.494 164.178 418.198 164.705 416.892 165.16L409.134 168.323C409.083 168.343 409.032 168.353 408.978 168.353ZM376.724 91.2847C375.662 92.7438 361.579 112.322 361.579 125.321C361.579 134.755 364.67 143.639 370.514 151.013C377.745 160.139 406.778 167.007 408.943 167.508L416.602 164.389C417.9 163.933 419.171 163.416 420.403 162.843L420.561 162.777C420.579 162.764 420.597 162.754 420.617 162.744C435.009 155.928 444.308 141.238 444.308 125.321C444.308 102.501 425.753 83.9336 402.946 83.9336C397.125 83.9336 391.485 85.1303 386.181 87.4882C386.143 87.5035 386.105 87.5137 386.067 87.5188L385.188 87.8702C382.443 88.9702 377.45 90.9741 376.724 91.2847Z" fill="black"/>
</g>
<path d="M410.4 94.8317C411.93 93.5789 413.735 91.5139 412.365 89.8817C412.057 89.515 411.749 89.1356 411.668 88.6518C411.635 88.443 411.612 88.1553 411.752 87.9771C411.976 87.6919 412.503 87.9593 412.684 87.6282C412.847 87.3303 412.6 86.9153 412.396 86.709C412.095 86.4035 411.627 85.7287 412.172 85.4613C412.623 85.2398 412.987 85.2984 413.109 84.7662C410.033 84.043 406.244 83.5211 402.947 83.5211C396.914 83.5211 391.19 84.8095 386.019 87.0935C383.22 88.2139 376.575 90.8773 376.457 90.9537C376.457 90.9537 375.299 92.5197 373.626 95.0634C378.105 93.3854 383.335 93.0213 387.366 93.6273C388.924 93.8616 391.285 94.4523 392.293 95.7968C395.621 94.5924 399.204 93.9278 402.947 93.9278C405.516 93.9278 408.009 94.2486 410.4 94.8317Z" fill="black"/>
<path d="M438.259 147.229C438.249 147.245 437.928 147.117 437.884 147.117C437.581 147.097 437.238 147.377 436.978 147.502C436.639 147.675 436.339 147.392 436.377 147.033C436.586 145.012 435.32 146.763 434.539 146.297C433.754 145.831 434.236 144.25 432.662 145.032C432.402 145.159 432.028 144.999 432.046 144.673C432.188 142.073 430.582 141.831 428.98 142.45C425.408 148.006 420.195 152.218 414.201 154.606C411.981 158.718 409.906 162.922 407.561 166.961C408.23 166.879 408.895 166.785 409.557 166.673C409.557 166.673 409.804 166.642 409.791 166.635C421.507 164.575 431.967 157.549 438.259 147.229Z" fill="black"/>
<path d="M394.019 87.0961C370.947 87.0961 352.239 105.811 352.239 128.896C352.239 151.981 370.947 170.696 394.019 170.696C417.088 170.696 435.796 151.981 435.796 128.896C435.796 105.811 417.088 87.0961 394.019 87.0961Z" fill="#FFD33B"/>
<mask id="mask10_0_1" style="mask-type:luminance" maskUnits="userSpaceOnUse" x="351" y="86" width="86" height="86">
<path d="M351.791 86.0444H436.741V171.109H351.791V86.0444Z" fill="white"/>
</mask>
<g mask="url(#mask10_0_1)">
<path d="M394.018 171.109C370.753 171.109 351.826 152.172 351.826 128.896C351.826 105.62 370.753 86.6835 394.018 86.6835C417.281 86.6835 436.208 105.62 436.208 128.896C436.208 152.172 417.281 171.109 394.018 171.109ZM394.018 87.5085C371.209 87.5085 352.654 106.076 352.654 128.896C352.654 151.718 371.209 170.284 394.018 170.284C416.825 170.284 435.38 151.718 435.38 128.896C435.383 106.076 416.825 87.5085 394.018 87.5085Z" fill="black"/>
</g>
<path d="M386.393 117.074C386.393 122.724 384.02 127.302 381.089 127.302C378.161 127.302 375.785 122.724 375.785 117.074C375.785 111.423 378.161 106.843 381.089 106.843C384.02 106.843 386.393 111.423 386.393 117.074Z" fill="black"/>
<path d="M381.753 113.086C381.753 114.828 381.02 116.241 380.116 116.241C379.215 116.241 378.481 114.828 378.481 113.086C378.481 111.342 379.215 109.931 380.116 109.931C381.02 109.931 381.753 111.344 381.753 113.086Z" fill="white"/>
<path d="M410.547 117.074C410.547 122.724 408.174 127.302 405.243 127.302C402.313 127.302 399.939 122.724 399.939 117.074C399.939 111.423 402.313 106.845 405.243 106.845C408.174 106.845 410.547 111.423 410.547 117.074Z" fill="black"/>
<path d="M405.691 113.086C405.691 114.828 404.958 116.241 404.056 116.241C403.152 116.241 402.419 114.828 402.419 113.086C402.419 111.342 403.152 109.931 404.056 109.931C404.958 109.931 405.691 111.344 405.691 113.086Z" fill="white"/>
<path d="M366.57 104.867C366.57 104.867 366.652 104.724 366.677 104.48C366.708 104.217 366.825 103.805 366.96 103.359C367.805 100.586 370.662 98.2336 373.659 98.6384C373.947 98.669 374.115 98.6945 374.115 98.6945C374.859 98.8116 375.37 99.5118 375.248 100.258C375.172 100.744 374.846 101.129 374.423 101.307L374.196 101.401C374.196 101.401 374.084 101.447 373.896 101.513C373.702 101.567 373.448 101.676 373.155 101.786C371.808 102.29 370.889 103.395 370.077 104.531C369.448 105.414 368.607 106.99 367.278 106.119C366.858 105.85 366.57 105.389 366.57 104.923V104.867Z" fill="white"/>
<path d="M368.228 106.787C367.917 106.787 367.594 106.68 367.268 106.466C366.634 106.056 366.593 105.333 366.588 104.991C366.522 104.869 366.456 104.678 366.481 104.436L366.502 104.238C366.524 103.978 366.558 103.622 366.675 103.237C367.632 100.097 370.744 97.8185 373.769 98.231C374.061 98.259 374.214 98.287 374.214 98.287C374.673 98.3609 375.083 98.6104 375.358 98.9924C375.635 99.3768 375.747 99.8505 375.668 100.324C375.574 100.925 375.161 101.447 374.591 101.686L374.357 101.783C374.357 101.783 374.235 101.834 374.033 101.905C373.886 101.946 373.741 102.002 373.578 102.066L373.3 102.173C372.131 102.611 371.301 103.53 370.415 104.77C370.316 104.91 370.217 105.068 370.115 105.231C369.677 105.923 369.132 106.787 368.228 106.787ZM373.033 99.0076C370.637 99.0076 368.241 100.93 367.464 103.479C367.372 103.779 367.344 104.075 367.324 104.312L367.253 104.531L367.316 104.65V104.867C367.316 105.394 367.451 105.633 367.67 105.773C367.861 105.898 368.055 105.962 368.202 105.962C368.651 105.962 369.055 105.338 369.404 104.788C369.514 104.615 369.628 104.444 369.735 104.291C370.578 103.11 371.561 101.941 373.01 101.399L373.275 101.297C373.473 101.22 373.649 101.154 373.792 101.116C373.932 101.065 374.033 101.022 374.041 101.019L374.275 100.922C374.581 100.795 374.805 100.515 374.856 100.192C374.897 99.9345 374.838 99.6824 374.69 99.4762C374.543 99.275 374.326 99.14 374.079 99.1018C374.064 99.0993 373.929 99.0764 373.672 99.0509C373.448 99.0204 373.239 99.0076 373.033 99.0076Z" fill="black"/>
<path d="M393.828 159.976C379.752 159.976 368.302 148.518 368.302 134.434C368.302 133.978 368.671 133.609 369.127 133.609C369.585 133.609 369.954 133.978 369.954 134.434C369.954 147.606 380.664 158.324 393.828 158.324C406.993 158.324 417.705 147.606 417.705 134.437C417.705 133.978 418.074 133.609 418.53 133.609C418.986 133.609 419.355 133.978 419.355 134.437C419.355 148.518 407.904 159.976 393.828 159.976Z" fill="black"/>
<path d="M369.126 135.198C365.921 135.198 365.098 132.891 365.065 132.792C364.917 132.362 365.149 131.891 365.579 131.745C366.007 131.595 366.473 131.824 366.623 132.25C366.677 132.392 367.181 133.546 369.129 133.546C369.689 133.546 370.509 133.365 371.879 131.952C372.197 131.623 372.719 131.616 373.045 131.934C373.374 132.25 373.381 132.774 373.063 133.1C371.66 134.551 370.445 135.198 369.126 135.198Z" fill="black"/>
<path d="M418.909 135.198C417.592 135.198 416.378 134.551 414.972 133.103C414.654 132.774 414.664 132.25 414.99 131.934C415.318 131.616 415.838 131.623 416.159 131.952C417.521 133.357 418.313 133.546 418.909 133.546C420.864 133.546 421.363 132.382 421.412 132.247C421.572 131.827 422.046 131.605 422.466 131.756C422.891 131.908 423.115 132.367 422.973 132.792C422.937 132.889 422.117 135.198 418.909 135.198Z" fill="black"/>
<path d="M144.389 198.3C146.556 198.3 148.473 196.638 148.473 194.369C148.473 190.236 144.188 191.194 144.188 188.823C144.188 187.563 145.901 186.605 147.012 186.053C147.564 185.75 147.765 185.498 147.765 185.093C147.765 184.589 147.312 184.186 146.658 184.186C143.281 184.186 139.701 189.177 139.701 193.21C139.701 196.235 141.919 198.3 144.389 198.3ZM154.673 198.3C156.84 198.3 158.755 196.638 158.755 194.369C158.755 190.236 154.47 191.194 154.47 188.823C154.47 187.563 156.186 186.605 157.294 186.053C157.849 185.75 158.05 185.498 158.05 185.093C158.05 184.589 157.597 184.186 156.942 184.186C153.563 184.186 149.986 189.177 149.986 193.21C149.986 196.235 152.203 198.3 154.673 198.3Z" fill="black" fill-opacity="0.8902"/>
<path d="M173.476 220.28C184.213 220.28 186.53 219.071 186.53 214.131C186.53 212.063 185.069 210.4 183.304 210.4C181.44 210.4 180.483 211.508 179.475 212.667C178.415 213.879 177.356 215.088 175.189 215.088C171.762 215.088 170.552 212.114 170.552 206.769C170.552 203.24 170.904 203.039 172.77 203.039C176.852 203.039 177.155 205.458 179.223 205.458C181.137 205.458 181.54 203.24 181.54 200.821C181.54 197.997 180.834 195.78 178.667 195.78C176.198 195.78 175.441 199.159 172.971 199.159C170.652 199.159 170.501 198.705 170.501 192.857C170.501 189.832 171.609 189.027 173.425 189.027C175.24 189.027 176.297 189.933 177.458 190.84C178.718 191.899 180.078 193.009 182.65 193.009C184.262 193.009 186.077 192.049 186.077 189.681C186.077 185.9 182.5 184.186 174.079 184.186C164.352 184.186 161.126 185.801 161.126 189.126C161.126 190.537 161.628 191.446 162.183 192.505C163.092 194.168 164.199 196.284 164.199 201.376V205.257C164.199 208.735 163.191 210.803 162.335 212.618C161.679 213.978 161.126 215.188 161.126 216.751C161.126 219.221 163.596 220.28 173.476 220.28Z" fill="black" fill-opacity="0.8902"/>
<path d="M198.73 220.28C205.435 220.28 209.165 217.91 209.165 213.072C209.165 208.786 205.384 207.072 201.855 205.914C198.679 204.906 195.654 204.198 195.654 201.527C195.654 200.116 196.816 199.309 197.923 199.309C199.084 199.309 199.79 200.116 200.042 201.527C200.294 203.393 201.05 204.45 203.316 204.45C205.384 204.45 207.602 203.24 207.602 200.872C207.602 198.553 205.234 195.882 199.033 195.882C194.394 195.882 189.859 197.697 189.859 202.385C189.859 206.769 193.437 208.384 196.714 209.441C199.637 210.35 202.31 210.803 202.31 213.525C202.31 215.692 201.098 216.499 199.838 216.499C198.226 216.499 197.521 215.44 196.816 213.273C196.21 211.457 195.051 210.35 192.882 210.35C190.412 210.35 188.599 211.862 188.599 214.584C188.599 218.162 192.782 220.28 198.73 220.28Z" fill="black" fill-opacity="0.8902"/>
<path d="M223.633 215.137C219.902 215.137 218.792 212.114 218.792 208.936C218.792 204.702 220.758 200.065 224.641 200.065C225.448 200.065 226.505 200.368 226.505 201.476C226.505 202.736 225.145 203.141 225.145 204.855C225.145 206.466 226.406 207.123 228.27 207.123C231.193 207.123 232.705 205.509 232.705 202.736C232.705 199.057 229.983 195.882 224.692 195.882C216.676 195.882 211.283 203.09 211.283 209.996C211.283 216.601 216.172 220.28 222.018 220.28C228.573 220.28 232.657 215.641 232.657 212.769C232.657 211.559 231.901 211.055 231.144 211.055C228.926 211.055 228.017 215.137 223.633 215.137Z" fill="black" fill-opacity="0.8902"/>
<path d="M244.45 220.28C247.803 220.28 249.316 218.516 250.398 217.255C251.004 216.575 251.457 216.046 252.012 216.046C252.414 216.046 252.819 216.349 252.819 217.405C252.819 218.867 252.819 220.28 255.187 220.28C257.708 220.28 260.883 218.666 260.883 216.145C260.883 215.063 260.532 214.632 260.079 214.105C259.322 213.222 258.363 212.089 258.363 207.424C258.363 202.133 258.867 200.646 259.221 199.612C259.422 199.031 259.575 198.603 259.575 197.745C259.575 196.386 258.413 195.882 257.657 195.882C256.119 195.882 255.567 196.587 255.063 197.193C254.658 197.697 254.281 198.15 253.474 198.15C252.819 198.15 252.315 197.771 251.735 197.318C250.879 196.689 249.82 195.882 247.778 195.882C240.719 195.882 235.326 202.889 235.326 209.845C235.326 215.944 239.209 220.28 244.45 220.28ZM246.667 214.533C243.996 214.533 242.937 211.658 242.937 208.585C242.937 204.35 245.106 200.167 248.786 200.167C251.205 200.167 252.819 201.932 252.819 205.359C252.819 210.35 249.944 214.533 246.667 214.533Z" fill="black" fill-opacity="0.8902"/>
<path d="M267.537 229.253C270.361 229.253 273.486 227.69 273.486 225.019C273.486 223.657 272.78 223.002 272.075 222.297C271.469 221.691 270.865 221.136 270.865 219.575C270.865 219.02 271.118 218.666 271.571 218.666C271.973 218.666 272.276 218.867 272.681 219.119C273.437 219.623 274.443 220.28 276.511 220.28C282.66 220.28 288.356 213.525 288.356 206.418C288.356 200.167 284.475 195.882 279.737 195.882C276.057 195.882 274.494 197.646 273.386 198.907C272.729 199.561 272.276 200.116 271.673 200.116C271.268 200.116 270.865 199.813 270.865 198.754C270.865 197.292 270.865 195.882 268.495 195.882C266.025 195.882 262.799 197.445 262.799 200.014C262.799 201.022 263.303 201.679 263.858 202.334C264.563 203.192 265.371 203.946 265.371 210.5V214.986C265.371 217.153 265.371 219.524 263.909 222.9C263.456 223.909 263.102 224.866 263.102 225.823C263.102 228.194 265.22 229.253 267.537 229.253ZM274.899 215.995C272.477 215.995 270.865 214.23 270.865 210.902C270.865 205.812 273.738 201.628 277.015 201.628C279.686 201.628 280.745 204.501 280.745 207.676C280.745 211.811 278.578 215.995 274.899 215.995Z" fill="black" fill-opacity="0.8902"/>
<path d="M301.765 220.28C307.866 220.28 312.149 215.743 312.149 212.567C312.149 211.61 311.393 211.055 310.687 211.055C308.419 211.055 308.016 215.137 302.572 215.137C300.658 215.137 299.145 214.23 299.244 212.415C299.346 210.854 301.363 210.449 303.782 209.945C307.512 209.14 312.251 208.18 312.2 202.688C312.149 199.057 309.025 195.882 304.034 195.882C296.171 195.882 290.775 203.09 290.775 209.996C290.775 216.601 295.565 220.28 301.765 220.28ZM300.658 207.375C299.446 207.375 298.893 206.82 298.893 205.56C298.893 202.838 301.261 200.065 303.983 200.065C305.496 200.065 306.555 200.62 306.555 202.082C306.555 204.702 303.026 207.375 300.658 207.375Z" fill="black" fill-opacity="0.8902"/>
<path d="M333.623 220.28C336.498 220.28 339.571 218.768 339.571 216.046C339.571 215.037 339.169 214.332 338.818 213.675C337.305 210.854 337.305 207.727 337.305 205.761V202.688C337.305 200.595 338.565 200.467 339.823 200.368C341.035 200.292 342.245 200.241 342.245 198.201C342.245 196.51 340.933 196.284 339.673 196.284C337.152 196.284 337.557 195.932 337.557 191.899C337.557 189.327 337.455 188.019 335.793 188.019C333.875 188.019 333.524 189.882 332.011 192.857C329.793 197.193 327.423 196.587 327.423 198.402C327.423 200.218 328.632 200.368 329.793 200.467C330.802 200.62 331.81 200.719 331.81 202.082V205.761C331.81 211.055 330.853 212.667 330.096 213.978C329.592 214.836 329.187 215.692 329.187 216.751C329.187 219.221 331.255 220.28 333.623 220.28Z" fill="black" fill-opacity="0.8902"/>
<path d="M368.003 213.627C366.542 211.106 366.34 210.35 366.34 208.18C366.34 207.475 366.491 204.552 366.491 203.897C366.491 198.604 364.474 195.882 360.795 195.882C358.679 195.882 357.115 196.587 354.846 198.754C353.586 199.966 353.082 200.266 352.527 200.266C352.124 200.266 351.722 200.014 351.722 198.453C351.722 196.284 351.722 193.916 353.184 190.537C353.637 189.531 353.991 188.571 353.991 187.614C353.991 185.246 351.872 184.186 349.553 184.186C346.731 184.186 343.604 185.75 343.604 188.421C343.604 189.579 344.16 190.537 344.562 191.245C346.227 194.219 346.227 196.587 346.227 198.453V205.761C346.227 211.055 345.27 212.667 344.514 213.978C344.009 214.836 343.604 215.692 343.604 216.751C343.604 219.221 345.672 220.28 348.04 220.28C350.915 220.28 353.991 218.768 353.991 216.046C353.991 215.037 353.586 214.332 353.235 213.675C351.722 210.854 351.722 208.483 351.722 207.475C351.722 204.804 353.586 201.932 357.418 201.932C359.786 201.932 360.996 203.696 360.996 207.88C360.996 210.097 360.392 212.315 359.333 213.978C358.727 214.885 358.376 215.944 358.376 216.853C358.376 218.969 360.089 220.28 362.811 220.28C366.139 220.28 368.759 218.414 368.759 216.046C368.759 215.238 368.558 214.584 368.003 213.627Z" fill="black" fill-opacity="0.8902"/>
<path d="M381.866 220.28C387.967 220.28 392.25 215.743 392.25 212.567C392.25 211.61 391.493 211.055 390.788 211.055C388.519 211.055 388.117 215.137 382.673 215.137C380.758 215.137 379.246 214.23 379.345 212.415C379.447 210.854 381.463 210.449 383.882 209.945C387.613 209.14 392.351 208.18 392.301 202.688C392.25 199.057 389.125 195.882 384.135 195.882C376.272 195.882 370.876 203.09 370.876 209.996C370.876 216.601 375.666 220.28 381.866 220.28ZM380.758 207.375C379.546 207.375 378.994 206.82 378.994 205.56C378.994 202.838 381.362 200.065 384.084 200.065C385.596 200.065 386.655 200.62 386.655 202.082C386.655 204.702 383.126 207.375 380.758 207.375Z" fill="black" fill-opacity="0.8902"/>
<path d="M142.16 196.073C144.327 196.073 146.245 194.41 146.245 192.141C146.245 188.008 141.959 188.966 141.959 186.595C141.959 185.335 143.673 184.377 144.783 183.825C145.336 183.522 145.537 183.27 145.537 182.865C145.537 182.361 145.084 181.958 144.429 181.958C141.053 181.958 137.473 186.949 137.473 190.983C137.473 194.008 139.69 196.073 142.16 196.073ZM152.445 196.073C154.612 196.073 156.527 194.41 156.527 192.141C156.527 188.008 152.241 188.966 152.241 186.595C152.241 185.335 153.957 184.377 155.065 183.825C155.62 183.522 155.821 183.27 155.821 182.865C155.821 182.361 155.368 181.958 154.714 181.958C151.335 181.958 147.757 186.949 147.757 190.983C147.757 194.008 149.975 196.073 152.445 196.073Z" fill="#FE7C21"/>
<path d="M171.247 218.052C181.985 218.052 184.302 216.843 184.302 211.903C184.302 209.835 182.84 208.173 181.076 208.173C179.212 208.173 178.254 209.28 177.246 210.439C176.187 211.651 175.128 212.86 172.961 212.86C169.533 212.86 168.324 209.886 168.324 204.542C168.324 201.012 168.675 200.811 170.542 200.811C174.623 200.811 174.926 203.23 176.994 203.23C178.909 203.23 179.311 201.012 179.311 198.593C179.311 195.77 178.606 193.552 176.439 193.552C173.969 193.552 173.213 196.931 170.743 196.931C168.423 196.931 168.273 196.477 168.273 190.629C168.273 187.604 169.381 186.799 171.196 186.799C173.012 186.799 174.068 187.705 175.229 188.612C176.49 189.671 177.85 190.781 180.421 190.781C182.033 190.781 183.849 189.821 183.849 187.453C183.849 183.672 180.271 181.958 171.85 181.958C162.124 181.958 158.897 183.573 158.897 186.898C158.897 188.309 159.399 189.218 159.954 190.277C160.863 191.94 161.971 194.056 161.971 199.148V203.029C161.971 206.507 160.963 208.575 160.107 210.39C159.45 211.75 158.897 212.96 158.897 214.523C158.897 216.993 161.367 218.052 171.247 218.052Z" fill="#FE7C21"/>
<path d="M196.502 218.052C203.206 218.052 206.937 215.682 206.937 210.844C206.937 206.558 203.155 204.845 199.626 203.686C196.451 202.678 193.426 201.97 193.426 199.299C193.426 197.888 194.587 197.081 195.695 197.081C196.856 197.081 197.561 197.888 197.813 199.299C198.065 201.165 198.822 202.222 201.088 202.222C203.155 202.222 205.373 201.012 205.373 198.644C205.373 196.325 203.005 193.654 196.805 193.654C192.165 193.654 187.631 195.469 187.631 200.157C187.631 204.542 191.208 206.156 194.485 207.213C197.408 208.122 200.082 208.575 200.082 211.297C200.082 213.464 198.87 214.271 197.609 214.271C195.998 214.271 195.292 213.212 194.587 211.045C193.981 209.229 192.822 208.122 190.653 208.122C188.183 208.122 186.37 209.634 186.37 212.356C186.37 215.934 190.554 218.052 196.502 218.052Z" fill="#FE7C21"/>
<path d="M221.404 212.909C217.674 212.909 216.564 209.886 216.564 206.708C216.564 202.474 218.529 197.837 222.413 197.837C223.22 197.837 224.276 198.14 224.276 199.248C224.276 200.508 222.917 200.913 222.917 202.627C222.917 204.239 224.177 204.895 226.041 204.895C228.964 204.895 230.477 203.281 230.477 200.508C230.477 196.829 227.755 193.654 222.463 193.654C214.448 193.654 209.055 200.862 209.055 207.768C209.055 214.373 213.944 218.052 219.79 218.052C226.344 218.052 230.428 213.413 230.428 210.541C230.428 209.331 229.672 208.827 228.916 208.827C226.698 208.827 225.789 212.909 221.404 212.909Z" fill="#FE7C21"/>
<path d="M242.222 218.052C245.575 218.052 247.088 216.288 248.17 215.027C248.776 214.347 249.229 213.818 249.785 213.818C250.187 213.818 250.592 214.121 250.592 215.177C250.592 216.639 250.592 218.052 252.96 218.052C255.481 218.052 258.656 216.438 258.656 213.917C258.656 212.835 258.304 212.405 257.851 211.877C257.095 210.994 256.135 209.861 256.135 205.196C256.135 199.905 256.639 198.418 256.993 197.384C257.194 196.803 257.347 196.376 257.347 195.517C257.347 194.158 256.186 193.654 255.43 193.654C253.892 193.654 253.339 194.359 252.835 194.965C252.43 195.469 252.053 195.922 251.246 195.922C250.592 195.922 250.088 195.543 249.507 195.09C248.651 194.461 247.592 193.654 245.55 193.654C238.492 193.654 233.099 200.661 233.099 207.617C233.099 213.716 236.982 218.052 242.222 218.052ZM244.44 212.305C241.769 212.305 240.71 209.43 240.71 206.357C240.71 202.123 242.879 197.939 246.558 197.939C248.977 197.939 250.592 199.704 250.592 203.131C250.592 208.122 247.717 212.305 244.44 212.305Z" fill="#FE7C21"/>
<path d="M265.309 227.025C268.133 227.025 271.257 225.462 271.257 222.791C271.257 221.429 270.552 220.774 269.846 220.069C269.24 219.463 268.637 218.908 268.637 217.347C268.637 216.792 268.889 216.438 269.342 216.438C269.745 216.438 270.048 216.639 270.452 216.891C271.209 217.395 272.215 218.052 274.282 218.052C280.431 218.052 286.127 211.297 286.127 204.19C286.127 197.939 282.247 193.654 277.508 193.654C273.829 193.654 272.265 195.418 271.158 196.679C270.501 197.333 270.048 197.888 269.444 197.888C269.039 197.888 268.637 197.585 268.637 196.526C268.637 195.064 268.637 193.654 266.266 193.654C263.796 193.654 260.57 195.217 260.57 197.786C260.57 198.795 261.074 199.452 261.63 200.106C262.335 200.964 263.142 201.718 263.142 208.272V212.758C263.142 214.925 263.142 217.296 261.68 220.672C261.227 221.681 260.873 222.638 260.873 223.595C260.873 225.966 262.992 227.025 265.309 227.025ZM272.67 213.767C270.249 213.767 268.637 212.002 268.637 208.674C268.637 203.584 271.509 199.401 274.786 199.401C277.457 199.401 278.517 202.273 278.517 205.448C278.517 209.583 276.35 213.767 272.67 213.767Z" fill="#FE7C21"/>
<path d="M299.538 218.052C305.639 218.052 309.921 213.515 309.921 210.339C309.921 209.382 309.165 208.827 308.46 208.827C306.191 208.827 305.789 212.909 300.345 212.909C298.43 212.909 296.918 212.002 297.017 210.187C297.119 208.626 299.135 208.221 301.554 207.717C305.285 206.912 310.023 205.952 309.972 200.46C309.921 196.829 306.797 193.654 301.806 193.654C293.943 193.654 288.548 200.862 288.548 207.768C288.548 214.373 293.337 218.052 299.538 218.052ZM298.43 205.148C297.218 205.148 296.665 204.592 296.665 203.332C296.665 200.61 299.034 197.837 301.755 197.837C303.268 197.837 304.327 198.392 304.327 199.854C304.327 202.474 300.798 205.148 298.43 205.148Z" fill="#FE7C21"/>
<path d="M331.396 218.052C334.27 218.052 337.344 216.54 337.344 213.818C337.344 212.809 336.941 212.104 336.59 211.447C335.077 208.626 335.077 205.499 335.077 203.533V200.46C335.077 198.367 336.338 198.239 337.596 198.14C338.808 198.064 340.017 198.013 340.017 195.973C340.017 194.283 338.706 194.056 337.446 194.056C334.925 194.056 335.33 193.705 335.33 189.671C335.33 187.099 335.228 185.791 333.565 185.791C331.648 185.791 331.296 187.655 329.784 190.629C327.566 194.965 325.195 194.359 325.195 196.174C325.195 197.99 326.405 198.14 327.566 198.239C328.574 198.392 329.583 198.492 329.583 199.854V203.533C329.583 208.827 328.625 210.439 327.869 211.75C327.365 212.608 326.96 213.464 326.96 214.523C326.96 216.993 329.027 218.052 331.396 218.052Z" fill="#FE7C21"/>
<path d="M365.776 211.399C364.314 208.878 364.113 208.122 364.113 205.952C364.113 205.247 364.263 202.324 364.263 201.669C364.263 196.376 362.246 193.654 358.567 193.654C356.451 193.654 354.888 194.359 352.619 196.526C351.358 197.738 350.854 198.038 350.299 198.038C349.897 198.038 349.495 197.786 349.495 196.225C349.495 194.056 349.495 191.688 350.956 188.309C351.409 187.303 351.763 186.343 351.763 185.386C351.763 183.018 349.645 181.958 347.325 181.958C344.504 181.958 341.377 183.522 341.377 186.193C341.377 187.351 341.932 188.309 342.334 189.017C344 191.991 344 194.359 344 196.225V203.533C344 208.827 343.042 210.439 342.286 211.75C341.782 212.608 341.377 213.464 341.377 214.523C341.377 216.993 343.445 218.052 345.813 218.052C348.687 218.052 351.763 216.54 351.763 213.818C351.763 212.809 351.358 212.104 351.007 211.447C349.495 208.626 349.495 206.255 349.495 205.247C349.495 202.576 351.358 199.704 355.191 199.704C357.559 199.704 358.768 201.468 358.768 205.652C358.768 207.87 358.165 210.087 357.105 211.75C356.499 212.657 356.148 213.716 356.148 214.625C356.148 216.741 357.862 218.052 360.584 218.052C363.912 218.052 366.532 216.186 366.532 213.818C366.532 213.011 366.331 212.356 365.776 211.399Z" fill="#FE7C21"/>
<path d="M379.637 218.052C385.738 218.052 390.021 213.515 390.021 210.339C390.021 209.382 389.265 208.827 388.559 208.827C386.291 208.827 385.888 212.909 380.444 212.909C378.53 212.909 377.017 212.002 377.116 210.187C377.218 208.626 379.235 208.221 381.654 207.717C385.384 206.912 390.123 205.952 390.072 200.46C390.021 196.829 386.897 193.654 381.906 193.654C374.043 193.654 368.647 200.862 368.647 207.768C368.647 214.373 373.437 218.052 379.637 218.052ZM378.53 205.148C377.318 205.148 376.765 204.592 376.765 203.332C376.765 200.61 379.133 197.837 381.855 197.837C383.368 197.837 384.427 198.392 384.427 199.854C384.427 202.474 380.898 205.148 378.53 205.148Z" fill="#FE7C21"/>
<path d="M164.527 273.569C173.047 273.569 176.928 267.519 176.928 261.268C176.928 253.657 171.736 249.17 165.434 249.17C157.318 249.17 153.084 255.422 153.084 261.973C153.084 268.93 157.721 273.569 164.527 273.569ZM164.878 268.426C161.904 268.426 160.293 265.655 160.293 261.973C160.293 258.042 162.459 254.614 165.787 254.614C168.711 254.614 169.92 257.285 169.92 260.563C169.92 264.191 168.509 268.426 164.878 268.426Z" fill="black" fill-opacity="0.8902"/>
<path d="M195.126 249.17C190.891 249.17 190.336 253.555 188.773 253.555C187.968 253.555 187.563 253.003 187.563 251.841C187.563 250.179 187.311 249.17 185.246 249.17C182.221 249.17 179.499 251.136 179.499 253.303C179.499 254.11 179.802 254.716 180.556 255.623C181.717 256.985 182.119 258.294 182.119 260.815C182.119 263.537 181.615 265.502 180.456 267.267C179.85 268.173 179.499 269.233 179.499 270.142C179.499 272.258 181.213 273.569 183.935 273.569C187.26 273.569 189.883 271.703 189.883 269.335C189.883 268.578 189.682 267.921 189.076 266.964C188.016 265.049 187.563 263.185 187.563 261.52C187.563 257.588 189.934 255.22 192.251 255.22C193.361 255.22 194.469 255.824 194.469 256.934C194.469 257.588 194.217 257.991 194.194 258.849C194.217 260.563 195.655 261.421 197.343 261.421C199.51 261.421 201.326 259.554 201.326 256.481C201.326 252.7 199.411 249.17 195.126 249.17Z" fill="black" fill-opacity="0.8902"/>
<path d="M227.842 267.117C227.134 266.259 226.33 265.502 226.33 259.05V251.742C226.33 249.573 226.33 247.205 227.791 243.826C228.245 242.82 228.596 241.86 228.596 240.903C228.596 238.535 226.48 237.475 224.16 237.475C221.339 237.475 218.212 239.039 218.212 241.71C218.212 242.868 218.767 243.826 219.17 244.534C220.229 246.448 220.608 248.086 220.758 249.524C220.758 249.499 220.733 249.499 220.733 249.473C220.784 250.077 220.682 250.431 220.382 250.431C219.674 250.431 218.968 249.17 215.691 249.17C209.038 249.17 203.342 255.572 203.342 263.134C203.342 269.284 207.225 273.569 212.465 273.569C217.66 273.569 218.464 269.335 220.028 269.335C220.43 269.335 220.835 269.638 220.835 270.694C220.835 272.156 220.835 273.569 223.203 273.569C225.673 273.569 228.899 272.006 228.899 269.434C228.899 268.425 228.395 267.771 227.842 267.117ZM214.683 267.822C212.012 267.822 210.953 264.947 210.953 261.874C210.953 257.285 213.122 253.456 216.802 253.456C219.221 253.456 220.835 254.866 220.835 258.648C220.835 263.638 217.96 267.822 214.683 267.822Z" fill="black" fill-opacity="0.8902"/>
<path d="M236.361 245.29C238.981 245.29 241.652 243.877 241.652 240.852C241.652 238.585 239.587 237.475 237.217 237.475C234.395 237.475 231.268 239.09 231.268 241.608C231.268 243.978 233.789 245.29 236.361 245.29ZM235.554 273.569C238.426 273.569 241.502 272.056 241.502 269.335C241.502 268.425 241.148 267.72 240.695 266.964C240.04 265.805 239.233 264.242 239.233 260.512C239.233 257.084 239.939 256.178 240.545 255.22C240.896 254.716 241.502 253.807 241.502 252.547C241.502 250.278 239.434 249.17 237.066 249.17C234.242 249.17 231.118 250.782 231.118 253.303C231.118 254.311 231.622 254.968 232.175 255.623C232.883 256.481 233.738 257.235 233.738 260.713C233.738 264.443 232.832 266.108 232.076 267.267C231.773 267.72 231.118 268.779 231.118 270.142C231.118 272.51 233.183 273.569 235.554 273.569Z" fill="black" fill-opacity="0.8902"/>
<path d="M268.572 266.916C267.111 264.395 266.907 263.638 266.907 261.469C266.907 260.764 267.06 257.841 267.06 257.186C267.06 251.892 265.043 249.17 261.364 249.17C259.245 249.17 257.684 249.876 255.416 252.043C254.155 253.255 253.651 253.555 253.096 253.555C252.694 253.555 252.289 253.303 252.289 251.841C252.289 250.179 252.037 249.17 249.972 249.17C246.947 249.17 244.225 251.136 244.225 253.303C244.225 254.11 244.528 254.716 245.281 255.623C246.442 256.985 246.845 258.294 246.845 260.815C246.845 263.537 246.341 265.502 245.182 267.267C244.576 268.173 244.225 269.233 244.225 270.142C244.225 272.258 245.938 273.569 248.66 273.569C251.986 273.569 254.608 271.703 254.608 269.335C254.608 268.578 254.407 267.921 253.801 266.964C252.742 265.049 252.289 263.185 252.289 261.52C252.289 257.588 254.155 255.22 257.985 255.22C260.355 255.22 261.565 256.985 261.565 261.169C261.565 263.386 260.959 265.604 259.902 267.267C259.296 268.173 258.942 269.233 258.942 270.142C258.942 272.258 260.658 273.569 263.38 273.569C266.706 273.569 269.329 271.703 269.329 269.335C269.329 268.527 269.127 267.873 268.572 266.916Z" fill="black" fill-opacity="0.8902"/>
<path d="M280.618 273.569C283.971 273.569 285.483 271.804 286.566 270.544C287.172 269.864 287.625 269.335 288.18 269.335C288.582 269.335 288.987 269.638 288.987 270.694C288.987 272.156 288.987 273.569 291.355 273.569C293.876 273.569 297.051 271.955 297.051 269.434C297.051 268.352 296.7 267.921 296.247 267.394C295.49 266.511 294.53 265.378 294.53 260.713C294.53 255.422 295.035 253.935 295.389 252.901C295.59 252.32 295.743 251.892 295.743 251.034C295.743 249.675 294.581 249.17 293.825 249.17C292.287 249.17 291.735 249.876 291.23 250.482C290.826 250.986 290.449 251.439 289.642 251.439C288.987 251.439 288.483 251.06 287.902 250.607C287.047 249.978 285.988 249.17 283.946 249.17C276.887 249.17 271.494 256.178 271.494 263.134C271.494 269.233 275.377 273.569 280.618 273.569ZM282.835 267.822C280.164 267.822 279.105 264.947 279.105 261.874C279.105 257.639 281.274 253.456 284.954 253.456C287.373 253.456 288.987 255.22 288.987 258.648C288.987 263.638 286.112 267.822 282.835 267.822Z" fill="black" fill-opacity="0.8902"/>
<path d="M314.999 249.17C310.764 249.17 310.209 253.555 308.646 253.555C307.841 253.555 307.436 253.003 307.436 251.841C307.436 250.179 307.184 249.17 305.119 249.17C302.094 249.17 299.372 251.136 299.372 253.303C299.372 254.11 299.675 254.716 300.429 255.623C301.59 256.985 301.992 258.294 301.992 260.815C301.992 263.537 301.488 265.502 300.329 267.267C299.723 268.173 299.372 269.233 299.372 270.142C299.372 272.258 301.086 273.569 303.808 273.569C307.133 273.569 309.756 271.703 309.756 269.335C309.756 268.578 309.555 267.921 308.949 266.964C307.889 265.049 307.436 263.185 307.436 261.52C307.436 257.588 309.807 255.22 312.124 255.22C313.234 255.22 314.342 255.824 314.342 256.934C314.342 257.588 314.09 257.991 314.067 258.849C314.09 260.563 315.528 261.421 317.217 261.421C319.383 261.421 321.199 259.554 321.199 256.481C321.199 252.7 319.284 249.17 314.999 249.17Z" fill="black" fill-opacity="0.8902"/>
<path d="M328.91 282.338C331.986 282.338 334.054 280.526 335.312 278.257C336.674 275.838 337.379 273.62 338.337 270.796C339.951 265.805 341.815 260.109 344.84 256.43C345.95 255.119 346.706 254.161 346.706 252.547C346.706 250.278 344.639 249.17 342.268 249.17C339.447 249.17 336.977 250.782 336.977 252.799C336.977 253.756 337.178 254.311 337.379 254.816C337.58 255.32 337.782 255.773 337.782 256.631C337.782 257.891 337.28 260.058 335.666 264.545C335.464 265.049 335.263 265.403 335.011 265.403C334.759 265.403 334.456 265.1 334.255 264.596C332.541 260.664 332.086 258.345 332.086 256.781C332.086 255.725 332.289 254.968 332.49 254.311C332.692 253.756 332.842 253.204 332.842 252.547C332.842 250.278 330.777 249.17 328.406 249.17C325.585 249.17 322.458 250.833 322.458 253.303C322.458 254.716 323.064 255.269 324.072 256.127C327.599 259.203 331.986 270.997 331.986 274.124C331.986 274.804 331.734 275.082 331.128 275.107C329.616 275.107 329.063 273.872 326.542 273.872C324.526 273.872 323.265 275.283 323.265 277.45C323.265 280.526 325.633 282.338 328.91 282.338Z" fill="black" fill-opacity="0.8902"/>
<path d="M353.257 273.569C355.88 273.569 358.551 272.156 358.551 269.133C358.551 266.865 356.483 265.754 354.115 265.754C351.291 265.754 348.167 267.369 348.167 269.89C348.167 272.258 350.688 273.569 353.257 273.569Z" fill="black" fill-opacity="0.8902"/>
<path d="M364.652 237.475C362.482 237.475 360.567 239.138 360.567 241.407C360.567 245.542 364.853 244.582 364.853 246.953C364.853 248.213 363.139 249.17 362.029 249.725C361.474 250.026 361.273 250.278 361.273 250.683C361.273 251.187 361.726 251.589 362.383 251.589C365.759 251.589 369.339 246.599 369.339 242.568C369.339 239.543 367.122 237.475 364.652 237.475ZM374.934 237.475C372.767 237.475 370.852 239.138 370.852 241.407C370.852 245.542 375.135 244.582 375.135 246.953C375.135 248.213 373.421 249.17 372.313 249.725C371.758 250.026 371.557 250.278 371.557 250.683C371.557 251.187 372.01 251.589 372.665 251.589C376.044 251.589 379.621 246.599 379.621 242.568C379.621 239.543 377.403 237.475 374.934 237.475Z" fill="black" fill-opacity="0.8902"/>
<path d="M162.3 271.341C170.819 271.341 174.7 265.291 174.7 259.04C174.7 251.429 169.508 246.942 163.206 246.942C155.091 246.942 150.856 253.194 150.856 259.745C150.856 266.702 155.493 271.341 162.3 271.341ZM162.651 266.198C159.677 266.198 158.065 263.427 158.065 259.745C158.065 255.814 160.232 252.386 163.56 252.386C166.483 252.386 167.693 255.057 167.693 258.335C167.693 261.963 166.282 266.198 162.651 266.198Z" fill="#FE7C21"/>
<path d="M192.898 246.942C188.664 246.942 188.109 251.327 186.545 251.327C185.74 251.327 185.336 250.775 185.336 249.614C185.336 247.951 185.084 246.942 183.018 246.942C179.993 246.942 177.271 248.908 177.271 251.075C177.271 251.882 177.574 252.488 178.328 253.395C179.489 254.757 179.892 256.066 179.892 258.587C179.892 261.309 179.387 263.274 178.229 265.039C177.623 265.945 177.271 267.005 177.271 267.914C177.271 270.03 178.985 271.341 181.707 271.341C185.033 271.341 187.655 269.475 187.655 267.107C187.655 266.35 187.454 265.693 186.848 264.736C185.789 262.821 185.336 260.957 185.336 259.292C185.336 255.36 187.706 252.992 190.023 252.992C191.134 252.992 192.241 253.596 192.241 254.706C192.241 255.36 191.989 255.763 191.966 256.621C191.989 258.335 193.428 259.193 195.116 259.193C197.283 259.193 199.098 257.326 199.098 254.253C199.098 250.472 197.184 246.942 192.898 246.942Z" fill="#FE7C21"/>
<path d="M225.614 264.889C224.906 264.031 224.101 263.274 224.101 256.822V249.514C224.101 247.345 224.101 244.977 225.563 241.598C226.016 240.592 226.367 239.632 226.367 238.675C226.367 236.307 224.251 235.247 221.932 235.247C219.111 235.247 215.984 236.811 215.984 239.482C215.984 240.64 216.539 241.598 216.941 242.306C218 244.22 218.38 245.858 218.53 247.296C218.53 247.271 218.504 247.271 218.504 247.245C218.555 247.849 218.454 248.203 218.153 248.203C217.445 248.203 216.74 246.942 213.463 246.942C206.809 246.942 201.113 253.344 201.113 260.906C201.113 267.056 204.996 271.341 210.237 271.341C215.431 271.341 216.236 267.107 217.799 267.107C218.201 267.107 218.606 267.41 218.606 268.466C218.606 269.928 218.606 271.341 220.974 271.341C223.444 271.341 226.67 269.778 226.67 267.206C226.67 266.198 226.166 265.543 225.614 264.889ZM212.454 265.594C209.783 265.594 208.724 262.719 208.724 259.646C208.724 255.057 210.894 251.228 214.573 251.228C216.992 251.228 218.606 252.639 218.606 256.42C218.606 261.411 215.732 265.594 212.454 265.594Z" fill="#FE7C21"/>
<path d="M234.132 243.062C236.753 243.062 239.424 241.649 239.424 238.624C239.424 236.357 237.359 235.247 234.988 235.247C232.167 235.247 229.04 236.862 229.04 239.38C229.04 241.751 231.561 243.062 234.132 243.062ZM233.325 271.341C236.198 271.341 239.273 269.829 239.273 267.107C239.273 266.198 238.92 265.492 238.466 264.736C237.812 263.577 237.005 262.014 237.005 258.284C237.005 254.856 237.71 253.95 238.316 252.992C238.667 252.488 239.273 251.579 239.273 250.319C239.273 248.05 237.206 246.942 234.838 246.942C232.014 246.942 228.89 248.554 228.89 251.075C228.89 252.083 229.394 252.74 229.946 253.395C230.654 254.253 231.51 255.007 231.51 258.485C231.51 262.215 230.603 263.88 229.847 265.039C229.544 265.492 228.89 266.551 228.89 267.914C228.89 270.282 230.955 271.341 233.325 271.341Z" fill="#FE7C21"/>
<path d="M266.344 264.688C264.882 262.167 264.679 261.41 264.679 259.241C264.679 258.536 264.831 255.613 264.831 254.958C264.831 249.664 262.815 246.942 259.135 246.942C257.017 246.942 255.456 247.648 253.187 249.815C251.927 251.027 251.422 251.327 250.867 251.327C250.465 251.327 250.06 251.075 250.06 249.614C250.06 247.951 249.808 246.942 247.743 246.942C244.718 246.942 241.996 248.908 241.996 251.075C241.996 251.882 242.299 252.488 243.053 253.395C244.214 254.757 244.616 256.066 244.616 258.587C244.616 261.309 244.112 263.274 242.954 265.039C242.347 265.945 241.996 267.005 241.996 267.914C241.996 270.03 243.71 271.341 246.432 271.341C249.757 271.341 252.38 269.475 252.38 267.107C252.38 266.35 252.179 265.693 251.573 264.736C250.513 262.821 250.06 260.957 250.06 259.292C250.06 255.36 251.927 252.992 255.756 252.992C258.127 252.992 259.336 254.757 259.336 258.941C259.336 261.158 258.73 263.376 257.674 265.039C257.068 265.945 256.714 267.005 256.714 267.914C256.714 270.03 258.43 271.341 261.152 271.341C264.477 271.341 267.1 269.475 267.1 267.107C267.1 266.299 266.899 265.645 266.344 264.688Z" fill="#FE7C21"/>
<path d="M278.39 271.341C281.743 271.341 283.256 269.576 284.338 268.316C284.944 267.636 285.397 267.107 285.952 267.107C286.355 267.107 286.76 267.41 286.76 268.466C286.76 269.928 286.76 271.341 289.128 271.341C291.649 271.341 294.824 269.727 294.824 267.206C294.824 266.124 294.472 265.693 294.019 265.166C293.263 264.283 292.303 263.15 292.303 258.485C292.303 253.194 292.807 251.707 293.161 250.673C293.362 250.092 293.515 249.664 293.515 248.806C293.515 247.447 292.354 246.942 291.598 246.942C290.06 246.942 289.507 247.648 289.003 248.254C288.598 248.758 288.221 249.211 287.414 249.211C286.76 249.211 286.255 248.832 285.675 248.379C284.819 247.75 283.76 246.942 281.718 246.942C274.66 246.942 269.267 253.95 269.267 260.906C269.267 267.005 273.15 271.341 278.39 271.341ZM280.608 265.594C277.937 265.594 276.877 262.719 276.877 259.646C276.877 255.411 279.047 251.228 282.726 251.228C285.145 251.228 286.76 252.992 286.76 256.42C286.76 261.41 283.885 265.594 280.608 265.594Z" fill="#FE7C21"/>
<path d="M312.77 246.942C308.536 246.942 307.981 251.327 306.417 251.327C305.613 251.327 305.208 250.775 305.208 249.614C305.208 247.951 304.956 246.942 302.891 246.942C299.866 246.942 297.144 248.908 297.144 251.075C297.144 251.882 297.447 252.488 298.2 253.395C299.361 254.757 299.764 256.066 299.764 258.587C299.764 261.309 299.26 263.274 298.101 265.039C297.495 265.945 297.144 267.005 297.144 267.914C297.144 270.03 298.857 271.341 301.579 271.341C304.905 271.341 307.527 269.475 307.527 267.107C307.527 266.35 307.326 265.693 306.72 264.736C305.661 262.821 305.208 260.957 305.208 259.292C305.208 255.36 307.578 252.992 309.895 252.992C311.006 252.992 312.113 253.596 312.113 254.706C312.113 255.36 311.861 255.763 311.838 256.621C311.861 258.335 313.3 259.193 314.988 259.193C317.155 259.193 318.97 257.326 318.97 254.253C318.97 250.472 317.056 246.942 312.77 246.942Z" fill="#FE7C21"/>
<path d="M326.683 280.111C329.759 280.111 331.826 278.298 333.084 276.029C334.446 273.61 335.152 271.392 336.109 268.568C337.724 263.577 339.587 257.881 342.612 254.202C343.723 252.891 344.479 251.933 344.479 250.319C344.479 248.05 342.411 246.942 340.041 246.942C337.219 246.942 334.749 248.554 334.749 250.571C334.749 251.528 334.951 252.083 335.152 252.588C335.353 253.092 335.554 253.545 335.554 254.403C335.554 255.664 335.052 257.83 333.438 262.317C333.237 262.821 333.036 263.175 332.784 263.175C332.532 263.175 332.229 262.872 332.027 262.368C330.314 258.436 329.858 256.117 329.858 254.553C329.858 253.497 330.062 252.74 330.263 252.083C330.464 251.528 330.614 250.976 330.614 250.319C330.614 248.05 328.549 246.942 326.179 246.942C323.357 246.942 320.23 248.605 320.23 251.075C320.23 252.488 320.836 253.041 321.845 253.899C325.371 256.975 329.759 268.769 329.759 271.896C329.759 272.576 329.507 272.854 328.901 272.879C327.388 272.879 326.836 271.644 324.315 271.644C322.298 271.644 321.038 273.055 321.038 275.222C321.038 278.298 323.406 280.111 326.683 280.111Z" fill="#FE7C21"/>
<path d="M351.029 271.341C353.652 271.341 356.323 269.928 356.323 266.905C356.323 264.637 354.256 263.526 351.888 263.526C349.064 263.526 345.939 265.141 345.939 267.662C345.939 270.03 348.46 271.341 351.029 271.341Z" fill="#FE7C21"/>
<path d="M362.424 245.247C360.255 245.247 358.34 246.91 358.34 249.179C358.34 253.314 362.625 252.354 362.625 254.725C362.625 255.985 360.912 256.942 359.801 257.498C359.246 257.798 359.045 258.05 359.045 258.455C359.045 258.959 359.498 259.361 360.155 259.361C363.532 259.361 367.112 254.371 367.112 250.34C367.112 247.315 364.894 245.247 362.424 245.247ZM372.706 245.247C370.539 245.247 368.624 246.91 368.624 249.179C368.624 253.314 372.907 252.354 372.907 254.725C372.907 255.985 371.194 256.942 370.086 257.498C369.531 257.798 369.33 258.05 369.33 258.455C369.33 258.959 369.783 259.361 370.437 259.361C373.816 259.361 377.394 254.371 377.394 250.34C377.394 247.315 375.176 245.247 372.706 245.247Z" fill="#FE7C21"/>
</svg>
