<svg xmlns="http://www.w3.org/2000/svg" xmlns:xlink="http://www.w3.org/1999/xlink" width="816" zoomAndPan="magnify" viewBox="0 0 612 791.999994" height="1056" preserveAspectRatio="xMidYMid meet" version="1.0"><defs><g/></defs><rect x="-61.2" width="734.4" fill="#ffffff" y="-79.199999" height="950.399992" fill-opacity="1"/><rect x="-61.2" width="734.4" fill="#ffffff" y="-79.199999" height="950.399992" fill-opacity="1"/><rect x="-61.2" width="734.4" fill="#ffffff" y="-79.199999" height="950.399992" fill-opacity="1"/><rect x="-61.2" width="734.4" fill="#f797a6" y="-79.199999" height="950.399992" fill-opacity="1"/><path fill="#ffdea7" d="M 197.25 0 L 0 0 L 0 198.453125 C 49.3125 184.117188 104.15625 172.394531 163.09375 163.796875 C 171.511719 104.671875 183.070312 49.589844 197.25 0 Z M 197.25 0 " fill-opacity="1" fill-rule="nonzero"/><path fill="#ffdea7" d="M 398.09375 147.3125 C 479.304688 147.3125 557.050781 152.929688 628.816406 163.183594 C 620.40625 104.289062 608.878906 49.417969 594.75 0 L 396 0 L 396 147.320312 C 396.699219 147.320312 397.394531 147.3125 398.09375 147.3125 Z M 398.09375 147.3125 " fill-opacity="1" fill-rule="nonzero"/><path fill="#ffdea7" d="M 593.546875 792 L 792 792 L 792 594.75 C 742.410156 608.929688 687.328125 620.488281 628.203125 628.90625 C 619.609375 687.84375 607.882812 742.6875 593.546875 792 Z M 593.546875 792 " fill-opacity="1" fill-rule="nonzero"/><path fill="#ffdea7" d="M 163.707031 628.292969 C 172.3125 687.460938 184.066406 742.519531 198.453125 792 L 396 792 L 396 644.679688 C 314.164062 644.582031 235.871094 638.789062 163.707031 628.292969 Z M 163.707031 628.292969 " fill-opacity="1" fill-rule="nonzero"/><path fill="#ffdea7" d="M 396 147.320312 C 313.933594 147.417969 235.429688 153.242188 163.09375 163.796875 C 152.898438 235.390625 147.3125 312.925781 147.3125 393.90625 C 147.3125 394.609375 147.320312 395.300781 147.320312 396 L 396 396 Z M 396 147.320312 " fill-opacity="1" fill-rule="nonzero"/><path fill="#ffdea7" d="M 147.320312 396 L 0 396 L 0 593.546875 C 49.484375 607.929688 104.539062 619.6875 163.707031 628.292969 C 153.210938 556.128906 147.417969 477.835938 147.320312 396 Z M 147.320312 396 " fill-opacity="1" fill-rule="nonzero"/><path fill="#ffdea7" d="M 396 644.679688 C 396.699219 644.683594 397.394531 644.6875 398.09375 644.6875 C 479.074219 644.6875 556.605469 639.101562 628.203125 628.90625 C 638.757812 556.570312 644.582031 478.0625 644.679688 396 L 396 396 Z M 396 644.679688 " fill-opacity="1" fill-rule="nonzero"/><g fill="#000000" fill-opacity="0.7098"><g transform="translate(343.841216, 110.889281)"><g><path d="M -0.648438 23.972656 C -0.648438 41.28125 13.699219 55.351562 31.378906 55.351562 C 49.054688 55.351562 63.402344 41.28125 63.402344 23.972656 C 63.402344 14.714844 59.238281 2.128906 43.316406 2.128906 L 0 2.128906 L 0 17.585938 C -0.371094 19.53125 -0.648438 21.9375 -0.648438 23.972656 Z M 56.832031 13.328125 C 55.351562 18.605469 47.667969 27.121094 37.300781 33.597656 C 23.511719 42.207031 9.535156 44.890625 6.203125 39.523438 C 3.886719 35.726562 7.496094 28.96875 14.625 22.398438 L 34.988281 22.398438 C 46.925781 22.398438 46.371094 11.199219 51.832031 8.976562 C 54.148438 8.050781 58.125 8.609375 56.832031 13.328125 Z M 56.832031 13.328125 "/></g></g></g><g fill="#000000" fill-opacity="0.7098"><g transform="translate(343.841216, 167.812442)"><g><path d="M 50.722656 29.339844 C 50.722656 12.773438 40.171875 1.667969 25.082031 1.667969 C 9.902344 1.667969 -0.648438 12.773438 -0.648438 29.339844 C -0.648438 45.816406 9.902344 56.921875 25.082031 56.921875 C 40.171875 56.921875 50.722656 45.816406 50.722656 29.339844 Z M 4.257812 42.484375 C 0.925781 37.207031 8.332031 30.265625 20.640625 22.398438 C 33.042969 14.53125 42.484375 10.828125 45.910156 16.105469 C 49.242188 21.382812 41.835938 28.324219 29.433594 36.191406 C 17.125 43.964844 7.589844 47.851562 4.257812 42.484375 Z M 4.257812 42.484375 "/></g></g></g><g fill="#000000" fill-opacity="0.7098"><g transform="translate(343.841216, 226.40164)"><g/></g></g><g fill="#000000" fill-opacity="0.7098"><g transform="translate(343.841216, 250.836927)"><g><path d="M 2.777344 60.070312 C 1.480469 52.757812 6.386719 46.558594 20.085938 50.628906 C 31.746094 55.351562 45.074219 56.089844 50.074219 52.574219 L 50.074219 25.730469 C 42.390625 40.078125 3.703125 46.925781 2.777344 31.097656 C 2.5 26.84375 5.183594 23.230469 24.25 26.101562 C 32.394531 27.304688 40.355469 28.136719 46 23.695312 C 55.8125 15.921875 48.6875 -0.183594 40.539062 -6.386719 L 39.058594 -4.90625 C 41.929688 -2.035156 42.667969 1.019531 40.539062 3.515625 C 37.394531 7.128906 32.210938 6.570312 24.804688 5.367188 C 10.367188 3.054688 -0.371094 11.199219 -0.371094 27.304688 C -0.371094 35.265625 4.535156 41.558594 11.292969 46.09375 C 4.257812 46.09375 -0.371094 49.703125 -0.371094 56.273438 C -0.371094 79.230469 37.671875 86.265625 50.074219 84.96875 L 50.074219 58.125 C 40.261719 68.585938 5.460938 75.433594 2.777344 60.070312 Z M 2.777344 60.070312 "/></g></g></g><g fill="#000000" fill-opacity="0.7098"><g transform="translate(343.841216, 337.656295)"><g><path d="M 62.753906 19.992188 C 49.890625 19.992188 59.886719 2.128906 47.851562 2.128906 L 0 2.128906 L 0 22.398438 L 38.78125 22.398438 C 42.484375 22.492188 45.261719 23.230469 46.09375 25.917969 C 47.851562 31.378906 45.167969 36.191406 26.195312 33.320312 C 18.050781 32.117188 10.089844 31.191406 4.441406 35.636719 C -5.367188 43.410156 1.757812 59.515625 9.902344 65.714844 L 11.382812 64.234375 C 8.421875 61.367188 7.773438 58.3125 9.902344 55.90625 C 13.050781 52.296875 18.234375 52.757812 25.636719 53.960938 C 40.078125 56.273438 50.722656 47.945312 50.722656 32.023438 C 50.722656 28.230469 49.148438 25.269531 47.480469 22.398438 L 62.753906 22.398438 Z M 62.753906 19.992188 "/></g></g></g><g fill="#000000" fill-opacity="0.7098"><g transform="translate(343.841216, 393.561303)"><g><path d="M 50.722656 33.691406 C 50.722656 23.046875 44.058594 17.214844 44.058594 11.382812 C 44.058594 8.332031 46.648438 7.3125 50.074219 7.3125 L 50.074219 4.90625 C 34.710938 3.238281 29.894531 7.035156 29.894531 14.902344 C 29.894531 26.933594 46.09375 22.675781 47.851562 28.785156 C 49.519531 34.617188 45.445312 37.484375 28.691406 35.265625 C 28.96875 32.859375 29.0625 30.265625 29.0625 27.398438 C 29.0625 10.089844 23.972656 1.667969 14.347656 1.667969 C 4.8125 1.667969 -0.371094 9.164062 -0.371094 25.636719 C -0.371094 33.414062 2.128906 35.820312 5.644531 36.375 C -5.832031 43.59375 1.296875 60.902344 9.902344 67.382812 L 11.382812 65.992188 C 8.421875 63.03125 7.773438 59.976562 9.902344 57.570312 C 13.050781 53.960938 18.234375 54.425781 25.636719 55.628906 C 40.078125 57.941406 50.722656 49.609375 50.722656 33.691406 Z M 16.199219 33.96875 C 10.550781 33.96875 4.164062 34.710938 3.148438 32.488281 C 1.386719 28.878906 4.074219 24.898438 12.496094 21.566406 C 18.882812 18.972656 24.066406 19.4375 25.824219 23.046875 C 27.121094 25.636719 27.210938 30.175781 26.5625 34.988281 L 26.195312 34.988281 C 22.769531 34.429688 19.34375 34.0625 16.199219 33.96875 Z M 16.199219 33.96875 "/></g></g></g><g fill="#000000" fill-opacity="0.7098"><g transform="translate(343.841216, 451.224926)"><g><path d="M 33.785156 28.324219 L 47.945312 28.324219 L 47.945312 42.113281 L 50.074219 42.113281 L 50.074219 28.324219 L 62.847656 28.324219 L 62.847656 26.101562 C 56.738281 26.101562 50.074219 21.101562 50.074219 8.144531 L 50.074219 1.667969 L 47.945312 1.667969 L 47.945312 8.144531 L 19.53125 8.144531 C 3.609375 8.144531 -0.648438 16.382812 -0.648438 24.25 C -0.648438 32.394531 6.757812 32.859375 6.757812 37.394531 C 6.757812 41.558594 4.164062 41.652344 0.09375 41.652344 L 0.09375 43.78125 C 10.273438 45.074219 23.046875 44.335938 23.046875 32.304688 C 23.046875 23.972656 11.847656 21.660156 11.847656 15.273438 C 11.847656 11.476562 14.4375 10.460938 16.9375 10.828125 C 22.863281 11.753906 21.84375 28.324219 33.785156 28.324219 Z M 33.785156 28.324219 "/></g></g></g><g fill="#000000" fill-opacity="0.7098"><g transform="translate(343.841216, 497.133657)"><g/></g></g><g fill="#000000" fill-opacity="0.7098"><g transform="translate(343.841216, 521.568945)"><g><path d="M 2.777344 27.859375 C 2.5 23.511719 5.183594 19.898438 24.25 22.769531 C 32.394531 23.972656 40.355469 24.898438 46 20.457031 C 55.8125 12.589844 48.6875 -3.425781 40.539062 -9.71875 L 39.058594 -8.238281 C 41.929688 -5.367188 42.667969 -2.3125 40.539062 0.183594 C 37.394531 3.792969 32.210938 3.238281 24.804688 2.128906 C 10.367188 -0.183594 -0.371094 7.867188 -0.371094 24.066406 C -0.371094 29.527344 1.945312 34.246094 5.644531 38.132812 C -5.277344 37.578125 -12.773438 34.0625 -12.773438 27.304688 C -12.773438 20.824219 -1.667969 20.269531 -1.667969 8.421875 C -1.667969 -3.609375 -14.4375 -6.941406 -24.527344 -5.554688 L -24.527344 -3.515625 C -20.457031 -3.515625 -17.957031 -2.777344 -17.957031 1.386719 C -17.957031 6.015625 -25.269531 7.867188 -25.269531 17.03125 C -25.269531 30.820312 -4.351562 41.375 14.53125 46.835938 C 23.511719 49.425781 42.019531 54.054688 50.074219 49.242188 L 50.074219 22.398438 C 42.390625 36.746094 3.703125 43.59375 2.777344 27.859375 Z M 2.777344 27.859375 "/></g></g></g><g fill="#000000" fill-opacity="0.7098"><g transform="translate(343.841216, 574.697204)"><g><path d="M 50.722656 29.339844 C 50.722656 12.773438 40.171875 1.667969 25.082031 1.667969 C 9.902344 1.667969 -0.648438 12.773438 -0.648438 29.339844 C -0.648438 45.816406 9.902344 56.921875 25.082031 56.921875 C 40.171875 56.921875 50.722656 45.816406 50.722656 29.339844 Z M 4.257812 42.484375 C 0.925781 37.207031 8.332031 30.265625 20.640625 22.398438 C 33.042969 14.53125 42.484375 10.828125 45.910156 16.105469 C 49.242188 21.382812 41.835938 28.324219 29.433594 36.191406 C 17.125 43.964844 7.589844 47.851562 4.257812 42.484375 Z M 4.257812 42.484375 "/></g></g></g><g fill="#000000" fill-opacity="0.7098"><g transform="translate(343.841216, 633.286394)"><g><path d="M 0 53.867188 L 50.074219 53.867188 L 50.074219 33.597656 L 10.460938 33.597656 C 7.3125 33.414062 5.089844 32.582031 4.257812 30.082031 C 2.589844 24.621094 5.183594 19.808594 24.25 22.675781 C 32.394531 23.878906 40.355469 24.804688 46 20.363281 C 55.8125 12.589844 48.6875 -3.515625 40.539062 -9.71875 L 39.058594 -8.332031 C 41.929688 -5.367188 42.667969 -2.3125 40.539062 0.09375 C 37.394531 3.703125 32.210938 3.238281 24.804688 2.035156 C 10.367188 -0.277344 -0.371094 7.960938 -0.371094 23.972656 C -0.371094 33.136719 9.070312 37.765625 7.128906 47.296875 C 6.570312 49.796875 4.628906 51.554688 0 51.554688 Z M 0 53.867188 "/></g></g></g><g fill="#cde2ff" fill-opacity="1"><g transform="translate(347.931872, 106.798614)"><g><path d="M -0.648438 23.972656 C -0.648438 41.28125 13.699219 55.351562 31.378906 55.351562 C 49.054688 55.351562 63.402344 41.28125 63.402344 23.972656 C 63.402344 14.714844 59.238281 2.128906 43.316406 2.128906 L 0 2.128906 L 0 17.585938 C -0.371094 19.53125 -0.648438 21.9375 -0.648438 23.972656 Z M 56.832031 13.328125 C 55.351562 18.605469 47.667969 27.121094 37.300781 33.597656 C 23.511719 42.207031 9.535156 44.890625 6.203125 39.523438 C 3.886719 35.726562 7.496094 28.96875 14.625 22.398438 L 34.988281 22.398438 C 46.925781 22.398438 46.371094 11.199219 51.832031 8.976562 C 54.148438 8.050781 58.125 8.609375 56.832031 13.328125 Z M 56.832031 13.328125 "/></g></g></g><g fill="#cde2ff" fill-opacity="1"><g transform="translate(347.931872, 163.721776)"><g><path d="M 50.722656 29.339844 C 50.722656 12.773438 40.171875 1.667969 25.082031 1.667969 C 9.902344 1.667969 -0.648438 12.773438 -0.648438 29.339844 C -0.648438 45.816406 9.902344 56.921875 25.082031 56.921875 C 40.171875 56.921875 50.722656 45.816406 50.722656 29.339844 Z M 4.257812 42.484375 C 0.925781 37.207031 8.332031 30.265625 20.640625 22.398438 C 33.042969 14.53125 42.484375 10.828125 45.910156 16.105469 C 49.242188 21.382812 41.835938 28.324219 29.433594 36.191406 C 17.125 43.964844 7.589844 47.851562 4.257812 42.484375 Z M 4.257812 42.484375 "/></g></g></g><g fill="#cde2ff" fill-opacity="1"><g transform="translate(347.931872, 222.310973)"><g/></g></g><g fill="#cde2ff" fill-opacity="1"><g transform="translate(347.931872, 246.746261)"><g><path d="M 2.777344 60.070312 C 1.480469 52.757812 6.386719 46.558594 20.085938 50.628906 C 31.746094 55.351562 45.074219 56.089844 50.074219 52.574219 L 50.074219 25.730469 C 42.390625 40.078125 3.703125 46.925781 2.777344 31.097656 C 2.5 26.84375 5.183594 23.230469 24.25 26.101562 C 32.394531 27.304688 40.355469 28.136719 46 23.695312 C 55.8125 15.921875 48.6875 -0.183594 40.539062 -6.386719 L 39.058594 -4.90625 C 41.929688 -2.035156 42.667969 1.019531 40.539062 3.515625 C 37.394531 7.128906 32.210938 6.570312 24.804688 5.367188 C 10.367188 3.054688 -0.371094 11.199219 -0.371094 27.304688 C -0.371094 35.265625 4.535156 41.558594 11.292969 46.09375 C 4.257812 46.09375 -0.371094 49.703125 -0.371094 56.273438 C -0.371094 79.230469 37.671875 86.265625 50.074219 84.96875 L 50.074219 58.125 C 40.261719 68.585938 5.460938 75.433594 2.777344 60.070312 Z M 2.777344 60.070312 "/></g></g></g><g fill="#cde2ff" fill-opacity="1"><g transform="translate(347.931872, 333.565628)"><g><path d="M 62.753906 19.992188 C 49.890625 19.992188 59.886719 2.128906 47.851562 2.128906 L 0 2.128906 L 0 22.398438 L 38.78125 22.398438 C 42.484375 22.492188 45.261719 23.230469 46.09375 25.917969 C 47.851562 31.378906 45.167969 36.191406 26.195312 33.320312 C 18.050781 32.117188 10.089844 31.191406 4.441406 35.636719 C -5.367188 43.410156 1.757812 59.515625 9.902344 65.714844 L 11.382812 64.234375 C 8.421875 61.367188 7.773438 58.3125 9.902344 55.90625 C 13.050781 52.296875 18.234375 52.757812 25.636719 53.960938 C 40.078125 56.273438 50.722656 47.945312 50.722656 32.023438 C 50.722656 28.230469 49.148438 25.269531 47.480469 22.398438 L 62.753906 22.398438 Z M 62.753906 19.992188 "/></g></g></g><g fill="#cde2ff" fill-opacity="1"><g transform="translate(347.931872, 389.470637)"><g><path d="M 50.722656 33.691406 C 50.722656 23.046875 44.058594 17.214844 44.058594 11.382812 C 44.058594 8.332031 46.648438 7.3125 50.074219 7.3125 L 50.074219 4.90625 C 34.710938 3.238281 29.894531 7.035156 29.894531 14.902344 C 29.894531 26.933594 46.09375 22.675781 47.851562 28.785156 C 49.519531 34.617188 45.445312 37.484375 28.691406 35.265625 C 28.96875 32.859375 29.0625 30.265625 29.0625 27.398438 C 29.0625 10.089844 23.972656 1.667969 14.347656 1.667969 C 4.8125 1.667969 -0.371094 9.164062 -0.371094 25.636719 C -0.371094 33.414062 2.128906 35.820312 5.644531 36.375 C -5.832031 43.59375 1.296875 60.902344 9.902344 67.382812 L 11.382812 65.992188 C 8.421875 63.03125 7.773438 59.976562 9.902344 57.570312 C 13.050781 53.960938 18.234375 54.425781 25.636719 55.628906 C 40.078125 57.941406 50.722656 49.609375 50.722656 33.691406 Z M 16.199219 33.96875 C 10.550781 33.96875 4.164062 34.710938 3.148438 32.488281 C 1.386719 28.878906 4.074219 24.898438 12.496094 21.566406 C 18.882812 18.972656 24.066406 19.4375 25.824219 23.046875 C 27.121094 25.636719 27.210938 30.175781 26.5625 34.988281 L 26.195312 34.988281 C 22.769531 34.429688 19.34375 34.0625 16.199219 33.96875 Z M 16.199219 33.96875 "/></g></g></g><g fill="#cde2ff" fill-opacity="1"><g transform="translate(347.931872, 447.134259)"><g><path d="M 33.785156 28.324219 L 47.945312 28.324219 L 47.945312 42.113281 L 50.074219 42.113281 L 50.074219 28.324219 L 62.847656 28.324219 L 62.847656 26.101562 C 56.738281 26.101562 50.074219 21.101562 50.074219 8.144531 L 50.074219 1.667969 L 47.945312 1.667969 L 47.945312 8.144531 L 19.53125 8.144531 C 3.609375 8.144531 -0.648438 16.382812 -0.648438 24.25 C -0.648438 32.394531 6.757812 32.859375 6.757812 37.394531 C 6.757812 41.558594 4.164062 41.652344 0.09375 41.652344 L 0.09375 43.78125 C 10.273438 45.074219 23.046875 44.335938 23.046875 32.304688 C 23.046875 23.972656 11.847656 21.660156 11.847656 15.273438 C 11.847656 11.476562 14.4375 10.460938 16.9375 10.828125 C 22.863281 11.753906 21.84375 28.324219 33.785156 28.324219 Z M 33.785156 28.324219 "/></g></g></g><g fill="#cde2ff" fill-opacity="1"><g transform="translate(347.931872, 493.042991)"><g/></g></g><g fill="#cde2ff" fill-opacity="1"><g transform="translate(347.931872, 517.478279)"><g><path d="M 2.777344 27.859375 C 2.5 23.511719 5.183594 19.898438 24.25 22.769531 C 32.394531 23.972656 40.355469 24.898438 46 20.457031 C 55.8125 12.589844 48.6875 -3.425781 40.539062 -9.71875 L 39.058594 -8.238281 C 41.929688 -5.367188 42.667969 -2.3125 40.539062 0.183594 C 37.394531 3.792969 32.210938 3.238281 24.804688 2.128906 C 10.367188 -0.183594 -0.371094 7.867188 -0.371094 24.066406 C -0.371094 29.527344 1.945312 34.246094 5.644531 38.132812 C -5.277344 37.578125 -12.773438 34.0625 -12.773438 27.304688 C -12.773438 20.824219 -1.667969 20.269531 -1.667969 8.421875 C -1.667969 -3.609375 -14.4375 -6.941406 -24.527344 -5.554688 L -24.527344 -3.515625 C -20.457031 -3.515625 -17.957031 -2.777344 -17.957031 1.386719 C -17.957031 6.015625 -25.269531 7.867188 -25.269531 17.03125 C -25.269531 30.820312 -4.351562 41.375 14.53125 46.835938 C 23.511719 49.425781 42.019531 54.054688 50.074219 49.242188 L 50.074219 22.398438 C 42.390625 36.746094 3.703125 43.59375 2.777344 27.859375 Z M 2.777344 27.859375 "/></g></g></g><g fill="#cde2ff" fill-opacity="1"><g transform="translate(347.931872, 570.606537)"><g><path d="M 50.722656 29.339844 C 50.722656 12.773438 40.171875 1.667969 25.082031 1.667969 C 9.902344 1.667969 -0.648438 12.773438 -0.648438 29.339844 C -0.648438 45.816406 9.902344 56.921875 25.082031 56.921875 C 40.171875 56.921875 50.722656 45.816406 50.722656 29.339844 Z M 4.257812 42.484375 C 0.925781 37.207031 8.332031 30.265625 20.640625 22.398438 C 33.042969 14.53125 42.484375 10.828125 45.910156 16.105469 C 49.242188 21.382812 41.835938 28.324219 29.433594 36.191406 C 17.125 43.964844 7.589844 47.851562 4.257812 42.484375 Z M 4.257812 42.484375 "/></g></g></g><g fill="#cde2ff" fill-opacity="1"><g transform="translate(347.931872, 629.195727)"><g><path d="M 0 53.867188 L 50.074219 53.867188 L 50.074219 33.597656 L 10.460938 33.597656 C 7.3125 33.414062 5.089844 32.582031 4.257812 30.082031 C 2.589844 24.621094 5.183594 19.808594 24.25 22.675781 C 32.394531 23.878906 40.355469 24.804688 46 20.363281 C 55.8125 12.589844 48.6875 -3.515625 40.539062 -9.71875 L 39.058594 -8.332031 C 41.929688 -5.367188 42.667969 -2.3125 40.539062 0.09375 C 37.394531 3.703125 32.210938 3.238281 24.804688 2.035156 C 10.367188 -0.277344 -0.371094 7.960938 -0.371094 23.972656 C -0.371094 33.136719 9.070312 37.765625 7.128906 47.296875 C 6.570312 49.796875 4.628906 51.554688 0 51.554688 Z M 0 53.867188 "/></g></g></g><g fill="#000000" fill-opacity="0.7098"><g transform="translate(214.591215, 267.177368)"><g><path d="M 24.34375 50.8125 L 24.433594 48.5 C 21.472656 48.964844 16.199219 46.558594 16.199219 41.929688 C 16.199219 37.394531 23.417969 32.117188 23.417969 22.953125 C 23.417969 16.566406 20.363281 8.976562 12.679688 4.90625 C 27.121094 7.867188 23.046875 22.398438 33.785156 22.398438 L 62.753906 22.398438 L 62.753906 2.128906 L 0 2.128906 L 0 4.441406 C 4.441406 4.441406 9.253906 5.554688 9.253906 12.03125 C 9.253906 18.417969 -0.648438 20.546875 -0.648438 34.339844 C -0.648438 52.019531 16.011719 52.574219 24.34375 50.8125 Z M 24.34375 50.8125 "/></g></g></g><g fill="#cde2ff" fill-opacity="1"><g transform="translate(218.681871, 263.086702)"><g><path d="M 24.34375 50.8125 L 24.433594 48.5 C 21.472656 48.964844 16.199219 46.558594 16.199219 41.929688 C 16.199219 37.394531 23.417969 32.117188 23.417969 22.953125 C 23.417969 16.566406 20.363281 8.976562 12.679688 4.90625 C 27.121094 7.867188 23.046875 22.398438 33.785156 22.398438 L 62.753906 22.398438 L 62.753906 2.128906 L 0 2.128906 L 0 4.441406 C 4.441406 4.441406 9.253906 5.554688 9.253906 12.03125 C 9.253906 18.417969 -0.648438 20.546875 -0.648438 34.339844 C -0.648438 52.019531 16.011719 52.574219 24.34375 50.8125 Z M 24.34375 50.8125 "/></g></g></g><g fill="#000000" fill-opacity="0.7098"><g transform="translate(214.591215, 320.302855)"><g/></g></g><g fill="#000000" fill-opacity="0.7098"><g transform="translate(214.591215, 344.738148)"><g/></g></g><g fill="#000000" fill-opacity="0.7098"><g transform="translate(214.591215, 369.173441)"><g/></g></g><g fill="#cde2ff" fill-opacity="1"><g transform="translate(218.681871, 316.212189)"><g/></g></g><g fill="#cde2ff" fill-opacity="1"><g transform="translate(218.681871, 340.647481)"><g/></g></g><g fill="#cde2ff" fill-opacity="1"><g transform="translate(218.681871, 365.082774)"><g/></g></g><g fill="#000000" fill-opacity="0.7098"><g transform="translate(214.591215, 393.607543)"><g><path d="M 62.753906 32.488281 C 55.257812 44.890625 35.449219 49.890625 22.675781 42.300781 C 18.605469 39.890625 14.625 38.042969 10.921875 36.839844 C 18.417969 36.375 24.34375 35.265625 30.082031 33.507812 C 37.023438 31.378906 39.890625 30.359375 46.464844 28.230469 C 60.71875 23.601562 63.21875 12.773438 63.21875 8.050781 C 63.21875 3.238281 61.457031 -2.683594 56.273438 -6.292969 L 54.515625 -4.71875 C 57.757812 -1.757812 57.386719 2.960938 52.109375 5.183594 C 43.410156 8.886719 32.488281 10.921875 20.640625 14.808594 C 10.273438 18.328125 18.789062 34.894531 0 34.894531 L 0 37.207031 C 4.71875 37.207031 14.714844 39.984375 22.953125 45.351562 C 32.394531 51.460938 49.425781 60.625 62.753906 60.625 Z M 62.753906 32.488281 "/></g></g></g><g fill="#000000" fill-opacity="0.7098"><g transform="translate(214.591215, 455.899062)"><g><path d="M 33.785156 40.078125 L 33.785156 28.046875 C 33.785156 7.40625 51.460938 4.164062 55.257812 10.460938 C 60.996094 19.898438 39.890625 21.660156 39.890625 35.355469 C 39.890625 49.148438 52.664062 52.019531 62.847656 50.628906 L 62.847656 48.59375 C 58.773438 48.59375 56.183594 47.574219 56.183594 43.039062 C 56.183594 38.410156 63.308594 32.023438 63.308594 22.863281 C 63.308594 -3.238281 37.484375 0.460938 32.210938 20.546875 C 30.265625 9.625 25.546875 1.667969 16.566406 1.667969 C 6.480469 1.667969 -0.648438 12.21875 -0.648438 29.617188 C -0.648438 42.113281 3.515625 48.871094 9.71875 54.425781 L 10.828125 53.40625 C 2.3125 45.351562 -1.019531 30.265625 13.421875 22.953125 C 24.433594 17.308594 31.378906 20.363281 31.378906 29.988281 L 31.378906 38.503906 Z M 33.785156 40.078125 "/></g></g></g><g fill="#cde2ff" fill-opacity="1"><g transform="translate(218.681871, 389.516877)"><g><path d="M 62.753906 32.488281 C 55.257812 44.890625 35.449219 49.890625 22.675781 42.300781 C 18.605469 39.890625 14.625 38.042969 10.921875 36.839844 C 18.417969 36.375 24.34375 35.265625 30.082031 33.507812 C 37.023438 31.378906 39.890625 30.359375 46.464844 28.230469 C 60.71875 23.601562 63.21875 12.773438 63.21875 8.050781 C 63.21875 3.238281 61.457031 -2.683594 56.273438 -6.292969 L 54.515625 -4.71875 C 57.757812 -1.757812 57.386719 2.960938 52.109375 5.183594 C 43.410156 8.886719 32.488281 10.921875 20.640625 14.808594 C 10.273438 18.328125 18.789062 34.894531 0 34.894531 L 0 37.207031 C 4.71875 37.207031 14.714844 39.984375 22.953125 45.351562 C 32.394531 51.460938 49.425781 60.625 62.753906 60.625 Z M 62.753906 32.488281 "/></g></g></g><g fill="#cde2ff" fill-opacity="1"><g transform="translate(218.681871, 451.808396)"><g><path d="M 33.785156 40.078125 L 33.785156 28.046875 C 33.785156 7.40625 51.460938 4.164062 55.257812 10.460938 C 60.996094 19.898438 39.890625 21.660156 39.890625 35.355469 C 39.890625 49.148438 52.664062 52.019531 62.847656 50.628906 L 62.847656 48.59375 C 58.773438 48.59375 56.183594 47.574219 56.183594 43.039062 C 56.183594 38.410156 63.308594 32.023438 63.308594 22.863281 C 63.308594 -3.238281 37.484375 0.460938 32.210938 20.546875 C 30.265625 9.625 25.546875 1.667969 16.566406 1.667969 C 6.480469 1.667969 -0.648438 12.21875 -0.648438 29.617188 C -0.648438 42.113281 3.515625 48.871094 9.71875 54.425781 L 10.828125 53.40625 C 2.3125 45.351562 -1.019531 30.265625 13.421875 22.953125 C 24.433594 17.308594 31.378906 20.363281 31.378906 29.988281 L 31.378906 38.503906 Z M 33.785156 40.078125 "/></g></g></g><g fill="#000000" fill-opacity="0.7098"><g transform="translate(214.591215, 508.559693)"><g/></g></g><g fill="#cde2ff" fill-opacity="1"><g transform="translate(218.681871, 504.469026)"><g/></g></g></svg>