<svg xmlns="http://www.w3.org/2000/svg" xmlns:xlink="http://www.w3.org/1999/xlink" width="500" zoomAndPan="magnify" viewBox="0 0 375 374.999991" height="500" preserveAspectRatio="xMidYMid meet" version="1.0"><defs><clipPath id="e12894815e"><path d="M 163 104.597656 L 239.554688 104.597656 L 239.554688 182 L 163 182 Z M 163 104.597656 " clip-rule="nonzero"/></clipPath><clipPath id="65416747a3"><path d="M 175 104.597656 L 211 104.597656 L 211 117 L 175 117 Z M 175 104.597656 " clip-rule="nonzero"/></clipPath><clipPath id="b6636e42c4"><path d="M 155.554688 108 L 232 108 L 232 184 L 155.554688 184 Z M 155.554688 108 " clip-rule="nonzero"/></clipPath><clipPath id="04b162af8b"><path d="M 155.554688 107 L 232 107 L 232 184.097656 L 155.554688 184.097656 Z M 155.554688 107 " clip-rule="nonzero"/></clipPath><clipPath id="05a62cc54b"><path d="M 163 104.597656 L 239.554688 104.597656 L 239.554688 182 L 163 182 Z M 163 104.597656 " clip-rule="nonzero"/></clipPath><clipPath id="797575dbcf"><path d="M 175 104.597656 L 211 104.597656 L 211 117 L 175 117 Z M 175 104.597656 " clip-rule="nonzero"/></clipPath><clipPath id="149ab0a6d6"><path d="M 155.554688 108 L 232 108 L 232 184 L 155.554688 184 Z M 155.554688 108 " clip-rule="nonzero"/></clipPath><clipPath id="53bf76ba6c"><path d="M 155.554688 107 L 232 107 L 232 184.097656 L 155.554688 184.097656 Z M 155.554688 107 " clip-rule="nonzero"/></clipPath><clipPath id="423e51989d"><path d="M 187.457031 183.816406 L 197.957031 183.816406 L 197.957031 264.816406 L 187.457031 264.816406 Z M 187.457031 183.816406 " clip-rule="nonzero"/></clipPath><clipPath id="3b0506e420"><path d="M 227 99.070312 L 303.445312 99.070312 L 303.445312 176 L 227 176 Z M 227 99.070312 " clip-rule="nonzero"/></clipPath><clipPath id="d5576eeb8b"><path d="M 227 99.070312 L 303.445312 99.070312 L 303.445312 177 L 227 177 Z M 227 99.070312 " clip-rule="nonzero"/></clipPath><clipPath id="31a3c17ce0"><path d="M 239 99.070312 L 275 99.070312 L 275 111 L 239 111 Z M 239 99.070312 " clip-rule="nonzero"/></clipPath><clipPath id="83b7434061"><path d="M 219.445312 102 L 296 102 L 296 178.570312 L 219.445312 178.570312 Z M 219.445312 102 " clip-rule="nonzero"/></clipPath><clipPath id="3d8ddd6d54"><path d="M 227 99.070312 L 303.445312 99.070312 L 303.445312 176 L 227 176 Z M 227 99.070312 " clip-rule="nonzero"/></clipPath><clipPath id="c833597c01"><path d="M 227 99.070312 L 303.445312 99.070312 L 303.445312 177 L 227 177 Z M 227 99.070312 " clip-rule="nonzero"/></clipPath><clipPath id="f253b4d629"><path d="M 239 99.070312 L 275 99.070312 L 275 111 L 239 111 Z M 239 99.070312 " clip-rule="nonzero"/></clipPath><clipPath id="cdd03ccbca"><path d="M 219.445312 102 L 296 102 L 296 178.570312 L 219.445312 178.570312 Z M 219.445312 102 " clip-rule="nonzero"/></clipPath><clipPath id="3b601b0a70"><path d="M 199 175 L 258 175 L 258 272 L 199 272 Z M 199 175 " clip-rule="nonzero"/></clipPath><clipPath id="8bad2ed4fb"><path d="M 249.867188 170.890625 L 261.742188 178.773438 L 199.945312 271.882812 L 188.074219 264.003906 Z M 249.867188 170.890625 " clip-rule="nonzero"/></clipPath><clipPath id="2cfbc6afc6"><path d="M 249.867188 170.890625 L 261.742188 178.773438 L 199.945312 271.882812 L 188.074219 264.003906 Z M 249.867188 170.890625 " clip-rule="nonzero"/></clipPath><clipPath id="e8815f70d6"><path d="M 249.867188 170.890625 L 261.742188 178.773438 L 199.945312 271.882812 L 188.074219 264.003906 Z M 249.867188 170.890625 " clip-rule="nonzero"/></clipPath><clipPath id="32e96ee346"><path d="M 79 104.597656 L 155.441406 104.597656 L 155.441406 182 L 79 182 Z M 79 104.597656 " clip-rule="nonzero"/></clipPath><clipPath id="4b7007a537"><path d="M 91 104.597656 L 127 104.597656 L 127 117 L 91 117 Z M 91 104.597656 " clip-rule="nonzero"/></clipPath><clipPath id="0828aecfa7"><path d="M 71.441406 108 L 148 108 L 148 184 L 71.441406 184 Z M 71.441406 108 " clip-rule="nonzero"/></clipPath><clipPath id="4f3ccc66c3"><path d="M 71.441406 107 L 148 107 L 148 184.097656 L 71.441406 184.097656 Z M 71.441406 107 " clip-rule="nonzero"/></clipPath><clipPath id="5ed33cba19"><path d="M 79 104.597656 L 155.441406 104.597656 L 155.441406 182 L 79 182 Z M 79 104.597656 " clip-rule="nonzero"/></clipPath><clipPath id="d69d833e0d"><path d="M 91 104.597656 L 127 104.597656 L 127 117 L 91 117 Z M 91 104.597656 " clip-rule="nonzero"/></clipPath><clipPath id="6391733f12"><path d="M 71.441406 108 L 148 108 L 148 184 L 71.441406 184 Z M 71.441406 108 " clip-rule="nonzero"/></clipPath><clipPath id="de33884dbc"><path d="M 71.441406 107 L 148 107 L 148 184.097656 L 71.441406 184.097656 Z M 71.441406 107 " clip-rule="nonzero"/></clipPath><clipPath id="a1e3fc3ae2"><path d="M 99 182 L 204 182 L 204 276 L 99 276 Z M 99 182 " clip-rule="nonzero"/></clipPath><clipPath id="d52603f560"><path d="M 93.46875 190.160156 L 102.734375 178.363281 L 211.851562 264.070312 L 202.585938 275.867188 Z M 93.46875 190.160156 " clip-rule="nonzero"/></clipPath><clipPath id="c083f795ec"><path d="M 93.46875 190.160156 L 102.734375 178.363281 L 211.851562 264.070312 L 202.585938 275.867188 Z M 93.46875 190.160156 " clip-rule="nonzero"/></clipPath><clipPath id="d8983c6426"><path d="M 93.46875 190.160156 L 102.734375 178.363281 L 211.851562 264.070312 L 202.585938 275.867188 Z M 93.46875 190.160156 " clip-rule="nonzero"/></clipPath></defs><g clip-path="url(#e12894815e)"><path fill="#ef7195" d="M 239.152344 142.734375 C 239.152344 121.878906 222.324219 104.96875 201.570312 104.96875 C 196.144531 104.96875 190.996094 106.132812 186.339844 108.210938 L 186.34375 108.199219 C 183.828125 109.210938 177.847656 111.617188 177.742188 111.6875 C 177.742188 111.6875 163.988281 130.324219 163.988281 142.734375 C 163.988281 151.589844 167.023438 159.734375 172.105469 166.175781 C 178.988281 174.902344 207 181.234375 207 181.234375 L 210.34375 179.867188 L 213.996094 178.371094 C 215.167969 177.960938 216.316406 177.492188 217.433594 176.96875 L 217.640625 176.882812 L 217.628906 176.878906 C 230.351562 170.828125 239.152344 157.816406 239.152344 142.734375 Z M 239.152344 142.734375 " fill-opacity="1" fill-rule="nonzero"/><path fill="#000000" d="M 206.996094 181.609375 C 206.96875 181.609375 206.945312 181.605469 206.917969 181.597656 C 205.765625 181.339844 178.699219 175.132812 171.8125 166.40625 C 166.453125 159.609375 163.617188 151.425781 163.617188 142.734375 C 163.617188 130.34375 176.878906 112.226562 177.441406 111.464844 C 177.46875 111.429688 177.5 111.398438 177.539062 111.375 C 177.613281 111.320312 178.035156 111.140625 185.320312 108.207031 L 186.203125 107.851562 C 186.230469 107.839844 186.253906 107.832031 186.28125 107.828125 C 191.121094 105.683594 196.265625 104.597656 201.570312 104.597656 C 222.496094 104.597656 239.523438 121.703125 239.523438 142.734375 C 239.523438 157.371094 231.027344 170.882812 217.863281 177.179688 C 217.839844 177.199219 217.808594 177.214844 217.777344 177.230469 L 217.570312 177.3125 C 216.460938 177.835938 215.292969 178.3125 214.117188 178.722656 L 207.136719 181.582031 C 207.09375 181.597656 207.046875 181.609375 206.996094 181.609375 Z M 177.984375 111.984375 C 177.027344 113.300781 164.359375 130.988281 164.359375 142.734375 C 164.359375 151.253906 167.136719 159.28125 172.394531 165.941406 C 178.902344 174.1875 205.019531 180.390625 206.964844 180.84375 L 213.855469 178.027344 C 215.023438 177.617188 216.167969 177.148438 217.273438 176.628906 L 217.417969 176.570312 C 217.433594 176.558594 217.449219 176.550781 217.46875 176.542969 C 230.414062 170.382812 238.78125 157.113281 238.78125 142.734375 C 238.78125 122.117188 222.089844 105.34375 201.570312 105.34375 C 196.335938 105.34375 191.261719 106.421875 186.488281 108.554688 C 186.457031 108.566406 186.421875 108.578125 186.386719 108.582031 L 185.597656 108.898438 C 183.128906 109.894531 178.636719 111.703125 177.984375 111.984375 Z M 177.984375 111.984375 " fill-opacity="1" fill-rule="nonzero"/></g><g clip-path="url(#65416747a3)"><path fill="#000000" d="M 208.277344 115.1875 C 209.652344 114.058594 211.277344 112.191406 210.042969 110.71875 C 209.765625 110.386719 209.492188 110.042969 209.417969 109.605469 C 209.386719 109.417969 209.367188 109.15625 209.492188 108.996094 C 209.695312 108.738281 210.167969 108.980469 210.332031 108.679688 C 210.476562 108.414062 210.257812 108.039062 210.074219 107.851562 C 209.800781 107.574219 209.378906 106.964844 209.871094 106.722656 C 210.273438 106.523438 210.601562 106.574219 210.714844 106.097656 C 207.945312 105.441406 204.539062 104.96875 201.570312 104.96875 C 196.144531 104.96875 190.996094 106.132812 186.34375 108.199219 C 183.828125 109.210938 177.847656 111.617188 177.742188 111.683594 C 177.742188 111.683594 176.699219 113.097656 175.195312 115.398438 C 179.222656 113.882812 183.929688 113.554688 187.554688 114.101562 C 188.957031 114.3125 191.082031 114.84375 191.988281 116.058594 C 194.980469 114.972656 198.203125 114.371094 201.570312 114.371094 C 203.882812 114.371094 206.125 114.660156 208.277344 115.1875 Z M 208.277344 115.1875 " fill-opacity="1" fill-rule="nonzero"/></g><path fill="#000000" d="M 233.335938 162.527344 C 233.328125 162.539062 233.039062 162.425781 233 162.421875 C 232.730469 162.40625 232.417969 162.65625 232.1875 162.769531 C 231.878906 162.925781 231.609375 162.671875 231.644531 162.347656 C 231.832031 160.519531 230.695312 162.105469 229.992188 161.683594 C 229.285156 161.261719 229.71875 159.835938 228.304688 160.539062 C 228.070312 160.65625 227.730469 160.511719 227.75 160.214844 C 227.875 157.867188 226.433594 157.648438 224.992188 158.207031 C 221.777344 163.226562 217.089844 167.03125 211.695312 169.191406 C 209.699219 172.902344 207.832031 176.703125 205.722656 180.351562 C 206.324219 180.277344 206.921875 180.191406 207.519531 180.089844 C 207.519531 180.089844 207.738281 180.0625 207.730469 180.058594 C 218.269531 178.195312 227.679688 171.847656 233.335938 162.527344 Z M 233.335938 162.527344 " fill-opacity="1" fill-rule="nonzero"/><g clip-path="url(#b6636e42c4)"><path fill="#ffd33b" d="M 193.539062 108.199219 C 172.785156 108.199219 155.957031 125.109375 155.957031 145.964844 C 155.957031 166.816406 172.785156 183.726562 193.539062 183.726562 C 214.292969 183.726562 231.121094 166.816406 231.121094 145.964844 C 231.121094 125.109375 214.292969 108.199219 193.539062 108.199219 Z M 193.539062 108.199219 " fill-opacity="1" fill-rule="nonzero"/></g><g clip-path="url(#04b162af8b)"><path fill="#000000" d="M 193.539062 184.097656 C 172.613281 184.097656 155.585938 166.992188 155.585938 145.964844 C 155.585938 124.933594 172.613281 107.828125 193.539062 107.828125 C 214.46875 107.828125 231.492188 124.933594 231.492188 145.964844 C 231.492188 166.992188 214.46875 184.097656 193.539062 184.097656 Z M 193.539062 108.574219 C 173.019531 108.574219 156.328125 125.347656 156.328125 145.964844 C 156.328125 166.578125 173.023438 183.351562 193.539062 183.351562 C 214.058594 183.351562 230.75 166.578125 230.75 145.964844 C 230.75 125.347656 214.058594 108.574219 193.539062 108.574219 Z M 193.539062 108.574219 " fill-opacity="1" fill-rule="nonzero"/></g><path fill="#000000" d="M 186.679688 135.28125 C 186.679688 140.386719 184.542969 144.523438 181.910156 144.523438 C 179.273438 144.523438 177.136719 140.386719 177.136719 135.28125 C 177.136719 130.175781 179.273438 126.039062 181.910156 126.039062 C 184.542969 126.039062 186.679688 130.175781 186.679688 135.28125 Z M 186.679688 135.28125 " fill-opacity="1" fill-rule="nonzero"/><path fill="#ffffff" d="M 182.507812 131.679688 C 182.507812 133.253906 181.847656 134.527344 181.035156 134.527344 C 180.222656 134.527344 179.5625 133.253906 179.5625 131.679688 C 179.5625 130.105469 180.222656 128.828125 181.035156 128.828125 C 181.847656 128.828125 182.507812 130.105469 182.507812 131.679688 Z M 182.507812 131.679688 " fill-opacity="1" fill-rule="nonzero"/><path fill="#000000" d="M 208.410156 135.28125 C 208.410156 140.386719 206.273438 144.523438 203.636719 144.523438 C 201.003906 144.523438 198.867188 140.386719 198.867188 135.28125 C 198.867188 130.175781 201.003906 126.039062 203.636719 126.039062 C 206.273438 126.039062 208.410156 130.175781 208.410156 135.28125 Z M 208.410156 135.28125 " fill-opacity="1" fill-rule="nonzero"/><path fill="#ffffff" d="M 204.042969 131.679688 C 204.042969 133.253906 203.382812 134.527344 202.570312 134.527344 C 201.757812 134.527344 201.097656 133.253906 201.097656 131.679688 C 201.097656 130.105469 201.757812 128.828125 202.570312 128.828125 C 203.382812 128.828125 204.042969 130.105469 204.042969 131.679688 Z M 204.042969 131.679688 " fill-opacity="1" fill-rule="nonzero"/><path fill="#ffffff" d="M 168.847656 124.253906 C 168.847656 124.253906 168.921875 124.125 168.945312 123.90625 C 168.972656 123.667969 169.078125 123.292969 169.199219 122.890625 C 169.960938 120.386719 172.53125 118.261719 175.226562 118.628906 C 175.484375 118.65625 175.636719 118.679688 175.636719 118.679688 C 176.304688 118.785156 176.765625 119.417969 176.65625 120.089844 C 176.585938 120.53125 176.292969 120.878906 175.914062 121.039062 L 175.707031 121.121094 C 175.707031 121.121094 175.609375 121.164062 175.4375 121.226562 C 175.265625 121.273438 175.035156 121.371094 174.773438 121.46875 C 173.558594 121.925781 172.734375 122.921875 172.003906 123.953125 C 171.4375 124.75 170.679688 126.171875 169.484375 125.386719 C 169.105469 125.140625 168.847656 124.726562 168.847656 124.304688 Z M 168.847656 124.253906 " fill-opacity="1" fill-rule="nonzero"/><path fill="#000000" d="M 170.339844 125.988281 C 170.058594 125.988281 169.769531 125.890625 169.476562 125.699219 C 168.90625 125.328125 168.867188 124.675781 168.863281 124.367188 C 168.804688 124.253906 168.746094 124.085938 168.769531 123.867188 L 168.785156 123.6875 C 168.808594 123.453125 168.835938 123.128906 168.941406 122.78125 C 169.804688 119.945312 172.601562 117.886719 175.324219 118.257812 C 175.585938 118.285156 175.722656 118.3125 175.722656 118.3125 C 176.136719 118.375 176.503906 118.601562 176.753906 118.949219 C 177.003906 119.296875 177.105469 119.722656 177.035156 120.148438 C 176.949219 120.691406 176.578125 121.164062 176.0625 121.382812 L 175.851562 121.46875 C 175.851562 121.46875 175.742188 121.515625 175.5625 121.578125 C 175.429688 121.613281 175.296875 121.667969 175.152344 121.726562 L 174.902344 121.820312 C 173.851562 122.214844 173.101562 123.046875 172.304688 124.167969 C 172.214844 124.292969 172.128906 124.4375 172.035156 124.582031 C 171.640625 125.210938 171.152344 125.988281 170.339844 125.988281 Z M 174.660156 118.960938 C 172.503906 118.960938 170.351562 120.695312 169.652344 123 C 169.570312 123.273438 169.542969 123.539062 169.527344 123.753906 L 169.460938 123.949219 L 169.519531 124.058594 L 169.519531 124.253906 C 169.519531 124.730469 169.640625 124.945312 169.835938 125.074219 C 170.007812 125.1875 170.183594 125.242188 170.316406 125.242188 C 170.71875 125.242188 171.085938 124.679688 171.398438 124.183594 C 171.496094 124.027344 171.597656 123.871094 171.695312 123.734375 C 172.453125 122.667969 173.339844 121.609375 174.640625 121.121094 L 174.878906 121.03125 C 175.058594 120.960938 175.214844 120.898438 175.34375 120.863281 C 175.46875 120.820312 175.5625 120.78125 175.566406 120.777344 L 175.777344 120.691406 C 176.054688 120.574219 176.253906 120.324219 176.300781 120.03125 C 176.339844 119.800781 176.285156 119.570312 176.152344 119.382812 C 176.019531 119.203125 175.824219 119.082031 175.601562 119.046875 C 175.589844 119.042969 175.46875 119.023438 175.234375 119 C 175.035156 118.972656 174.847656 118.960938 174.660156 118.960938 Z M 174.660156 118.960938 " fill-opacity="1" fill-rule="nonzero"/><path fill="#000000" d="M 193.367188 174.039062 C 180.707031 174.039062 170.40625 163.6875 170.40625 150.964844 C 170.40625 150.554688 170.738281 150.21875 171.148438 150.21875 C 171.558594 150.21875 171.890625 150.554688 171.890625 150.964844 C 171.890625 162.867188 181.527344 172.546875 193.367188 172.546875 C 205.210938 172.546875 214.847656 162.867188 214.847656 150.96875 C 214.847656 150.554688 215.179688 150.21875 215.589844 150.21875 C 216 150.21875 216.332031 150.554688 216.332031 150.96875 C 216.332031 163.6875 206.03125 174.039062 193.367188 174.039062 Z M 193.367188 174.039062 " fill-opacity="1" fill-rule="nonzero"/><path fill="#000000" d="M 171.148438 151.65625 C 168.261719 151.65625 167.523438 149.570312 167.492188 149.480469 C 167.359375 149.09375 167.570312 148.667969 167.957031 148.535156 C 168.34375 148.402344 168.761719 148.609375 168.894531 148.992188 C 168.945312 149.121094 169.398438 150.164062 171.148438 150.164062 C 171.652344 150.164062 172.390625 150 173.625 148.722656 C 173.910156 148.425781 174.378906 148.417969 174.675781 148.707031 C 174.96875 148.992188 174.976562 149.464844 174.691406 149.761719 C 173.425781 151.070312 172.332031 151.65625 171.148438 151.65625 Z M 171.148438 151.65625 " fill-opacity="1" fill-rule="nonzero"/><path fill="#000000" d="M 215.929688 151.65625 C 214.746094 151.65625 213.65625 151.070312 212.390625 149.761719 C 212.105469 149.464844 212.113281 148.992188 212.40625 148.707031 C 212.699219 148.417969 213.167969 148.425781 213.457031 148.722656 C 214.683594 149.992188 215.394531 150.164062 215.929688 150.164062 C 217.691406 150.164062 218.136719 149.109375 218.183594 148.992188 C 218.328125 148.609375 218.753906 148.410156 219.132812 148.546875 C 219.511719 148.683594 219.714844 149.097656 219.585938 149.484375 C 219.554688 149.570312 218.816406 151.65625 215.929688 151.65625 Z M 215.929688 151.65625 " fill-opacity="1" fill-rule="nonzero"/><g clip-path="url(#05a62cc54b)"><path fill="#ef7195" d="M 239.152344 142.734375 C 239.152344 121.878906 222.324219 104.96875 201.570312 104.96875 C 196.144531 104.96875 190.996094 106.132812 186.339844 108.210938 L 186.34375 108.199219 C 183.828125 109.210938 177.847656 111.617188 177.742188 111.6875 C 177.742188 111.6875 163.988281 130.324219 163.988281 142.734375 C 163.988281 151.589844 167.023438 159.734375 172.105469 166.175781 C 178.988281 174.902344 207 181.234375 207 181.234375 L 210.34375 179.867188 L 213.996094 178.371094 C 215.167969 177.960938 216.316406 177.492188 217.433594 176.96875 L 217.640625 176.882812 L 217.628906 176.878906 C 230.351562 170.828125 239.152344 157.816406 239.152344 142.734375 Z M 239.152344 142.734375 " fill-opacity="1" fill-rule="nonzero"/><path fill="#000000" d="M 206.996094 181.609375 C 206.96875 181.609375 206.945312 181.605469 206.917969 181.597656 C 205.765625 181.339844 178.699219 175.132812 171.8125 166.40625 C 166.453125 159.609375 163.617188 151.425781 163.617188 142.734375 C 163.617188 130.34375 176.878906 112.226562 177.441406 111.464844 C 177.46875 111.429688 177.5 111.398438 177.539062 111.375 C 177.613281 111.320312 178.035156 111.140625 185.320312 108.207031 L 186.203125 107.851562 C 186.230469 107.839844 186.253906 107.832031 186.28125 107.828125 C 191.121094 105.683594 196.265625 104.597656 201.570312 104.597656 C 222.496094 104.597656 239.523438 121.703125 239.523438 142.734375 C 239.523438 157.371094 231.027344 170.882812 217.863281 177.179688 C 217.839844 177.199219 217.808594 177.214844 217.777344 177.230469 L 217.570312 177.3125 C 216.460938 177.835938 215.292969 178.3125 214.117188 178.722656 L 207.136719 181.582031 C 207.09375 181.597656 207.046875 181.609375 206.996094 181.609375 Z M 177.984375 111.984375 C 177.027344 113.300781 164.359375 130.988281 164.359375 142.734375 C 164.359375 151.253906 167.136719 159.28125 172.394531 165.941406 C 178.902344 174.1875 205.019531 180.390625 206.964844 180.84375 L 213.855469 178.027344 C 215.023438 177.617188 216.167969 177.148438 217.273438 176.628906 L 217.417969 176.570312 C 217.433594 176.558594 217.449219 176.550781 217.46875 176.542969 C 230.414062 170.382812 238.78125 157.113281 238.78125 142.734375 C 238.78125 122.117188 222.089844 105.34375 201.570312 105.34375 C 196.335938 105.34375 191.261719 106.421875 186.488281 108.554688 C 186.457031 108.566406 186.421875 108.578125 186.386719 108.582031 L 185.597656 108.898438 C 183.128906 109.894531 178.636719 111.703125 177.984375 111.984375 Z M 177.984375 111.984375 " fill-opacity="1" fill-rule="nonzero"/></g><g clip-path="url(#797575dbcf)"><path fill="#000000" d="M 208.277344 115.1875 C 209.652344 114.058594 211.277344 112.191406 210.042969 110.71875 C 209.765625 110.386719 209.492188 110.042969 209.417969 109.605469 C 209.386719 109.417969 209.367188 109.15625 209.492188 108.996094 C 209.695312 108.738281 210.167969 108.980469 210.332031 108.679688 C 210.476562 108.414062 210.257812 108.039062 210.074219 107.851562 C 209.800781 107.574219 209.378906 106.964844 209.871094 106.722656 C 210.273438 106.523438 210.601562 106.574219 210.714844 106.097656 C 207.945312 105.441406 204.539062 104.96875 201.570312 104.96875 C 196.144531 104.96875 190.996094 106.132812 186.34375 108.199219 C 183.828125 109.210938 177.847656 111.617188 177.742188 111.683594 C 177.742188 111.683594 176.699219 113.097656 175.195312 115.398438 C 179.222656 113.882812 183.929688 113.554688 187.554688 114.101562 C 188.957031 114.3125 191.082031 114.84375 191.988281 116.058594 C 194.980469 114.972656 198.203125 114.371094 201.570312 114.371094 C 203.882812 114.371094 206.125 114.660156 208.277344 115.1875 Z M 208.277344 115.1875 " fill-opacity="1" fill-rule="nonzero"/></g><path fill="#000000" d="M 233.335938 162.527344 C 233.328125 162.539062 233.039062 162.425781 233 162.421875 C 232.730469 162.40625 232.417969 162.65625 232.1875 162.769531 C 231.878906 162.925781 231.609375 162.671875 231.644531 162.347656 C 231.832031 160.519531 230.695312 162.105469 229.992188 161.683594 C 229.285156 161.261719 229.71875 159.835938 228.304688 160.539062 C 228.070312 160.65625 227.730469 160.511719 227.75 160.214844 C 227.875 157.867188 226.433594 157.648438 224.992188 158.207031 C 221.777344 163.226562 217.089844 167.03125 211.695312 169.191406 C 209.699219 172.902344 207.832031 176.703125 205.722656 180.351562 C 206.324219 180.277344 206.921875 180.191406 207.519531 180.089844 C 207.519531 180.089844 207.738281 180.0625 207.730469 180.058594 C 218.269531 178.195312 227.679688 171.847656 233.335938 162.527344 Z M 233.335938 162.527344 " fill-opacity="1" fill-rule="nonzero"/><g clip-path="url(#149ab0a6d6)"><path fill="#ffd33b" d="M 193.539062 108.199219 C 172.785156 108.199219 155.957031 125.109375 155.957031 145.964844 C 155.957031 166.816406 172.785156 183.726562 193.539062 183.726562 C 214.292969 183.726562 231.121094 166.816406 231.121094 145.964844 C 231.121094 125.109375 214.292969 108.199219 193.539062 108.199219 Z M 193.539062 108.199219 " fill-opacity="1" fill-rule="nonzero"/></g><g clip-path="url(#53bf76ba6c)"><path fill="#000000" d="M 193.539062 184.097656 C 172.613281 184.097656 155.585938 166.992188 155.585938 145.964844 C 155.585938 124.933594 172.613281 107.828125 193.539062 107.828125 C 214.46875 107.828125 231.492188 124.933594 231.492188 145.964844 C 231.492188 166.992188 214.46875 184.097656 193.539062 184.097656 Z M 193.539062 108.574219 C 173.019531 108.574219 156.328125 125.347656 156.328125 145.964844 C 156.328125 166.578125 173.023438 183.351562 193.539062 183.351562 C 214.058594 183.351562 230.75 166.578125 230.75 145.964844 C 230.75 125.347656 214.058594 108.574219 193.539062 108.574219 Z M 193.539062 108.574219 " fill-opacity="1" fill-rule="nonzero"/></g><path fill="#000000" d="M 186.679688 135.28125 C 186.679688 140.386719 184.542969 144.523438 181.910156 144.523438 C 179.273438 144.523438 177.136719 140.386719 177.136719 135.28125 C 177.136719 130.175781 179.273438 126.039062 181.910156 126.039062 C 184.542969 126.039062 186.679688 130.175781 186.679688 135.28125 Z M 186.679688 135.28125 " fill-opacity="1" fill-rule="nonzero"/><path fill="#ffffff" d="M 182.507812 131.679688 C 182.507812 133.253906 181.847656 134.527344 181.035156 134.527344 C 180.222656 134.527344 179.5625 133.253906 179.5625 131.679688 C 179.5625 130.105469 180.222656 128.828125 181.035156 128.828125 C 181.847656 128.828125 182.507812 130.105469 182.507812 131.679688 Z M 182.507812 131.679688 " fill-opacity="1" fill-rule="nonzero"/><path fill="#000000" d="M 208.410156 135.28125 C 208.410156 140.386719 206.273438 144.523438 203.636719 144.523438 C 201.003906 144.523438 198.867188 140.386719 198.867188 135.28125 C 198.867188 130.175781 201.003906 126.039062 203.636719 126.039062 C 206.273438 126.039062 208.410156 130.175781 208.410156 135.28125 Z M 208.410156 135.28125 " fill-opacity="1" fill-rule="nonzero"/><path fill="#ffffff" d="M 204.042969 131.679688 C 204.042969 133.253906 203.382812 134.527344 202.570312 134.527344 C 201.757812 134.527344 201.097656 133.253906 201.097656 131.679688 C 201.097656 130.105469 201.757812 128.828125 202.570312 128.828125 C 203.382812 128.828125 204.042969 130.105469 204.042969 131.679688 Z M 204.042969 131.679688 " fill-opacity="1" fill-rule="nonzero"/><path fill="#ffffff" d="M 168.847656 124.253906 C 168.847656 124.253906 168.921875 124.125 168.945312 123.90625 C 168.972656 123.667969 169.078125 123.292969 169.199219 122.890625 C 169.960938 120.386719 172.53125 118.261719 175.226562 118.628906 C 175.484375 118.65625 175.636719 118.679688 175.636719 118.679688 C 176.304688 118.785156 176.765625 119.417969 176.65625 120.089844 C 176.585938 120.53125 176.292969 120.878906 175.914062 121.039062 L 175.707031 121.121094 C 175.707031 121.121094 175.609375 121.164062 175.4375 121.226562 C 175.265625 121.273438 175.035156 121.371094 174.773438 121.46875 C 173.558594 121.925781 172.734375 122.921875 172.003906 123.953125 C 171.4375 124.75 170.679688 126.171875 169.484375 125.386719 C 169.105469 125.140625 168.847656 124.726562 168.847656 124.304688 Z M 168.847656 124.253906 " fill-opacity="1" fill-rule="nonzero"/><path fill="#000000" d="M 170.339844 125.988281 C 170.058594 125.988281 169.769531 125.890625 169.476562 125.699219 C 168.90625 125.328125 168.867188 124.675781 168.863281 124.367188 C 168.804688 124.253906 168.746094 124.085938 168.769531 123.867188 L 168.785156 123.6875 C 168.808594 123.453125 168.835938 123.128906 168.941406 122.78125 C 169.804688 119.945312 172.601562 117.886719 175.324219 118.257812 C 175.585938 118.285156 175.722656 118.3125 175.722656 118.3125 C 176.136719 118.375 176.503906 118.601562 176.753906 118.949219 C 177.003906 119.296875 177.105469 119.722656 177.035156 120.148438 C 176.949219 120.691406 176.578125 121.164062 176.0625 121.382812 L 175.851562 121.46875 C 175.851562 121.46875 175.742188 121.515625 175.5625 121.578125 C 175.429688 121.613281 175.296875 121.667969 175.152344 121.726562 L 174.902344 121.820312 C 173.851562 122.214844 173.101562 123.046875 172.304688 124.167969 C 172.214844 124.292969 172.128906 124.4375 172.035156 124.582031 C 171.640625 125.210938 171.152344 125.988281 170.339844 125.988281 Z M 174.660156 118.960938 C 172.503906 118.960938 170.351562 120.695312 169.652344 123 C 169.570312 123.273438 169.542969 123.539062 169.527344 123.753906 L 169.460938 123.949219 L 169.519531 124.058594 L 169.519531 124.253906 C 169.519531 124.730469 169.640625 124.945312 169.835938 125.074219 C 170.007812 125.1875 170.183594 125.242188 170.316406 125.242188 C 170.71875 125.242188 171.085938 124.679688 171.398438 124.183594 C 171.496094 124.027344 171.597656 123.871094 171.695312 123.734375 C 172.453125 122.667969 173.339844 121.609375 174.640625 121.121094 L 174.878906 121.03125 C 175.058594 120.960938 175.214844 120.898438 175.34375 120.863281 C 175.46875 120.820312 175.5625 120.78125 175.566406 120.777344 L 175.777344 120.691406 C 176.054688 120.574219 176.253906 120.324219 176.300781 120.03125 C 176.339844 119.800781 176.285156 119.570312 176.152344 119.382812 C 176.019531 119.203125 175.824219 119.082031 175.601562 119.046875 C 175.589844 119.042969 175.46875 119.023438 175.234375 119 C 175.035156 118.972656 174.847656 118.960938 174.660156 118.960938 Z M 174.660156 118.960938 " fill-opacity="1" fill-rule="nonzero"/><path fill="#000000" d="M 193.367188 174.039062 C 180.707031 174.039062 170.40625 163.6875 170.40625 150.964844 C 170.40625 150.554688 170.738281 150.21875 171.148438 150.21875 C 171.558594 150.21875 171.890625 150.554688 171.890625 150.964844 C 171.890625 162.867188 181.527344 172.546875 193.367188 172.546875 C 205.210938 172.546875 214.847656 162.867188 214.847656 150.96875 C 214.847656 150.554688 215.179688 150.21875 215.589844 150.21875 C 216 150.21875 216.332031 150.554688 216.332031 150.96875 C 216.332031 163.6875 206.03125 174.039062 193.367188 174.039062 Z M 193.367188 174.039062 " fill-opacity="1" fill-rule="nonzero"/><path fill="#000000" d="M 171.148438 151.65625 C 168.261719 151.65625 167.523438 149.570312 167.492188 149.480469 C 167.359375 149.09375 167.570312 148.667969 167.957031 148.535156 C 168.34375 148.402344 168.761719 148.609375 168.894531 148.992188 C 168.945312 149.121094 169.398438 150.164062 171.148438 150.164062 C 171.652344 150.164062 172.390625 150 173.625 148.722656 C 173.910156 148.425781 174.378906 148.417969 174.675781 148.707031 C 174.96875 148.992188 174.976562 149.464844 174.691406 149.761719 C 173.425781 151.070312 172.332031 151.65625 171.148438 151.65625 Z M 171.148438 151.65625 " fill-opacity="1" fill-rule="nonzero"/><path fill="#000000" d="M 215.929688 151.65625 C 214.746094 151.65625 213.65625 151.070312 212.390625 149.761719 C 212.105469 149.464844 212.113281 148.992188 212.40625 148.707031 C 212.699219 148.417969 213.167969 148.425781 213.457031 148.722656 C 214.683594 149.992188 215.394531 150.164062 215.929688 150.164062 C 217.691406 150.164062 218.136719 149.109375 218.183594 148.992188 C 218.328125 148.609375 218.753906 148.410156 219.132812 148.546875 C 219.511719 148.683594 219.714844 149.097656 219.585938 149.484375 C 219.554688 149.570312 218.816406 151.65625 215.929688 151.65625 Z M 215.929688 151.65625 " fill-opacity="1" fill-rule="nonzero"/><g clip-path="url(#423e51989d)"><path fill="#92857f" d="M 195.253906 191.089844 C 195.21875 196.695312 194.175781 202.140625 192.625 207.519531 C 191.421875 211.699219 190.226562 215.878906 189.394531 220.148438 C 188.257812 225.972656 188.339844 231.757812 189.757812 237.53125 C 190.816406 241.820312 192.113281 246.023438 193.960938 250.054688 C 195.421875 253.21875 196.261719 256.535156 196.898438 259.917969 C 197.085938 260.921875 197.265625 261.925781 197.4375 262.933594 C 197.507812 263.359375 197.648438 263.757812 197.863281 264.136719 C 197.925781 264.21875 197.949219 264.316406 197.929688 264.417969 C 197.90625 264.523438 197.851562 264.605469 197.757812 264.660156 C 197.515625 264.816406 197.300781 264.722656 197.144531 264.519531 C 196.796875 264.074219 196.691406 263.542969 196.589844 263.011719 C 196.304688 261.535156 196.015625 260.058594 195.75 258.578125 C 195.179688 255.429688 194.078125 252.453125 192.8125 249.507812 C 190.53125 244.199219 188.84375 238.714844 188.058594 233.003906 C 187.464844 228.691406 187.734375 224.410156 188.535156 220.136719 C 189.394531 215.496094 190.742188 210.96875 192.042969 206.4375 C 193.765625 200.425781 194.585938 194.332031 194.28125 188.105469 C 194.246094 187.371094 194.175781 186.632812 194.074219 185.90625 C 194.003906 185.40625 193.957031 184.882812 193.527344 184.5 C 193.441406 184.433594 193.394531 184.347656 193.394531 184.238281 C 193.390625 184.132812 193.433594 184.042969 193.515625 183.972656 C 193.695312 183.8125 193.898438 183.851562 194.089844 183.949219 C 194.488281 184.152344 194.648438 184.519531 194.753906 184.910156 C 194.933594 185.660156 195.042969 186.417969 195.078125 187.183594 C 195.15625 188.484375 195.195312 189.789062 195.253906 191.089844 Z M 195.253906 191.089844 " fill-opacity="1" fill-rule="nonzero"/></g><g clip-path="url(#3b0506e420)"><path fill="#ef7195" d="M 303.042969 137.207031 C 303.042969 116.351562 286.214844 99.441406 265.460938 99.441406 C 260.035156 99.441406 254.886719 100.605469 250.230469 102.683594 L 250.234375 102.671875 C 247.71875 103.683594 241.738281 106.089844 241.632812 106.15625 C 241.632812 106.15625 227.878906 124.796875 227.878906 137.207031 C 227.878906 146.0625 230.914062 154.207031 235.996094 160.648438 C 242.878906 169.371094 270.886719 175.707031 270.886719 175.707031 L 274.234375 174.339844 L 277.886719 172.84375 C 279.058594 172.433594 280.207031 171.964844 281.320312 171.441406 L 281.53125 171.355469 L 281.519531 171.351562 C 294.242188 165.300781 303.042969 152.285156 303.042969 137.207031 Z M 303.042969 137.207031 " fill-opacity="1" fill-rule="nonzero"/></g><g clip-path="url(#d5576eeb8b)"><path fill="#000000" d="M 270.886719 176.082031 C 270.859375 176.082031 270.832031 176.078125 270.808594 176.070312 C 269.65625 175.8125 242.589844 169.605469 235.703125 160.878906 C 230.34375 154.082031 227.507812 145.898438 227.507812 137.207031 C 227.507812 124.816406 240.769531 106.699219 241.332031 105.9375 C 241.359375 105.902344 241.390625 105.871094 241.429688 105.847656 C 241.503906 105.792969 241.921875 105.613281 249.210938 102.679688 L 250.09375 102.324219 C 250.121094 102.3125 250.144531 102.304688 250.171875 102.300781 C 255.011719 100.15625 260.15625 99.070312 265.460938 99.070312 C 286.386719 99.070312 303.414062 116.175781 303.414062 137.207031 C 303.414062 151.84375 294.917969 165.355469 281.753906 171.652344 C 281.730469 171.671875 281.699219 171.6875 281.667969 171.699219 L 281.460938 171.785156 C 280.347656 172.308594 279.183594 172.785156 278.007812 173.195312 L 271.027344 176.050781 C 270.984375 176.070312 270.9375 176.082031 270.886719 176.082031 Z M 241.875 106.457031 C 240.917969 107.773438 228.25 125.460938 228.25 137.207031 C 228.25 145.726562 231.027344 153.753906 236.285156 160.414062 C 242.792969 168.660156 268.910156 174.863281 270.855469 175.316406 L 277.746094 172.5 C 278.914062 172.089844 280.058594 171.621094 281.164062 171.101562 L 281.308594 171.042969 C 281.324219 171.03125 281.339844 171.023438 281.359375 171.015625 C 294.304688 164.855469 302.671875 151.585938 302.671875 137.207031 C 302.671875 116.589844 285.980469 99.816406 265.460938 99.816406 C 260.226562 99.816406 255.152344 100.894531 250.378906 103.027344 C 250.347656 103.039062 250.3125 103.050781 250.277344 103.054688 L 249.488281 103.371094 C 247.019531 104.367188 242.527344 106.175781 241.875 106.457031 Z M 241.875 106.457031 " fill-opacity="1" fill-rule="nonzero"/></g><g clip-path="url(#31a3c17ce0)"><path fill="#000000" d="M 272.164062 109.660156 C 273.542969 108.53125 275.167969 106.664062 273.933594 105.1875 C 273.65625 104.859375 273.382812 104.515625 273.308594 104.078125 C 273.277344 103.890625 273.253906 103.628906 273.382812 103.46875 C 273.585938 103.210938 274.058594 103.453125 274.222656 103.152344 C 274.367188 102.886719 274.144531 102.507812 273.960938 102.324219 C 273.691406 102.046875 273.269531 101.4375 273.761719 101.195312 C 274.164062 100.996094 274.492188 101.046875 274.605469 100.566406 C 271.835938 99.914062 268.429688 99.441406 265.460938 99.441406 C 260.035156 99.441406 254.886719 100.605469 250.234375 102.667969 C 247.71875 103.683594 241.738281 106.085938 241.632812 106.15625 C 241.632812 106.15625 240.589844 107.570312 239.085938 109.867188 C 243.113281 108.355469 247.820312 108.023438 251.445312 108.574219 C 252.847656 108.785156 254.96875 109.316406 255.878906 110.53125 C 258.871094 109.445312 262.09375 108.84375 265.460938 108.84375 C 267.773438 108.84375 270.015625 109.132812 272.164062 109.660156 Z M 272.164062 109.660156 " fill-opacity="1" fill-rule="nonzero"/></g><path fill="#000000" d="M 297.226562 156.996094 C 297.21875 157.011719 296.929688 156.898438 296.890625 156.894531 C 296.617188 156.878906 296.308594 157.128906 296.078125 157.242188 C 295.769531 157.398438 295.5 157.144531 295.535156 156.820312 C 295.722656 154.992188 294.585938 156.578125 293.882812 156.15625 C 293.175781 155.734375 293.609375 154.304688 292.195312 155.011719 C 291.957031 155.128906 291.621094 154.984375 291.636719 154.6875 C 291.765625 152.339844 290.324219 152.121094 288.878906 152.679688 C 285.667969 157.699219 280.980469 161.503906 275.585938 163.660156 C 273.589844 167.375 271.722656 171.171875 269.613281 174.824219 C 270.214844 174.75 270.8125 174.664062 271.40625 174.5625 C 271.40625 174.5625 271.628906 174.535156 271.621094 174.527344 C 282.160156 172.667969 291.570312 166.320312 297.226562 156.996094 Z M 297.226562 156.996094 " fill-opacity="1" fill-rule="nonzero"/><g clip-path="url(#83b7434061)"><path fill="#ffd33b" d="M 257.429688 102.671875 C 236.675781 102.671875 219.847656 119.578125 219.847656 140.433594 C 219.847656 161.289062 236.675781 178.199219 257.429688 178.199219 C 278.183594 178.199219 295.011719 161.289062 295.011719 140.433594 C 295.011719 119.582031 278.183594 102.671875 257.429688 102.671875 Z M 257.429688 102.671875 " fill-opacity="1" fill-rule="nonzero"/><path fill="#000000" d="M 257.429688 178.570312 C 236.503906 178.570312 219.476562 161.464844 219.476562 140.433594 C 219.476562 119.40625 236.503906 102.300781 257.429688 102.300781 C 278.355469 102.300781 295.382812 119.40625 295.382812 140.433594 C 295.382812 161.464844 278.355469 178.570312 257.429688 178.570312 Z M 257.429688 103.046875 C 236.910156 103.046875 220.21875 119.820312 220.21875 140.433594 C 220.21875 161.050781 236.910156 177.824219 257.429688 177.824219 C 277.949219 177.824219 294.640625 161.050781 294.640625 140.433594 C 294.640625 119.816406 277.949219 103.046875 257.429688 103.046875 Z M 257.429688 103.046875 " fill-opacity="1" fill-rule="nonzero"/></g><path fill="#000000" d="M 250.570312 129.753906 C 250.570312 134.859375 248.433594 138.992188 245.800781 138.992188 C 243.164062 138.992188 241.027344 134.859375 241.027344 129.753906 C 241.027344 124.648438 243.164062 120.511719 245.800781 120.511719 C 248.433594 120.511719 250.570312 124.648438 250.570312 129.753906 Z M 250.570312 129.753906 " fill-opacity="1" fill-rule="nonzero"/><path fill="#ffffff" d="M 246.398438 126.152344 C 246.398438 127.726562 245.738281 129 244.925781 129 C 244.113281 129 243.453125 127.726562 243.453125 126.152344 C 243.453125 124.578125 244.113281 123.300781 244.925781 123.300781 C 245.738281 123.300781 246.398438 124.578125 246.398438 126.152344 Z M 246.398438 126.152344 " fill-opacity="1" fill-rule="nonzero"/><path fill="#000000" d="M 272.300781 129.753906 C 272.300781 134.859375 270.164062 138.996094 267.527344 138.996094 C 264.890625 138.996094 262.753906 134.859375 262.753906 129.753906 C 262.753906 124.648438 264.890625 120.511719 267.527344 120.511719 C 270.164062 120.511719 272.300781 124.648438 272.300781 129.753906 Z M 272.300781 129.753906 " fill-opacity="1" fill-rule="nonzero"/><path fill="#ffffff" d="M 267.933594 126.152344 C 267.933594 127.726562 267.273438 129 266.460938 129 C 265.648438 129 264.988281 127.726562 264.988281 126.152344 C 264.988281 124.578125 265.648438 123.300781 266.460938 123.300781 C 267.273438 123.300781 267.933594 124.578125 267.933594 126.152344 Z M 267.933594 126.152344 " fill-opacity="1" fill-rule="nonzero"/><path fill="#ffffff" d="M 232.738281 118.726562 C 232.738281 118.726562 232.8125 118.597656 232.832031 118.378906 C 232.863281 118.140625 232.96875 117.765625 233.089844 117.363281 C 233.851562 114.859375 236.421875 112.734375 239.117188 113.101562 C 239.371094 113.128906 239.527344 113.148438 239.527344 113.148438 C 240.195312 113.257812 240.65625 113.886719 240.542969 114.5625 C 240.476562 115 240.183594 115.351562 239.804688 115.507812 L 239.597656 115.59375 C 239.597656 115.59375 239.5 115.636719 239.328125 115.699219 C 239.15625 115.746094 238.925781 115.84375 238.664062 115.941406 C 237.449219 116.398438 236.621094 117.394531 235.894531 118.421875 C 235.328125 119.222656 234.570312 120.644531 233.375 119.859375 C 232.996094 119.613281 232.738281 119.199219 232.738281 118.777344 Z M 232.738281 118.726562 " fill-opacity="1" fill-rule="nonzero"/><path fill="#000000" d="M 234.230469 120.460938 C 233.949219 120.460938 233.660156 120.363281 233.367188 120.171875 C 232.796875 119.800781 232.757812 119.148438 232.753906 118.839844 C 232.695312 118.726562 232.636719 118.558594 232.660156 118.335938 L 232.675781 118.160156 C 232.695312 117.921875 232.726562 117.601562 232.832031 117.253906 C 233.695312 114.417969 236.492188 112.359375 239.214844 112.730469 C 239.476562 112.757812 239.613281 112.78125 239.613281 112.78125 C 240.027344 112.847656 240.394531 113.074219 240.644531 113.417969 C 240.894531 113.769531 240.992188 114.195312 240.921875 114.621094 C 240.839844 115.164062 240.464844 115.636719 239.953125 115.855469 L 239.742188 115.941406 C 239.742188 115.941406 239.632812 115.984375 239.453125 116.050781 C 239.320312 116.085938 239.1875 116.140625 239.042969 116.195312 L 238.792969 116.292969 C 237.742188 116.6875 236.992188 117.519531 236.195312 118.640625 C 236.105469 118.765625 236.019531 118.90625 235.925781 119.054688 C 235.53125 119.679688 235.042969 120.460938 234.230469 120.460938 Z M 238.550781 113.433594 C 236.394531 113.433594 234.242188 115.167969 233.542969 117.472656 C 233.457031 117.746094 233.433594 118.011719 233.414062 118.226562 L 233.351562 118.421875 L 233.410156 118.53125 L 233.410156 118.726562 C 233.410156 119.203125 233.53125 119.417969 233.726562 119.546875 C 233.898438 119.660156 234.074219 119.714844 234.207031 119.714844 C 234.609375 119.714844 234.976562 119.152344 235.285156 118.65625 C 235.386719 118.496094 235.488281 118.34375 235.585938 118.207031 C 236.34375 117.140625 237.226562 116.082031 238.53125 115.59375 L 238.769531 115.5 C 238.945312 115.433594 239.105469 115.371094 239.234375 115.335938 C 239.359375 115.292969 239.453125 115.253906 239.457031 115.25 L 239.667969 115.164062 C 239.945312 115.046875 240.144531 114.792969 240.191406 114.503906 C 240.230469 114.269531 240.175781 114.042969 240.042969 113.855469 C 239.910156 113.675781 239.714844 113.554688 239.492188 113.519531 C 239.480469 113.515625 239.359375 113.496094 239.125 113.472656 C 238.925781 113.445312 238.738281 113.433594 238.550781 113.433594 Z M 238.550781 113.433594 " fill-opacity="1" fill-rule="nonzero"/><path fill="#000000" d="M 257.257812 168.511719 C 244.597656 168.511719 234.296875 158.160156 234.296875 145.4375 C 234.296875 145.027344 234.628906 144.691406 235.039062 144.691406 C 235.449219 144.691406 235.78125 145.027344 235.78125 145.4375 C 235.78125 157.339844 245.417969 167.019531 257.257812 167.019531 C 269.101562 167.019531 278.738281 157.339844 278.738281 145.4375 C 278.738281 145.027344 279.070312 144.691406 279.480469 144.691406 C 279.890625 144.691406 280.222656 145.027344 280.222656 145.4375 C 280.222656 158.160156 269.921875 168.511719 257.257812 168.511719 Z M 257.257812 168.511719 " fill-opacity="1" fill-rule="nonzero"/><path fill="#000000" d="M 235.039062 146.128906 C 232.152344 146.128906 231.414062 144.042969 231.382812 143.953125 C 231.25 143.566406 231.460938 143.140625 231.847656 143.007812 C 232.234375 142.875 232.648438 143.082031 232.785156 143.464844 C 232.835938 143.59375 233.289062 144.636719 235.039062 144.636719 C 235.542969 144.636719 236.28125 144.472656 237.515625 143.195312 C 237.800781 142.898438 238.269531 142.890625 238.5625 143.179688 C 238.859375 143.464844 238.867188 143.9375 238.582031 144.234375 C 237.316406 145.542969 236.222656 146.128906 235.039062 146.128906 Z M 235.039062 146.128906 " fill-opacity="1" fill-rule="nonzero"/><path fill="#000000" d="M 279.820312 146.128906 C 278.636719 146.128906 277.542969 145.542969 276.28125 144.234375 C 275.996094 143.9375 276.003906 143.464844 276.296875 143.179688 C 276.589844 142.890625 277.058594 142.898438 277.347656 143.195312 C 278.570312 144.464844 279.285156 144.636719 279.820312 144.636719 C 281.582031 144.636719 282.027344 143.582031 282.074219 143.464844 C 282.21875 143.082031 282.644531 142.882812 283.023438 143.019531 C 283.402344 143.15625 283.605469 143.570312 283.476562 143.953125 C 283.445312 144.042969 282.707031 146.128906 279.820312 146.128906 Z M 279.820312 146.128906 " fill-opacity="1" fill-rule="nonzero"/><g clip-path="url(#3d8ddd6d54)"><path fill="#ef7195" d="M 303.042969 137.207031 C 303.042969 116.351562 286.214844 99.441406 265.460938 99.441406 C 260.035156 99.441406 254.886719 100.605469 250.230469 102.683594 L 250.234375 102.671875 C 247.71875 103.683594 241.738281 106.089844 241.632812 106.15625 C 241.632812 106.15625 227.878906 124.796875 227.878906 137.207031 C 227.878906 146.0625 230.914062 154.207031 235.996094 160.648438 C 242.878906 169.371094 270.886719 175.707031 270.886719 175.707031 L 274.234375 174.339844 L 277.886719 172.84375 C 279.058594 172.433594 280.207031 171.964844 281.320312 171.441406 L 281.53125 171.355469 L 281.519531 171.351562 C 294.242188 165.300781 303.042969 152.285156 303.042969 137.207031 Z M 303.042969 137.207031 " fill-opacity="1" fill-rule="nonzero"/></g><g clip-path="url(#c833597c01)"><path fill="#000000" d="M 270.886719 176.082031 C 270.859375 176.082031 270.832031 176.078125 270.808594 176.070312 C 269.65625 175.8125 242.589844 169.605469 235.703125 160.878906 C 230.34375 154.082031 227.507812 145.898438 227.507812 137.207031 C 227.507812 124.816406 240.769531 106.699219 241.332031 105.9375 C 241.359375 105.902344 241.390625 105.871094 241.429688 105.847656 C 241.503906 105.792969 241.921875 105.613281 249.210938 102.679688 L 250.09375 102.324219 C 250.121094 102.3125 250.144531 102.304688 250.171875 102.300781 C 255.011719 100.15625 260.15625 99.070312 265.460938 99.070312 C 286.386719 99.070312 303.414062 116.175781 303.414062 137.207031 C 303.414062 151.84375 294.917969 165.355469 281.753906 171.652344 C 281.730469 171.671875 281.699219 171.6875 281.667969 171.699219 L 281.460938 171.785156 C 280.347656 172.308594 279.183594 172.785156 278.007812 173.195312 L 271.027344 176.050781 C 270.984375 176.070312 270.9375 176.082031 270.886719 176.082031 Z M 241.875 106.457031 C 240.917969 107.773438 228.25 125.460938 228.25 137.207031 C 228.25 145.726562 231.027344 153.753906 236.285156 160.414062 C 242.792969 168.660156 268.910156 174.863281 270.855469 175.316406 L 277.746094 172.5 C 278.914062 172.089844 280.058594 171.621094 281.164062 171.101562 L 281.308594 171.042969 C 281.324219 171.03125 281.339844 171.023438 281.359375 171.015625 C 294.304688 164.855469 302.671875 151.585938 302.671875 137.207031 C 302.671875 116.589844 285.980469 99.816406 265.460938 99.816406 C 260.226562 99.816406 255.152344 100.894531 250.378906 103.027344 C 250.347656 103.039062 250.3125 103.050781 250.277344 103.054688 L 249.488281 103.371094 C 247.019531 104.367188 242.527344 106.175781 241.875 106.457031 Z M 241.875 106.457031 " fill-opacity="1" fill-rule="nonzero"/></g><g clip-path="url(#f253b4d629)"><path fill="#000000" d="M 272.164062 109.660156 C 273.542969 108.53125 275.167969 106.664062 273.933594 105.1875 C 273.65625 104.859375 273.382812 104.515625 273.308594 104.078125 C 273.277344 103.890625 273.253906 103.628906 273.382812 103.46875 C 273.585938 103.210938 274.058594 103.453125 274.222656 103.152344 C 274.367188 102.886719 274.144531 102.507812 273.960938 102.324219 C 273.691406 102.046875 273.269531 101.4375 273.761719 101.195312 C 274.164062 100.996094 274.492188 101.046875 274.605469 100.566406 C 271.835938 99.914062 268.429688 99.441406 265.460938 99.441406 C 260.035156 99.441406 254.886719 100.605469 250.234375 102.667969 C 247.71875 103.683594 241.738281 106.085938 241.632812 106.15625 C 241.632812 106.15625 240.589844 107.570312 239.085938 109.867188 C 243.113281 108.355469 247.820312 108.023438 251.445312 108.574219 C 252.847656 108.785156 254.96875 109.316406 255.878906 110.53125 C 258.871094 109.445312 262.09375 108.84375 265.460938 108.84375 C 267.773438 108.84375 270.015625 109.132812 272.164062 109.660156 Z M 272.164062 109.660156 " fill-opacity="1" fill-rule="nonzero"/></g><path fill="#000000" d="M 297.226562 156.996094 C 297.21875 157.011719 296.929688 156.898438 296.890625 156.894531 C 296.617188 156.878906 296.308594 157.128906 296.078125 157.242188 C 295.769531 157.398438 295.5 157.144531 295.535156 156.820312 C 295.722656 154.992188 294.585938 156.578125 293.882812 156.15625 C 293.175781 155.734375 293.609375 154.304688 292.195312 155.011719 C 291.957031 155.128906 291.621094 154.984375 291.636719 154.6875 C 291.765625 152.339844 290.324219 152.121094 288.878906 152.679688 C 285.667969 157.699219 280.980469 161.503906 275.585938 163.660156 C 273.589844 167.375 271.722656 171.171875 269.613281 174.824219 C 270.214844 174.75 270.8125 174.664062 271.40625 174.5625 C 271.40625 174.5625 271.628906 174.535156 271.621094 174.527344 C 282.160156 172.667969 291.570312 166.320312 297.226562 156.996094 Z M 297.226562 156.996094 " fill-opacity="1" fill-rule="nonzero"/><g clip-path="url(#cdd03ccbca)"><path fill="#ffd33b" d="M 257.429688 102.671875 C 236.675781 102.671875 219.847656 119.578125 219.847656 140.433594 C 219.847656 161.289062 236.675781 178.199219 257.429688 178.199219 C 278.183594 178.199219 295.011719 161.289062 295.011719 140.433594 C 295.011719 119.582031 278.183594 102.671875 257.429688 102.671875 Z M 257.429688 102.671875 " fill-opacity="1" fill-rule="nonzero"/><path fill="#000000" d="M 257.429688 178.570312 C 236.503906 178.570312 219.476562 161.464844 219.476562 140.433594 C 219.476562 119.40625 236.503906 102.300781 257.429688 102.300781 C 278.355469 102.300781 295.382812 119.40625 295.382812 140.433594 C 295.382812 161.464844 278.355469 178.570312 257.429688 178.570312 Z M 257.429688 103.046875 C 236.910156 103.046875 220.21875 119.820312 220.21875 140.433594 C 220.21875 161.050781 236.910156 177.824219 257.429688 177.824219 C 277.949219 177.824219 294.640625 161.050781 294.640625 140.433594 C 294.640625 119.816406 277.949219 103.046875 257.429688 103.046875 Z M 257.429688 103.046875 " fill-opacity="1" fill-rule="nonzero"/></g><path fill="#000000" d="M 250.570312 129.753906 C 250.570312 134.859375 248.433594 138.992188 245.800781 138.992188 C 243.164062 138.992188 241.027344 134.859375 241.027344 129.753906 C 241.027344 124.648438 243.164062 120.511719 245.800781 120.511719 C 248.433594 120.511719 250.570312 124.648438 250.570312 129.753906 Z M 250.570312 129.753906 " fill-opacity="1" fill-rule="nonzero"/><path fill="#ffffff" d="M 246.398438 126.152344 C 246.398438 127.726562 245.738281 129 244.925781 129 C 244.113281 129 243.453125 127.726562 243.453125 126.152344 C 243.453125 124.578125 244.113281 123.300781 244.925781 123.300781 C 245.738281 123.300781 246.398438 124.578125 246.398438 126.152344 Z M 246.398438 126.152344 " fill-opacity="1" fill-rule="nonzero"/><path fill="#000000" d="M 272.300781 129.753906 C 272.300781 134.859375 270.164062 138.996094 267.527344 138.996094 C 264.890625 138.996094 262.753906 134.859375 262.753906 129.753906 C 262.753906 124.648438 264.890625 120.511719 267.527344 120.511719 C 270.164062 120.511719 272.300781 124.648438 272.300781 129.753906 Z M 272.300781 129.753906 " fill-opacity="1" fill-rule="nonzero"/><path fill="#ffffff" d="M 267.933594 126.152344 C 267.933594 127.726562 267.273438 129 266.460938 129 C 265.648438 129 264.988281 127.726562 264.988281 126.152344 C 264.988281 124.578125 265.648438 123.300781 266.460938 123.300781 C 267.273438 123.300781 267.933594 124.578125 267.933594 126.152344 Z M 267.933594 126.152344 " fill-opacity="1" fill-rule="nonzero"/><path fill="#ffffff" d="M 232.738281 118.726562 C 232.738281 118.726562 232.8125 118.597656 232.832031 118.378906 C 232.863281 118.140625 232.96875 117.765625 233.089844 117.363281 C 233.851562 114.859375 236.421875 112.734375 239.117188 113.101562 C 239.371094 113.128906 239.527344 113.148438 239.527344 113.148438 C 240.195312 113.257812 240.65625 113.886719 240.542969 114.5625 C 240.476562 115 240.183594 115.351562 239.804688 115.507812 L 239.597656 115.59375 C 239.597656 115.59375 239.5 115.636719 239.328125 115.699219 C 239.15625 115.746094 238.925781 115.84375 238.664062 115.941406 C 237.449219 116.398438 236.621094 117.394531 235.894531 118.421875 C 235.328125 119.222656 234.570312 120.644531 233.375 119.859375 C 232.996094 119.613281 232.738281 119.199219 232.738281 118.777344 Z M 232.738281 118.726562 " fill-opacity="1" fill-rule="nonzero"/><path fill="#000000" d="M 234.230469 120.460938 C 233.949219 120.460938 233.660156 120.363281 233.367188 120.171875 C 232.796875 119.800781 232.757812 119.148438 232.753906 118.839844 C 232.695312 118.726562 232.636719 118.558594 232.660156 118.335938 L 232.675781 118.160156 C 232.695312 117.921875 232.726562 117.601562 232.832031 117.253906 C 233.695312 114.417969 236.492188 112.359375 239.214844 112.730469 C 239.476562 112.757812 239.613281 112.78125 239.613281 112.78125 C 240.027344 112.847656 240.394531 113.074219 240.644531 113.417969 C 240.894531 113.769531 240.992188 114.195312 240.921875 114.621094 C 240.839844 115.164062 240.464844 115.636719 239.953125 115.855469 L 239.742188 115.941406 C 239.742188 115.941406 239.632812 115.984375 239.453125 116.050781 C 239.320312 116.085938 239.1875 116.140625 239.042969 116.195312 L 238.792969 116.292969 C 237.742188 116.6875 236.992188 117.519531 236.195312 118.640625 C 236.105469 118.765625 236.019531 118.90625 235.925781 119.054688 C 235.53125 119.679688 235.042969 120.460938 234.230469 120.460938 Z M 238.550781 113.433594 C 236.394531 113.433594 234.242188 115.167969 233.542969 117.472656 C 233.457031 117.746094 233.433594 118.011719 233.414062 118.226562 L 233.351562 118.421875 L 233.410156 118.53125 L 233.410156 118.726562 C 233.410156 119.203125 233.53125 119.417969 233.726562 119.546875 C 233.898438 119.660156 234.074219 119.714844 234.207031 119.714844 C 234.609375 119.714844 234.976562 119.152344 235.285156 118.65625 C 235.386719 118.496094 235.488281 118.34375 235.585938 118.207031 C 236.34375 117.140625 237.226562 116.082031 238.53125 115.59375 L 238.769531 115.5 C 238.945312 115.433594 239.105469 115.371094 239.234375 115.335938 C 239.359375 115.292969 239.453125 115.253906 239.457031 115.25 L 239.667969 115.164062 C 239.945312 115.046875 240.144531 114.792969 240.191406 114.503906 C 240.230469 114.269531 240.175781 114.042969 240.042969 113.855469 C 239.910156 113.675781 239.714844 113.554688 239.492188 113.519531 C 239.480469 113.515625 239.359375 113.496094 239.125 113.472656 C 238.925781 113.445312 238.738281 113.433594 238.550781 113.433594 Z M 238.550781 113.433594 " fill-opacity="1" fill-rule="nonzero"/><path fill="#000000" d="M 257.257812 168.511719 C 244.597656 168.511719 234.296875 158.160156 234.296875 145.4375 C 234.296875 145.027344 234.628906 144.691406 235.039062 144.691406 C 235.449219 144.691406 235.78125 145.027344 235.78125 145.4375 C 235.78125 157.339844 245.417969 167.019531 257.257812 167.019531 C 269.101562 167.019531 278.738281 157.339844 278.738281 145.4375 C 278.738281 145.027344 279.070312 144.691406 279.480469 144.691406 C 279.890625 144.691406 280.222656 145.027344 280.222656 145.4375 C 280.222656 158.160156 269.921875 168.511719 257.257812 168.511719 Z M 257.257812 168.511719 " fill-opacity="1" fill-rule="nonzero"/><path fill="#000000" d="M 235.039062 146.128906 C 232.152344 146.128906 231.414062 144.042969 231.382812 143.953125 C 231.25 143.566406 231.460938 143.140625 231.847656 143.007812 C 232.234375 142.875 232.648438 143.082031 232.785156 143.464844 C 232.835938 143.59375 233.289062 144.636719 235.039062 144.636719 C 235.542969 144.636719 236.28125 144.472656 237.515625 143.195312 C 237.800781 142.898438 238.269531 142.890625 238.5625 143.179688 C 238.859375 143.464844 238.867188 143.9375 238.582031 144.234375 C 237.316406 145.542969 236.222656 146.128906 235.039062 146.128906 Z M 235.039062 146.128906 " fill-opacity="1" fill-rule="nonzero"/><path fill="#000000" d="M 279.820312 146.128906 C 278.636719 146.128906 277.542969 145.542969 276.28125 144.234375 C 275.996094 143.9375 276.003906 143.464844 276.296875 143.179688 C 276.589844 142.890625 277.058594 142.898438 277.347656 143.195312 C 278.570312 144.464844 279.285156 144.636719 279.820312 144.636719 C 281.582031 144.636719 282.027344 143.582031 282.074219 143.464844 C 282.21875 143.082031 282.644531 142.882812 283.023438 143.019531 C 283.402344 143.15625 283.605469 143.570312 283.476562 143.953125 C 283.445312 144.042969 282.707031 146.128906 279.820312 146.128906 Z M 279.820312 146.128906 " fill-opacity="1" fill-rule="nonzero"/><g clip-path="url(#3b601b0a70)"><g clip-path="url(#8bad2ed4fb)"><g clip-path="url(#2cfbc6afc6)"><g clip-path="url(#e8815f70d6)"><path fill="#92857f" d="M 253.136719 185.105469 C 248.820312 191.519531 243.488281 197 237.632812 202.019531 C 233.082031 205.917969 228.542969 209.824219 224.34375 214.109375 C 218.617188 219.953125 214.296875 226.664062 211.496094 234.363281 C 209.417969 240.089844 207.679688 245.894531 206.695312 251.914062 C 205.929688 256.644531 204.347656 261.089844 202.488281 265.453125 C 201.9375 266.75 201.367188 268.039062 200.796875 269.328125 C 200.550781 269.867188 200.40625 270.433594 200.359375 271.027344 C 200.367188 271.171875 200.320312 271.300781 200.21875 271.402344 C 200.117188 271.507812 199.988281 271.558594 199.839844 271.550781 C 199.449219 271.550781 199.28125 271.277344 199.253906 270.929688 C 199.199219 270.15625 199.488281 269.464844 199.777344 268.78125 C 200.585938 266.867188 201.382812 264.953125 202.210938 263.054688 C 203.96875 259.007812 204.992188 254.757812 205.808594 250.425781 C 207.285156 242.609375 209.558594 235.039062 213.03125 227.886719 C 215.644531 222.480469 219.21875 217.765625 223.382812 213.449219 C 227.894531 208.757812 232.871094 204.574219 237.800781 200.339844 C 244.332031 194.714844 249.90625 188.328125 254.3125 180.945312 C 254.835938 180.070312 255.320312 179.175781 255.761719 178.257812 C 256.0625 177.632812 256.40625 177 256.214844 176.230469 C 256.164062 176.089844 256.179688 175.957031 256.261719 175.832031 C 256.339844 175.707031 256.453125 175.636719 256.601562 175.621094 C 256.925781 175.570312 257.125 175.765625 257.269531 176.023438 C 257.566406 176.554688 257.46875 177.09375 257.285156 177.625 C 256.921875 178.621094 256.464844 179.574219 255.917969 180.480469 C 255.011719 182.035156 254.0625 183.5625 253.136719 185.105469 Z M 253.136719 185.105469 " fill-opacity="1" fill-rule="nonzero"/></g></g></g></g><g clip-path="url(#32e96ee346)"><path fill="#ef7195" d="M 155.039062 142.734375 C 155.039062 121.878906 138.210938 104.96875 117.457031 104.96875 C 112.03125 104.96875 106.882812 106.132812 102.222656 108.210938 L 102.230469 108.199219 C 99.710938 109.210938 93.734375 111.617188 93.625 111.6875 C 93.625 111.6875 79.875 130.324219 79.875 142.734375 C 79.875 151.589844 82.910156 159.734375 87.992188 166.175781 C 94.875 174.902344 122.882812 181.234375 122.882812 181.234375 L 126.230469 179.867188 L 129.882812 178.371094 C 131.054688 177.960938 132.199219 177.492188 133.316406 176.96875 L 133.523438 176.882812 L 133.511719 176.878906 C 146.234375 170.828125 155.039062 157.816406 155.039062 142.734375 Z M 155.039062 142.734375 " fill-opacity="1" fill-rule="nonzero"/><path fill="#000000" d="M 122.882812 181.609375 C 122.855469 181.609375 122.828125 181.605469 122.800781 181.597656 C 121.652344 181.339844 94.585938 175.132812 87.699219 166.40625 C 82.335938 159.609375 79.503906 151.425781 79.503906 142.734375 C 79.503906 130.34375 92.761719 112.226562 93.328125 111.464844 C 93.355469 111.429688 93.386719 111.398438 93.421875 111.375 C 93.5 111.320312 93.917969 111.140625 101.207031 108.207031 L 102.089844 107.851562 C 102.117188 107.839844 102.140625 107.832031 102.167969 107.828125 C 107.007812 105.683594 112.152344 104.597656 117.457031 104.597656 C 138.382812 104.597656 155.410156 121.703125 155.410156 142.734375 C 155.410156 157.371094 146.910156 170.882812 133.75 177.179688 C 133.722656 177.199219 133.695312 177.214844 133.664062 177.230469 L 133.457031 177.3125 C 132.34375 177.835938 131.175781 178.3125 130.003906 178.722656 L 123.023438 181.582031 C 122.976562 181.597656 122.929688 181.609375 122.882812 181.609375 Z M 93.867188 111.984375 C 92.914062 113.300781 80.246094 130.988281 80.246094 142.734375 C 80.246094 151.253906 83.023438 159.28125 88.28125 165.941406 C 94.785156 174.1875 120.90625 180.390625 122.851562 180.84375 L 129.742188 178.027344 C 130.910156 177.617188 132.054688 177.148438 133.160156 176.628906 L 133.304688 176.570312 C 133.320312 176.558594 133.335938 176.550781 133.355469 176.542969 C 146.300781 170.382812 154.667969 157.113281 154.667969 142.734375 C 154.667969 122.117188 137.972656 105.34375 117.457031 105.34375 C 112.222656 105.34375 107.148438 106.421875 102.375 108.554688 C 102.34375 108.566406 102.308594 108.578125 102.273438 108.582031 L 101.484375 108.898438 C 99.011719 109.894531 94.523438 111.703125 93.867188 111.984375 Z M 93.867188 111.984375 " fill-opacity="1" fill-rule="nonzero"/></g><g clip-path="url(#4b7007a537)"><path fill="#000000" d="M 124.160156 115.1875 C 125.539062 114.058594 127.160156 112.191406 125.929688 110.71875 C 125.652344 110.386719 125.375 110.042969 125.304688 109.605469 C 125.273438 109.417969 125.25 109.15625 125.378906 108.996094 C 125.578125 108.738281 126.054688 108.980469 126.214844 108.679688 C 126.363281 108.414062 126.140625 108.039062 125.957031 107.851562 C 125.6875 107.574219 125.265625 106.964844 125.757812 106.722656 C 126.160156 106.523438 126.488281 106.574219 126.601562 106.097656 C 123.832031 105.441406 120.421875 104.96875 117.457031 104.96875 C 112.03125 104.96875 106.882812 106.132812 102.230469 108.199219 C 99.710938 109.210938 93.734375 111.617188 93.625 111.683594 C 93.625 111.683594 92.585938 113.097656 91.082031 115.398438 C 95.109375 113.882812 99.8125 113.554688 103.441406 114.101562 C 104.84375 114.3125 106.964844 114.84375 107.871094 116.058594 C 110.867188 114.972656 114.089844 114.371094 117.457031 114.371094 C 119.769531 114.371094 122.011719 114.660156 124.160156 115.1875 Z M 124.160156 115.1875 " fill-opacity="1" fill-rule="nonzero"/></g><path fill="#000000" d="M 149.222656 162.527344 C 149.214844 162.539062 148.925781 162.425781 148.886719 162.421875 C 148.613281 162.40625 148.304688 162.65625 148.070312 162.769531 C 147.765625 162.925781 147.496094 162.671875 147.53125 162.347656 C 147.71875 160.519531 146.582031 162.105469 145.875 161.683594 C 145.171875 161.261719 145.605469 159.835938 144.1875 160.539062 C 143.953125 160.65625 143.617188 160.511719 143.632812 160.214844 C 143.761719 157.867188 142.316406 157.648438 140.875 158.207031 C 137.664062 163.226562 132.972656 167.03125 127.582031 169.191406 C 125.585938 172.902344 123.71875 176.703125 121.609375 180.351562 C 122.210938 180.277344 122.808594 180.191406 123.402344 180.089844 C 123.402344 180.089844 123.625 180.0625 123.613281 180.058594 C 134.152344 178.195312 143.5625 171.847656 149.222656 162.527344 Z M 149.222656 162.527344 " fill-opacity="1" fill-rule="nonzero"/><g clip-path="url(#0828aecfa7)"><path fill="#ffd33b" d="M 109.425781 108.199219 C 88.667969 108.199219 71.84375 125.109375 71.84375 145.964844 C 71.84375 166.816406 88.671875 183.726562 109.425781 183.726562 C 130.179688 183.726562 147.007812 166.816406 147.007812 145.964844 C 147.007812 125.109375 130.179688 108.199219 109.425781 108.199219 Z M 109.425781 108.199219 " fill-opacity="1" fill-rule="nonzero"/></g><g clip-path="url(#4f3ccc66c3)"><path fill="#000000" d="M 109.425781 184.097656 C 88.496094 184.097656 71.472656 166.992188 71.472656 145.964844 C 71.472656 124.933594 88.496094 107.828125 109.425781 107.828125 C 130.351562 107.828125 147.378906 124.933594 147.378906 145.964844 C 147.378906 166.992188 130.351562 184.097656 109.425781 184.097656 Z M 109.425781 108.574219 C 88.90625 108.574219 72.214844 125.347656 72.214844 145.964844 C 72.214844 166.578125 88.90625 183.351562 109.425781 183.351562 C 129.945312 183.351562 146.636719 166.578125 146.636719 145.964844 C 146.636719 125.347656 129.945312 108.574219 109.425781 108.574219 Z M 109.425781 108.574219 " fill-opacity="1" fill-rule="nonzero"/></g><path fill="#000000" d="M 102.566406 135.28125 C 102.566406 140.386719 100.429688 144.523438 97.796875 144.523438 C 95.160156 144.523438 93.023438 140.386719 93.023438 135.28125 C 93.023438 130.175781 95.160156 126.039062 97.796875 126.039062 C 100.429688 126.039062 102.566406 130.175781 102.566406 135.28125 Z M 102.566406 135.28125 " fill-opacity="1" fill-rule="nonzero"/><path fill="#ffffff" d="M 98.390625 131.679688 C 98.390625 133.253906 97.734375 134.527344 96.921875 134.527344 C 96.105469 134.527344 95.449219 133.253906 95.449219 131.679688 C 95.449219 130.105469 96.105469 128.828125 96.921875 128.828125 C 97.734375 128.828125 98.390625 130.105469 98.390625 131.679688 Z M 98.390625 131.679688 " fill-opacity="1" fill-rule="nonzero"/><path fill="#000000" d="M 124.296875 135.28125 C 124.296875 140.386719 122.160156 144.523438 119.523438 144.523438 C 116.886719 144.523438 114.75 140.386719 114.75 135.28125 C 114.75 130.175781 116.886719 126.039062 119.523438 126.039062 C 122.160156 126.039062 124.296875 130.175781 124.296875 135.28125 Z M 124.296875 135.28125 " fill-opacity="1" fill-rule="nonzero"/><path fill="#ffffff" d="M 119.925781 131.679688 C 119.925781 133.253906 119.265625 134.527344 118.457031 134.527344 C 117.640625 134.527344 116.984375 133.253906 116.984375 131.679688 C 116.984375 130.105469 117.640625 128.828125 118.457031 128.828125 C 119.265625 128.828125 119.925781 130.105469 119.925781 131.679688 Z M 119.925781 131.679688 " fill-opacity="1" fill-rule="nonzero"/><path fill="#ffffff" d="M 84.734375 124.253906 C 84.734375 124.253906 84.804688 124.125 84.828125 123.90625 C 84.859375 123.667969 84.960938 123.292969 85.085938 122.890625 C 85.84375 120.386719 88.414062 118.261719 91.109375 118.628906 C 91.367188 118.65625 91.519531 118.679688 91.519531 118.679688 C 92.1875 118.785156 92.648438 119.417969 92.539062 120.089844 C 92.472656 120.53125 92.175781 120.878906 91.796875 121.039062 L 91.59375 121.121094 C 91.59375 121.121094 91.492188 121.164062 91.324219 121.226562 C 91.148438 121.273438 90.921875 121.371094 90.65625 121.46875 C 89.445312 121.925781 88.617188 122.921875 87.886719 123.953125 C 87.320312 124.75 86.566406 126.171875 85.371094 125.386719 C 84.992188 125.140625 84.734375 124.726562 84.734375 124.304688 Z M 84.734375 124.253906 " fill-opacity="1" fill-rule="nonzero"/><path fill="#000000" d="M 86.226562 125.988281 C 85.945312 125.988281 85.652344 125.890625 85.359375 125.699219 C 84.792969 125.328125 84.753906 124.675781 84.75 124.367188 C 84.691406 124.253906 84.628906 124.085938 84.652344 123.867188 L 84.671875 123.6875 C 84.691406 123.453125 84.722656 123.128906 84.828125 122.78125 C 85.6875 119.945312 88.488281 117.886719 91.210938 118.257812 C 91.472656 118.285156 91.609375 118.3125 91.609375 118.3125 C 92.023438 118.375 92.390625 118.601562 92.640625 118.949219 C 92.890625 119.296875 92.988281 119.722656 92.917969 120.148438 C 92.832031 120.691406 92.460938 121.164062 91.949219 121.382812 L 91.738281 121.46875 C 91.738281 121.46875 91.628906 121.515625 91.445312 121.578125 C 91.3125 121.613281 91.183594 121.667969 91.035156 121.726562 L 90.789062 121.820312 C 89.734375 122.214844 88.988281 123.046875 88.191406 124.167969 C 88.101562 124.292969 88.011719 124.4375 87.921875 124.582031 C 87.527344 125.210938 87.035156 125.988281 86.226562 125.988281 Z M 90.546875 118.960938 C 88.390625 118.960938 86.238281 120.695312 85.539062 123 C 85.453125 123.273438 85.429688 123.539062 85.410156 123.753906 L 85.347656 123.949219 L 85.40625 124.058594 L 85.40625 124.253906 C 85.40625 124.730469 85.523438 124.945312 85.722656 125.074219 C 85.894531 125.1875 86.070312 125.242188 86.203125 125.242188 C 86.605469 125.242188 86.96875 124.679688 87.28125 124.183594 C 87.382812 124.027344 87.484375 123.871094 87.582031 123.734375 C 88.339844 122.667969 89.222656 121.609375 90.527344 121.121094 L 90.765625 121.03125 C 90.941406 120.960938 91.101562 120.898438 91.230469 120.863281 C 91.355469 120.820312 91.449219 120.78125 91.453125 120.777344 L 91.664062 120.691406 C 91.9375 120.574219 92.140625 120.324219 92.1875 120.03125 C 92.222656 119.800781 92.171875 119.570312 92.035156 119.382812 C 91.90625 119.203125 91.710938 119.082031 91.488281 119.046875 C 91.472656 119.042969 91.355469 119.023438 91.121094 119 C 90.921875 118.972656 90.734375 118.960938 90.546875 118.960938 Z M 90.546875 118.960938 " fill-opacity="1" fill-rule="nonzero"/><path fill="#000000" d="M 109.253906 174.039062 C 96.59375 174.039062 86.292969 163.6875 86.292969 150.964844 C 86.292969 150.554688 86.625 150.21875 87.035156 150.21875 C 87.445312 150.21875 87.777344 150.554688 87.777344 150.964844 C 87.777344 162.867188 97.410156 172.546875 109.253906 172.546875 C 121.097656 172.546875 130.734375 162.867188 130.734375 150.96875 C 130.734375 150.554688 131.066406 150.21875 131.476562 150.21875 C 131.886719 150.21875 132.21875 150.554688 132.21875 150.96875 C 132.21875 163.6875 121.917969 174.039062 109.253906 174.039062 Z M 109.253906 174.039062 " fill-opacity="1" fill-rule="nonzero"/><path fill="#000000" d="M 87.035156 151.65625 C 84.148438 151.65625 83.410156 149.570312 83.378906 149.480469 C 83.246094 149.09375 83.453125 148.667969 83.84375 148.535156 C 84.226562 148.402344 84.644531 148.609375 84.78125 148.992188 C 84.832031 149.121094 85.28125 150.164062 87.035156 150.164062 C 87.539062 150.164062 88.277344 150 89.507812 148.722656 C 89.796875 148.425781 90.265625 148.417969 90.558594 148.707031 C 90.855469 148.992188 90.859375 149.464844 90.574219 149.761719 C 89.3125 151.070312 88.21875 151.65625 87.035156 151.65625 Z M 87.035156 151.65625 " fill-opacity="1" fill-rule="nonzero"/><path fill="#000000" d="M 131.816406 151.65625 C 130.632812 151.65625 129.539062 151.070312 128.277344 149.761719 C 127.988281 149.464844 127.996094 148.992188 128.292969 148.707031 C 128.585938 148.417969 129.054688 148.425781 129.34375 148.722656 C 130.566406 149.992188 131.28125 150.164062 131.816406 150.164062 C 133.574219 150.164062 134.023438 149.109375 134.070312 148.992188 C 134.210938 148.609375 134.640625 148.410156 135.015625 148.546875 C 135.398438 148.683594 135.601562 149.097656 135.472656 149.484375 C 135.441406 149.570312 134.703125 151.65625 131.816406 151.65625 Z M 131.816406 151.65625 " fill-opacity="1" fill-rule="nonzero"/><g clip-path="url(#5ed33cba19)"><path fill="#ef7195" d="M 155.039062 142.734375 C 155.039062 121.878906 138.210938 104.96875 117.457031 104.96875 C 112.03125 104.96875 106.882812 106.132812 102.222656 108.210938 L 102.230469 108.199219 C 99.710938 109.210938 93.734375 111.617188 93.625 111.6875 C 93.625 111.6875 79.875 130.324219 79.875 142.734375 C 79.875 151.589844 82.910156 159.734375 87.992188 166.175781 C 94.875 174.902344 122.882812 181.234375 122.882812 181.234375 L 126.230469 179.867188 L 129.882812 178.371094 C 131.054688 177.960938 132.199219 177.492188 133.316406 176.96875 L 133.523438 176.882812 L 133.511719 176.878906 C 146.234375 170.828125 155.039062 157.816406 155.039062 142.734375 Z M 155.039062 142.734375 " fill-opacity="1" fill-rule="nonzero"/><path fill="#000000" d="M 122.882812 181.609375 C 122.855469 181.609375 122.828125 181.605469 122.800781 181.597656 C 121.652344 181.339844 94.585938 175.132812 87.699219 166.40625 C 82.335938 159.609375 79.503906 151.425781 79.503906 142.734375 C 79.503906 130.34375 92.761719 112.226562 93.328125 111.464844 C 93.355469 111.429688 93.386719 111.398438 93.421875 111.375 C 93.5 111.320312 93.917969 111.140625 101.207031 108.207031 L 102.089844 107.851562 C 102.117188 107.839844 102.140625 107.832031 102.167969 107.828125 C 107.007812 105.683594 112.152344 104.597656 117.457031 104.597656 C 138.382812 104.597656 155.410156 121.703125 155.410156 142.734375 C 155.410156 157.371094 146.910156 170.882812 133.75 177.179688 C 133.722656 177.199219 133.695312 177.214844 133.664062 177.230469 L 133.457031 177.3125 C 132.34375 177.835938 131.175781 178.3125 130.003906 178.722656 L 123.023438 181.582031 C 122.976562 181.597656 122.929688 181.609375 122.882812 181.609375 Z M 93.867188 111.984375 C 92.914062 113.300781 80.246094 130.988281 80.246094 142.734375 C 80.246094 151.253906 83.023438 159.28125 88.28125 165.941406 C 94.785156 174.1875 120.90625 180.390625 122.851562 180.84375 L 129.742188 178.027344 C 130.910156 177.617188 132.054688 177.148438 133.160156 176.628906 L 133.304688 176.570312 C 133.320312 176.558594 133.335938 176.550781 133.355469 176.542969 C 146.300781 170.382812 154.667969 157.113281 154.667969 142.734375 C 154.667969 122.117188 137.972656 105.34375 117.457031 105.34375 C 112.222656 105.34375 107.148438 106.421875 102.375 108.554688 C 102.34375 108.566406 102.308594 108.578125 102.273438 108.582031 L 101.484375 108.898438 C 99.011719 109.894531 94.523438 111.703125 93.867188 111.984375 Z M 93.867188 111.984375 " fill-opacity="1" fill-rule="nonzero"/></g><g clip-path="url(#d69d833e0d)"><path fill="#000000" d="M 124.160156 115.1875 C 125.539062 114.058594 127.160156 112.191406 125.929688 110.71875 C 125.652344 110.386719 125.375 110.042969 125.304688 109.605469 C 125.273438 109.417969 125.25 109.15625 125.378906 108.996094 C 125.578125 108.738281 126.054688 108.980469 126.214844 108.679688 C 126.363281 108.414062 126.140625 108.039062 125.957031 107.851562 C 125.6875 107.574219 125.265625 106.964844 125.757812 106.722656 C 126.160156 106.523438 126.488281 106.574219 126.601562 106.097656 C 123.832031 105.441406 120.421875 104.96875 117.457031 104.96875 C 112.03125 104.96875 106.882812 106.132812 102.230469 108.199219 C 99.710938 109.210938 93.734375 111.617188 93.625 111.683594 C 93.625 111.683594 92.585938 113.097656 91.082031 115.398438 C 95.109375 113.882812 99.8125 113.554688 103.441406 114.101562 C 104.84375 114.3125 106.964844 114.84375 107.871094 116.058594 C 110.867188 114.972656 114.089844 114.371094 117.457031 114.371094 C 119.769531 114.371094 122.011719 114.660156 124.160156 115.1875 Z M 124.160156 115.1875 " fill-opacity="1" fill-rule="nonzero"/></g><path fill="#000000" d="M 149.222656 162.527344 C 149.214844 162.539062 148.925781 162.425781 148.886719 162.421875 C 148.613281 162.40625 148.304688 162.65625 148.070312 162.769531 C 147.765625 162.925781 147.496094 162.671875 147.53125 162.347656 C 147.71875 160.519531 146.582031 162.105469 145.875 161.683594 C 145.171875 161.261719 145.605469 159.835938 144.1875 160.539062 C 143.953125 160.65625 143.617188 160.511719 143.632812 160.214844 C 143.761719 157.867188 142.316406 157.648438 140.875 158.207031 C 137.664062 163.226562 132.972656 167.03125 127.582031 169.191406 C 125.585938 172.902344 123.71875 176.703125 121.609375 180.351562 C 122.210938 180.277344 122.808594 180.191406 123.402344 180.089844 C 123.402344 180.089844 123.625 180.0625 123.613281 180.058594 C 134.152344 178.195312 143.5625 171.847656 149.222656 162.527344 Z M 149.222656 162.527344 " fill-opacity="1" fill-rule="nonzero"/><g clip-path="url(#6391733f12)"><path fill="#ffd33b" d="M 109.425781 108.199219 C 88.667969 108.199219 71.84375 125.109375 71.84375 145.964844 C 71.84375 166.816406 88.671875 183.726562 109.425781 183.726562 C 130.179688 183.726562 147.007812 166.816406 147.007812 145.964844 C 147.007812 125.109375 130.179688 108.199219 109.425781 108.199219 Z M 109.425781 108.199219 " fill-opacity="1" fill-rule="nonzero"/></g><g clip-path="url(#de33884dbc)"><path fill="#000000" d="M 109.425781 184.097656 C 88.496094 184.097656 71.472656 166.992188 71.472656 145.964844 C 71.472656 124.933594 88.496094 107.828125 109.425781 107.828125 C 130.351562 107.828125 147.378906 124.933594 147.378906 145.964844 C 147.378906 166.992188 130.351562 184.097656 109.425781 184.097656 Z M 109.425781 108.574219 C 88.90625 108.574219 72.214844 125.347656 72.214844 145.964844 C 72.214844 166.578125 88.90625 183.351562 109.425781 183.351562 C 129.945312 183.351562 146.636719 166.578125 146.636719 145.964844 C 146.636719 125.347656 129.945312 108.574219 109.425781 108.574219 Z M 109.425781 108.574219 " fill-opacity="1" fill-rule="nonzero"/></g><path fill="#000000" d="M 102.566406 135.28125 C 102.566406 140.386719 100.429688 144.523438 97.796875 144.523438 C 95.160156 144.523438 93.023438 140.386719 93.023438 135.28125 C 93.023438 130.175781 95.160156 126.039062 97.796875 126.039062 C 100.429688 126.039062 102.566406 130.175781 102.566406 135.28125 Z M 102.566406 135.28125 " fill-opacity="1" fill-rule="nonzero"/><path fill="#ffffff" d="M 98.390625 131.679688 C 98.390625 133.253906 97.734375 134.527344 96.921875 134.527344 C 96.105469 134.527344 95.449219 133.253906 95.449219 131.679688 C 95.449219 130.105469 96.105469 128.828125 96.921875 128.828125 C 97.734375 128.828125 98.390625 130.105469 98.390625 131.679688 Z M 98.390625 131.679688 " fill-opacity="1" fill-rule="nonzero"/><path fill="#000000" d="M 124.296875 135.28125 C 124.296875 140.386719 122.160156 144.523438 119.523438 144.523438 C 116.886719 144.523438 114.75 140.386719 114.75 135.28125 C 114.75 130.175781 116.886719 126.039062 119.523438 126.039062 C 122.160156 126.039062 124.296875 130.175781 124.296875 135.28125 Z M 124.296875 135.28125 " fill-opacity="1" fill-rule="nonzero"/><path fill="#ffffff" d="M 119.925781 131.679688 C 119.925781 133.253906 119.265625 134.527344 118.457031 134.527344 C 117.640625 134.527344 116.984375 133.253906 116.984375 131.679688 C 116.984375 130.105469 117.640625 128.828125 118.457031 128.828125 C 119.265625 128.828125 119.925781 130.105469 119.925781 131.679688 Z M 119.925781 131.679688 " fill-opacity="1" fill-rule="nonzero"/><path fill="#ffffff" d="M 84.734375 124.253906 C 84.734375 124.253906 84.804688 124.125 84.828125 123.90625 C 84.859375 123.667969 84.960938 123.292969 85.085938 122.890625 C 85.84375 120.386719 88.414062 118.261719 91.109375 118.628906 C 91.367188 118.65625 91.519531 118.679688 91.519531 118.679688 C 92.1875 118.785156 92.648438 119.417969 92.539062 120.089844 C 92.472656 120.53125 92.175781 120.878906 91.796875 121.039062 L 91.59375 121.121094 C 91.59375 121.121094 91.492188 121.164062 91.324219 121.226562 C 91.148438 121.273438 90.921875 121.371094 90.65625 121.46875 C 89.445312 121.925781 88.617188 122.921875 87.886719 123.953125 C 87.320312 124.75 86.566406 126.171875 85.371094 125.386719 C 84.992188 125.140625 84.734375 124.726562 84.734375 124.304688 Z M 84.734375 124.253906 " fill-opacity="1" fill-rule="nonzero"/><path fill="#000000" d="M 86.226562 125.988281 C 85.945312 125.988281 85.652344 125.890625 85.359375 125.699219 C 84.792969 125.328125 84.753906 124.675781 84.75 124.367188 C 84.691406 124.253906 84.628906 124.085938 84.652344 123.867188 L 84.671875 123.6875 C 84.691406 123.453125 84.722656 123.128906 84.828125 122.78125 C 85.6875 119.945312 88.488281 117.886719 91.210938 118.257812 C 91.472656 118.285156 91.609375 118.3125 91.609375 118.3125 C 92.023438 118.375 92.390625 118.601562 92.640625 118.949219 C 92.890625 119.296875 92.988281 119.722656 92.917969 120.148438 C 92.832031 120.691406 92.460938 121.164062 91.949219 121.382812 L 91.738281 121.46875 C 91.738281 121.46875 91.628906 121.515625 91.445312 121.578125 C 91.3125 121.613281 91.183594 121.667969 91.035156 121.726562 L 90.789062 121.820312 C 89.734375 122.214844 88.988281 123.046875 88.191406 124.167969 C 88.101562 124.292969 88.011719 124.4375 87.921875 124.582031 C 87.527344 125.210938 87.035156 125.988281 86.226562 125.988281 Z M 90.546875 118.960938 C 88.390625 118.960938 86.238281 120.695312 85.539062 123 C 85.453125 123.273438 85.429688 123.539062 85.410156 123.753906 L 85.347656 123.949219 L 85.40625 124.058594 L 85.40625 124.253906 C 85.40625 124.730469 85.523438 124.945312 85.722656 125.074219 C 85.894531 125.1875 86.070312 125.242188 86.203125 125.242188 C 86.605469 125.242188 86.96875 124.679688 87.28125 124.183594 C 87.382812 124.027344 87.484375 123.871094 87.582031 123.734375 C 88.339844 122.667969 89.222656 121.609375 90.527344 121.121094 L 90.765625 121.03125 C 90.941406 120.960938 91.101562 120.898438 91.230469 120.863281 C 91.355469 120.820312 91.449219 120.78125 91.453125 120.777344 L 91.664062 120.691406 C 91.9375 120.574219 92.140625 120.324219 92.1875 120.03125 C 92.222656 119.800781 92.171875 119.570312 92.035156 119.382812 C 91.90625 119.203125 91.710938 119.082031 91.488281 119.046875 C 91.472656 119.042969 91.355469 119.023438 91.121094 119 C 90.921875 118.972656 90.734375 118.960938 90.546875 118.960938 Z M 90.546875 118.960938 " fill-opacity="1" fill-rule="nonzero"/><path fill="#000000" d="M 109.253906 174.039062 C 96.59375 174.039062 86.292969 163.6875 86.292969 150.964844 C 86.292969 150.554688 86.625 150.21875 87.035156 150.21875 C 87.445312 150.21875 87.777344 150.554688 87.777344 150.964844 C 87.777344 162.867188 97.410156 172.546875 109.253906 172.546875 C 121.097656 172.546875 130.734375 162.867188 130.734375 150.96875 C 130.734375 150.554688 131.066406 150.21875 131.476562 150.21875 C 131.886719 150.21875 132.21875 150.554688 132.21875 150.96875 C 132.21875 163.6875 121.917969 174.039062 109.253906 174.039062 Z M 109.253906 174.039062 " fill-opacity="1" fill-rule="nonzero"/><path fill="#000000" d="M 87.035156 151.65625 C 84.148438 151.65625 83.410156 149.570312 83.378906 149.480469 C 83.246094 149.09375 83.453125 148.667969 83.84375 148.535156 C 84.226562 148.402344 84.644531 148.609375 84.78125 148.992188 C 84.832031 149.121094 85.28125 150.164062 87.035156 150.164062 C 87.539062 150.164062 88.277344 150 89.507812 148.722656 C 89.796875 148.425781 90.265625 148.417969 90.558594 148.707031 C 90.855469 148.992188 90.859375 149.464844 90.574219 149.761719 C 89.3125 151.070312 88.21875 151.65625 87.035156 151.65625 Z M 87.035156 151.65625 " fill-opacity="1" fill-rule="nonzero"/><path fill="#000000" d="M 131.816406 151.65625 C 130.632812 151.65625 129.539062 151.070312 128.277344 149.761719 C 127.988281 149.464844 127.996094 148.992188 128.292969 148.707031 C 128.585938 148.417969 129.054688 148.425781 129.34375 148.722656 C 130.566406 149.992188 131.28125 150.164062 131.816406 150.164062 C 133.574219 150.164062 134.023438 149.109375 134.070312 148.992188 C 134.210938 148.609375 134.640625 148.410156 135.015625 148.546875 C 135.398438 148.683594 135.601562 149.097656 135.472656 149.484375 C 135.441406 149.570312 134.703125 151.65625 131.816406 151.65625 Z M 131.816406 151.65625 " fill-opacity="1" fill-rule="nonzero"/><g clip-path="url(#a1e3fc3ae2)"><g clip-path="url(#d52603f560)"><g clip-path="url(#c083f795ec)"><g clip-path="url(#d8983c6426)"><path fill="#92857f" d="M 179.207031 238.71875 C 185.949219 243.746094 191.839844 249.625 196.429688 256.71875 C 198.554688 260 200.421875 263.421875 201.722656 267.128906 C 202.554688 269.527344 202.828125 272.019531 203.113281 274.511719 C 203.167969 274.785156 203.136719 275.050781 203.015625 275.300781 C 202.964844 275.390625 202.894531 275.457031 202.808594 275.511719 C 202.71875 275.5625 202.625 275.585938 202.519531 275.585938 C 202.417969 275.585938 202.324219 275.5625 202.234375 275.511719 C 202.144531 275.460938 202.074219 275.390625 202.023438 275.300781 C 201.910156 275.050781 201.851562 274.792969 201.847656 274.519531 C 201.492188 268.324219 198.878906 262.949219 195.617188 257.824219 C 191.894531 251.984375 187.25 246.960938 181.9375 242.527344 C 176.382812 237.878906 170.375 233.867188 164.351562 229.859375 C 158.621094 226.046875 152.5625 222.8125 146.613281 219.390625 C 139.40625 215.253906 132.324219 210.925781 125.535156 206.121094 C 122.824219 204.199219 120.074219 202.335938 117.367188 200.410156 C 113.769531 197.84375 110.476562 194.941406 107.296875 191.894531 C 105.589844 190.238281 103.664062 188.820312 102.089844 187.015625 C 101.105469 185.890625 100.40625 184.585938 99.546875 183.382812 C 99.34375 183.101562 99.28125 182.78125 99.570312 182.535156 C 99.902344 182.25 100.25 182.375 100.53125 182.644531 C 100.734375 182.828125 100.902344 183.035156 101.039062 183.269531 C 102.390625 185.769531 104.457031 187.632812 106.535156 189.484375 C 108.445312 191.1875 110.289062 192.96875 112.21875 194.660156 C 116.382812 198.3125 120.996094 201.355469 125.511719 204.542969 C 134.878906 211.15625 144.742188 216.957031 154.769531 222.492188 C 159.53125 225.117188 164.0625 228.113281 168.589844 231.113281 C 172.222656 233.507812 175.820312 235.964844 179.207031 238.71875 Z M 179.207031 238.71875 " fill-opacity="1" fill-rule="nonzero"/></g></g></g></g></svg>