<svg width="551" height="462" viewBox="0 0 551 462" fill="none" xmlns="http://www.w3.org/2000/svg">
<path d="M271.5 437C387.264 437 481 341.128 481 223C481 104.872 387.264 9 271.5 9C155.736 9 62 104.872 62 223C62 341.128 155.736 437 271.5 437Z" fill="#FF7DB4" stroke="black" stroke-width="6"/>
<g filter="url(#filter0_d_3_67)">
<path d="M227 446C342.98 446 437 353.547 437 239.5C437 125.453 342.98 33 227 33C111.02 33 17 125.453 17 239.5C17 353.547 111.02 446 227 446Z" fill="#FFD33B"/>
<path d="M227 447.5C343.784 447.5 438.5 354.399 438.5 239.5C438.5 124.601 343.784 31.5 227 31.5C110.216 31.5 15.5 124.601 15.5 239.5C15.5 354.399 110.216 447.5 227 447.5Z" stroke="black" stroke-width="3"/>
</g>
<path d="M285 232C299.912 232 312 208.719 312 180C312 151.281 299.912 128 285 128C270.088 128 258 151.281 258 180C258 208.719 270.088 232 285 232Z" fill="black"/>
<path d="M164 230C178.912 230 191 207.167 191 179C191 150.833 178.912 128 164 128C149.088 128 137 150.833 137 179C137 207.167 149.088 230 164 230Z" fill="black"/>
<path d="M159.5 175C164.747 175 169 167.837 169 159C169 150.163 164.747 143 159.5 143C154.253 143 150 150.163 150 159C150 167.837 154.253 175 159.5 175Z" fill="white"/>
<path d="M278.5 175C283.747 175 288 167.837 288 159C288 150.163 283.747 143 278.5 143C273.253 143 269 150.163 269 159C269 167.837 273.253 175 278.5 175Z" fill="white"/>
<path d="M104 263.5C104.04 263.994 104.083 264.494 104.13 265M104.13 265C104.251 266.297 104.396 267.632 104.568 269C109.98 312.082 141.24 388.734 230.5 389.5C323.7 390.3 350.333 308.167 352 267M104.13 265C116.634 261.8 121.587 257 122.5 255M104.13 265C100.42 265.5 91.8 264.2 87 255" stroke="black" stroke-width="8"/>
<path d="M371 255C367.356 263.381 358.179 265.483 352.92 265.538C351.976 265.548 351.052 265.34 350.173 264.996C344.922 262.94 336.5 258.937 336.5 256" stroke="black" stroke-width="8"/>
<path d="M367.241 254.038C367.138 253.991 367.092 253.869 367.139 253.766L367.179 253.68C368.099 251.661 370.481 250.771 372.5 251.691C374.518 252.612 375.409 254.994 374.488 257.012L374.449 257.098C374.402 257.202 374.28 257.247 374.177 257.2L367.241 254.038Z" fill="black"/>
<path d="M332.652 257.235C332.056 254.992 333.391 252.691 335.634 252.095C337.877 251.499 340.178 252.835 340.774 255.078L340.979 255.848C341.007 255.954 340.943 256.064 340.837 256.092L333.101 258.147C332.994 258.175 332.885 258.111 332.856 258.005L332.652 257.235Z" fill="black"/>
<path d="M124 86H123.981L123.962 86.0007C121.706 86.0875 118.037 86.603 114.258 87.8639C110.49 89.1216 106.509 91.1552 103.744 94.3451C103.186 94.989 102.682 95.5683 102.223 96.0958C100.25 98.3616 99.11 99.6708 98.1279 101.032C96.9074 102.724 95.926 104.502 93.8632 108.261C92.9722 109.885 92.5 111.714 92.5 113.569V117.074C92.5 118.455 92.7368 119.898 93.4224 121.209C94.0922 122.49 95.0152 123.942 96.1051 125.006C97.1646 126.04 98.6272 126.932 100.275 126.462C101.175 126.204 102.156 125.464 103.088 124.609C104.056 123.72 105.103 122.58 106.141 121.351C108.22 118.89 110.323 116.003 111.771 113.884C112.113 113.385 112.486 112.927 112.902 112.523C114.842 110.635 117.63 108.121 120.292 106.134C121.624 105.139 122.9 104.295 124.005 103.727C125.162 103.133 125.948 102.939 126.376 102.992C127.716 103.16 129.05 102.729 130.222 102.101C131.404 101.467 132.517 100.583 133.455 99.6995C135.29 97.9718 136 95.5129 136 93.1667V92.5V92.4446L135.994 92.3896C135.82 90.8261 134.678 87.7048 131.422 86.3954C130.561 86.0491 129.662 86 128.902 86H124Z" fill="white" stroke="black" stroke-width="2"/>
<path d="M322.5 53L322.355 52.7096C319.667 49.688 280.569 38.4485 282.5 37C284.065 35.8261 258.005 32.3234 243.921 30.6114C243.303 30.5363 242.688 30.5208 242.067 30.5622L175.5 35C170.699 35.4967 188.264 24.6457 223.785 14.6995C224.255 14.5677 224.744 14.4696 225.229 14.4089L260.5 10H283.5C304 12.5 341.7 17.9 328.5 19.5C312 21.5 318 23 316.5 23.5C315.617 23.7947 317.392 26.8205 319.187 29.4598C320.051 30.7296 319.496 32.5015 318.039 32.9872C317.12 33.2934 316.5 34.1532 316.5 35.1217V38.4819C316.5 39.482 316.717 40.4703 317.137 41.3784L322.379 52.7376C322.459 52.834 322.5 52.9217 322.5 53Z" fill="black"/>
<path d="M321 50L322.5 53M322.5 53L317.137 41.3784C316.717 40.4703 316.5 39.482 316.5 38.4819V35.1217C316.5 34.1533 317.12 33.2934 318.039 32.9872C319.496 32.5015 320.051 30.7296 319.187 29.4598C317.392 26.8205 315.617 23.7947 316.5 23.5C318 23 312 21.5 328.5 19.5C341.7 17.9 304 12.5 283.5 10H260.5L225.229 14.4089C224.744 14.4696 224.255 14.5677 223.785 14.6995C188.264 24.6457 170.699 35.4967 175.5 35L242.067 30.5622C242.688 30.5208 243.303 30.5363 243.921 30.6114C258.005 32.3234 284.065 35.8261 282.5 37C280.5 38.5 322.5 50.5 322.5 53Z" stroke="black" stroke-width="2"/>
<path d="M420.096 323.667L399.087 362.417C398.697 363.136 398.22 363.805 397.668 364.408L387.5 375.5L383.597 380.704C383.2 381.233 382.751 381.722 382.257 382.163L369 394L355.096 405.986C354.699 406.328 354.276 406.639 353.831 406.914L323 426L320.619 427.701C319.179 428.729 319.907 431 321.676 431C321.89 431 322.103 430.962 322.304 430.888L355.058 418.846C355.684 418.616 356.286 418.324 356.855 417.973L391.808 396.427C392.269 396.143 392.705 395.822 393.114 395.467L425.375 367.476C426.121 366.829 426.767 366.075 427.292 365.238L442.5 341C445.167 337.5 450.6 330.4 451 330C451.817 329.183 449.953 328.444 449.045 329.159C446.574 331.107 443.137 333.305 441 333C438.769 332.681 438.506 330.225 438.744 328.313C438.854 327.431 439.017 326.548 438.96 325.661C438.901 324.74 438.767 323.966 438.5 324.5C438 325.5 432 326.5 430 326.5C429.285 326.5 428.611 325.436 428.038 324.021C426.716 320.754 422.726 317.34 421.363 320.591C420.879 321.745 420.693 322.567 420.096 323.667Z" fill="black" stroke="black" stroke-width="2"/>
<defs>
<filter id="filter0_d_3_67" x="10" y="30" width="434" height="427" filterUnits="userSpaceOnUse" color-interpolation-filters="sRGB">
<feFlood flood-opacity="0" result="BackgroundImageFix"/>
<feColorMatrix in="SourceAlpha" type="matrix" values="0 0 0 0 0 0 0 0 0 0 0 0 0 0 0 0 0 0 127 0" result="hardAlpha"/>
<feOffset dy="4"/>
<feGaussianBlur stdDeviation="2"/>
<feComposite in2="hardAlpha" operator="out"/>
<feColorMatrix type="matrix" values="0 0 0 0 0 0 0 0 0 0 0 0 0 0 0 0 0 0 0.25 0"/>
<feBlend mode="normal" in2="BackgroundImageFix" result="effect1_dropShadow_3_67"/>
<feBlend mode="normal" in="SourceGraphic" in2="effect1_dropShadow_3_67" result="shape"/>
</filter>
</defs>
</svg>
