<svg width="50" height="50" viewBox="0 0 50 50" fill="none" xmlns="http://www.w3.org/2000/svg">
<path fill-rule="evenodd" clip-rule="evenodd" d="M4.16699 12.1667C4.16699 8.39545 4.16699 6.50983 5.33857 5.33826C6.51014 4.16669 8.39576 4.16669 12.167 4.16669H37.8337C41.6049 4.16669 43.4905 4.16669 44.6621 5.33826C45.8337 6.50983 45.8337 8.39545 45.8337 12.1667V37.8333C45.8337 41.6046 45.8337 43.4902 44.6621 44.6618C43.4905 45.8334 41.6049 45.8334 37.8337 45.8334H12.167C8.39576 45.8334 6.51014 45.8334 5.33857 44.6618C4.16699 43.4902 4.16699 41.6046 4.16699 37.8334V12.1667ZM16.782 35.1231C19.1397 33.314 22.0285 32.3333 25.0003 32.3333C27.9721 32.3333 30.8609 33.314 33.2186 35.1231C35.5763 36.9322 37.2712 39.4687 38.0403 42.3393C38.1833 42.8728 37.8667 43.4211 37.3332 43.564C36.7998 43.707 36.2514 43.3904 36.1085 42.8569C35.4533 40.4117 34.0095 38.2509 32.0011 36.7098C29.9927 35.1687 27.5319 34.3333 25.0003 34.3333C22.4688 34.3333 20.008 35.1687 17.9996 36.7098C15.9912 38.2509 14.5474 40.4116 13.8922 42.8569C13.7492 43.3904 13.2009 43.707 12.6674 43.564C12.134 43.4211 11.8174 42.8728 11.9603 42.3393C12.7295 39.4687 14.4244 36.9322 16.782 35.1231ZM19.7503 18.75C19.7503 15.8505 22.1008 13.5 25.0003 13.5C27.8998 13.5 30.2503 15.8505 30.2503 18.75C30.2503 21.6495 27.8998 24 25.0003 24C22.1008 24 19.7503 21.6495 19.7503 18.75ZM25.0003 11.5C20.9963 11.5 17.7503 14.746 17.7503 18.75C17.7503 22.7541 20.9963 26 25.0003 26C29.0044 26 32.2503 22.7541 32.2503 18.75C32.2503 14.746 29.0044 11.5 25.0003 11.5Z" fill="#222222"/>
<rect x="4.66699" y="4.66669" width="40.6667" height="40.6667" rx="3.5" stroke="#222222"/>
</svg>
